<svg width="36" height="36" viewBox="0 0 36 36" fill="none" xmlns="http://www.w3.org/2000/svg">
<path d="M32.7973 3.47162C32.3005 2.88746 31.5761 2.55256 30.8098 2.55256H28.2945V1.76576C28.2945 0.792142 27.5023 0 26.5287 0H9.47143C8.49774 0 7.70574 0.792142 7.70574 1.76569V2.55249H5.19017C4.42383 2.55249 3.69933 2.88746 3.20264 3.47155C2.71101 4.04959 2.49853 4.80882 2.61982 5.55449C3.28076 9.61856 5.83838 13.2089 9.46827 15.1783C9.79993 15.9757 10.1755 16.731 10.5938 17.4347C11.9299 19.683 13.5909 21.2367 15.4192 21.9882C15.6045 23.8616 14.3579 25.6363 12.4805 26.0593C12.4765 26.0602 12.4737 26.0616 12.4698 26.0625C12.1034 26.15 11.8306 26.4788 11.8306 26.872V30.6944H10.2847C8.90647 30.6944 7.78519 31.8157 7.78519 33.194V35.1668C7.78519 35.627 8.1582 36 8.6184 36H27.4613C27.9215 36 28.2945 35.627 28.2945 35.1668V33.194C28.2945 31.8157 27.1732 30.6944 25.7949 30.6944H24.2489V26.8721C24.2489 26.4781 23.9752 26.1488 23.6078 26.0621C23.6043 26.0612 23.601 26.0601 23.5976 26.0593C21.706 25.6335 20.4571 23.8409 20.6619 21.9534C22.4582 21.1898 24.0901 19.6499 25.4065 17.4349C25.8248 16.7311 26.2004 15.9757 26.5321 15.1782C30.1618 13.2087 32.7192 9.61842 33.3802 5.55449C33.5015 4.80882 33.289 4.04966 32.7973 3.47162ZM4.26457 5.28695C4.22126 5.02067 4.29488 4.75932 4.47192 4.55106C4.65157 4.33984 4.91328 4.21876 5.1901 4.21876H7.70567V5.75171C7.70567 8.15542 8.01244 10.4838 8.59386 12.613C6.30898 10.8075 4.73581 8.1846 4.26457 5.28695ZM25.7949 32.3609C26.2544 32.3609 26.6281 32.7347 26.6281 33.1941V34.3337H9.45153V33.1941C9.45153 32.7347 9.82532 32.3609 10.2847 32.3609H25.7949ZM22.5825 27.7053V30.6945H13.4972V27.7053H22.5825ZM15.6823 26.0389C15.8882 25.8123 16.0765 25.5665 16.2449 25.3035C16.8002 24.4359 17.0916 23.4503 17.1047 22.4436C17.4007 22.4839 17.6993 22.5055 18.0006 22.5055C18.3283 22.5055 18.653 22.4803 18.9745 22.4326C18.9935 23.7854 19.52 25.0658 20.4053 26.0389H15.6823V26.0389ZM26.628 5.75179C26.628 9.85657 25.6854 13.7034 23.9739 16.5834C22.3432 19.3277 20.2217 20.8391 18.0004 20.8391C15.7788 20.8391 13.6571 19.3277 12.0262 16.5835C10.3147 13.7034 9.37208 9.85664 9.37208 5.75193V1.76569C9.37208 1.71085 9.41666 1.66634 9.47136 1.66634H26.5286C26.5834 1.66634 26.628 1.71092 26.628 1.76569V5.75179ZM31.7354 5.28695C31.2642 8.18439 29.6912 10.8072 27.4064 12.6129C27.9877 10.4836 28.2945 8.15542 28.2945 5.75179V4.21883H30.8098C31.0867 4.21883 31.3484 4.33998 31.5279 4.55113C31.705 4.75932 31.7787 5.02067 31.7354 5.28695Z" fill="black"/>
<path d="M23.0584 8.55406C22.9603 8.25256 22.6996 8.03276 22.3858 7.98706L19.8715 7.62171L18.7472 5.34344C18.6067 5.0591 18.3171 4.87903 18 4.87903C17.6828 4.87903 17.3932 5.0591 17.2529 5.34344L16.1285 7.62171L13.6143 7.98706C13.3004 8.03262 13.0397 8.25249 12.9417 8.55413C12.8437 8.85584 12.9254 9.18687 13.1525 9.40829L14.9719 11.1816L14.5423 13.6857C14.4887 13.9983 14.6171 14.3141 14.8738 14.5006C15.1303 14.687 15.4705 14.7115 15.7512 14.564L18 13.3819L20.2488 14.564C20.3707 14.6281 20.5038 14.6597 20.6363 14.6597C20.809 14.6597 20.981 14.606 21.1261 14.5005C21.3828 14.3141 21.5112 13.9982 21.4576 13.6856L21.028 11.1816L22.8474 9.40822C23.0746 9.18687 23.1563 8.85577 23.0584 8.55406ZM19.5514 10.2941C19.355 10.4855 19.2654 10.7612 19.3118 11.0316L19.5299 12.3036L18.3876 11.703C18.2664 11.6392 18.1331 11.6074 17.9999 11.6074C17.8668 11.6074 17.7336 11.6393 17.6122 11.703L16.47 12.3036L16.6881 11.0316C16.7345 10.7613 16.6449 10.4855 16.4485 10.2941L15.5245 9.39338L16.8015 9.20776C17.0729 9.16838 17.3075 8.99787 17.4289 8.75199L18 7.59478L18.5711 8.75199C18.6925 8.99787 18.927 9.16831 19.1984 9.20776L20.4754 9.39338L19.5514 10.2941Z" fill="black"/>
</svg>
