<svg width="36" height="36" viewBox="0 0 36 36" fill="none" xmlns="http://www.w3.org/2000/svg">
<path d="M12.1038 9.68311H14.2131V11.7925H12.1038V9.68311Z" fill="#333333"/>
<path d="M12.1038 14.5244H14.2131V16.6338H12.1038V14.5244Z" fill="#333333"/>
<path d="M21.7869 14.5244H23.8962V16.6338H21.7869V14.5244Z" fill="#333333"/>
<path d="M26.6283 14.5244H28.7377V16.6338H26.6283V14.5244Z" fill="#333333"/>
<path d="M21.7869 19.3662H23.8962V21.4756H21.7869V19.3662Z" fill="#333333"/>
<path d="M26.6283 19.3662H28.7377V21.4756H26.6283V19.3662Z" fill="#333333"/>
<path d="M21.7869 24.2075H23.8962V26.3169H21.7869V24.2075Z" fill="#333333"/>
<path d="M26.6283 24.2075H28.7377V26.3169H26.6283V24.2075Z" fill="#333333"/>
<path d="M21.7869 29.0491H23.8962V31.1584H21.7869V29.0491Z" fill="#333333"/>
<path d="M26.6283 29.0491H28.7377V31.1584H26.6283V29.0491Z" fill="#333333"/>
<path d="M7.26233 14.5244H9.3717V16.6338H7.26233V14.5244Z" fill="#333333"/>
<path d="M12.1038 19.3662H14.2131V21.4756H12.1038V19.3662Z" fill="#333333"/>
<path d="M7.26233 19.3662H9.3717V21.4756H7.26233V19.3662Z" fill="#333333"/>
<path d="M12.1038 24.2075H14.2131V26.3169H12.1038V24.2075Z" fill="#333333"/>
<path d="M7.26233 24.2075H9.3717V26.3169H7.26233V24.2075Z" fill="#333333"/>
<path d="M33.5792 33.8906V9.68302H19.0547V4.65117L16.6339 5.05463V0H4.84151V7.02007L2.42079 7.42352V33.8906H0V36H36V33.8906H33.5792ZM31.4698 11.7924V33.8906H19.0547V11.7924H31.4698ZM6.95088 2.10938H14.5245V5.40619L6.95088 6.66851V2.10938ZM4.53016 9.21045L16.9453 7.14122V9.68302V33.8906H14.2132V29.0491H7.2623V33.8906H4.53016V9.21045ZM12.1038 33.8906H9.37167V31.1585H12.1038V33.8906Z" fill="#333333"/>
</svg>
