<svg width="36" height="36" viewBox="0 0 36 36" fill="none" xmlns="http://www.w3.org/2000/svg">
<path d="M14.8149 18.9844V0H8.48682V18.9844H10.5962V21.0938C10.0858 21.0938 6.89121 21.0938 6.37744 21.0938V23.2031H8.48682V36H14.8149V23.2031H16.9243V21.0938C16.4139 21.0938 13.2193 21.0938 12.7056 21.0938V18.9844H14.8149ZM10.5962 2.10938H12.7056V4.21875H10.5962V2.10938ZM10.5962 6.32812H12.7056V8.4375H10.5962V6.32812ZM10.5962 10.5469H12.7056V12.6562H10.5962V10.5469ZM12.7056 33.8906H10.5962V23.2031H12.7056V33.8906ZM10.5962 16.875V14.7656H12.7056V16.875H10.5962Z" fill="#333333"/>
<path d="M27.0684 18.9844L29.6227 13.8758L27.31 0H21.3043L18.9917 13.8758L21.546 18.9844H23.2526V21.0938C22.7422 21.0938 19.5476 21.0938 19.0338 21.0938V23.2031H21.1432V36H27.4713V23.2031H29.5807V21.0938C29.0703 21.0938 25.8757 21.0938 25.3619 21.0938V18.9844H27.0684ZM23.0913 2.10938H25.5231L25.8747 4.21875H22.7397L23.0913 2.10938ZM22.3881 6.32812H26.2262L26.5778 8.4375H22.0366L22.3881 6.32812ZM21.3335 12.6562L21.685 10.5469H26.9293L27.2809 12.6562H21.3335ZM25.3619 33.8906H23.2525V23.2031H25.3619V33.8906ZM22.8497 16.875L21.795 14.7656H26.8194L25.7648 16.875H22.8497Z" fill="#333333"/>
</svg>
