<svg width="36" height="36" viewBox="0 0 36 36" fill="none" xmlns="http://www.w3.org/2000/svg">
<g clip-path="url(#clip0_404_193)">
<path d="M33.646 9.09492C33.3574 8.58881 32.7132 8.41261 32.2073 8.70117C31.7014 8.98973 31.525 9.6338 31.8136 10.1398C33.1724 12.5227 33.8906 15.2407 33.8906 18C33.8906 22.2446 32.2377 26.235 29.2364 29.2364C26.235 32.2377 22.2446 33.8906 18 33.8906C13.7554 33.8906 9.765 32.2377 6.76364 29.2364C3.76228 26.235 2.10938 22.2446 2.10938 18C2.10938 13.7554 3.76228 9.765 6.76364 6.76364C9.765 3.76228 13.7554 2.10938 18 2.10938C20.2911 2.10938 22.5018 2.58637 24.5708 3.52723C25.6555 4.0204 26.6804 4.63493 27.6292 5.35908L26.4918 5.43607C25.9106 5.47545 25.4714 5.97839 25.5107 6.55959C25.5482 7.14199 26.0602 7.58187 26.6342 7.54066L30.2731 7.29436C30.8391 7.26609 31.3019 6.73474 31.2542 6.17084L31.0078 2.53188C30.9684 1.95075 30.4658 1.51123 29.8843 1.55081C29.3031 1.59019 28.8639 2.0932 28.9032 2.67434L28.9749 3.7324C27.8821 2.89048 26.6984 2.1773 25.4439 1.60692C23.0989 0.540633 20.5943 0 18 0C13.192 0 8.67185 1.87235 5.2721 5.2721C1.87235 8.67185 0 13.192 0 18C0 22.808 1.87235 27.3281 5.2721 30.7279C8.67185 34.1277 13.192 36 18 36C22.808 36 27.3281 34.1277 30.7279 30.7279C34.1277 27.3281 36 22.808 36 18C36 14.8749 35.186 11.7955 33.646 9.09492Z" fill="#333333"/>
<path d="M25.9495 10.0505C23.8959 8.02339 21.1057 6.75481 18.0001 6.7577C11.8042 6.75622 6.75634 11.8041 6.75781 18C6.75634 24.1958 11.8042 29.2437 18.0001 29.2422C24.1959 29.2437 29.2438 24.1958 29.2423 18C29.2452 14.8943 27.9767 12.1043 25.9495 10.0505ZM26.1328 19.0546H27.0717C26.872 20.784 26.1875 22.3678 25.1577 23.666L24.4966 23.0049C24.0848 22.5931 23.417 22.5931 23.0051 23.0049C22.5932 23.4168 22.5932 24.0846 23.0051 24.4965L23.6661 25.1576C22.3679 26.1874 20.7842 26.8719 19.0548 27.0716V26.1327C19.0548 25.5503 18.5825 25.078 18.0001 25.078C17.4176 25.078 16.9454 25.5503 16.9454 26.1327V27.0716C15.2161 26.8719 13.6323 26.1874 12.334 25.1576L12.9951 24.4965C13.407 24.0846 13.407 23.4168 12.9951 23.0049C12.5833 22.5931 11.9154 22.5931 11.5036 23.0049L10.8425 23.666C9.81261 22.3678 9.12819 20.7841 8.92843 19.0546H9.86731C10.4498 19.0546 10.922 18.5824 10.922 18C10.922 17.4175 10.4498 16.9453 9.86731 16.9453H8.92843C9.12819 15.2159 9.81261 13.6321 10.8425 12.3339L11.5036 12.995C11.7095 13.2009 11.9794 13.3039 12.2493 13.3039C12.5191 13.3039 12.7891 13.201 12.995 12.995C13.4069 12.5831 13.4069 11.9153 12.995 11.5034L12.3339 10.8424C13.6322 9.81249 15.2159 9.12807 16.9453 8.92831V9.8672C16.9453 10.4497 17.4175 10.9219 18 10.9219C18.5825 10.9219 19.0547 10.4497 19.0547 9.8672V8.92831C20.784 9.12807 22.3678 9.81249 23.6661 10.8424L23.005 11.5034C22.5931 11.9153 22.5931 12.5831 23.005 12.995C23.2109 13.2009 23.4809 13.3039 23.7507 13.3039C24.0206 13.3039 24.2906 13.201 24.4965 12.995L25.1575 12.3339C26.1874 13.6321 26.8718 15.2159 27.0716 16.9453H26.1327C25.5502 16.9453 25.078 17.4175 25.078 18C25.078 18.5824 25.5503 19.0546 26.1328 19.0546Z" fill="#333333"/>
<path d="M20.5078 16.9453H19.0547V14.0859C19.0547 13.5035 18.5825 13.0312 18 13.0312C17.4175 13.0312 16.9453 13.5035 16.9453 14.0859V18C16.9453 18.5824 17.4175 19.0546 18 19.0546H20.5078C21.0902 19.0546 21.5625 18.5824 21.5625 18C21.5625 17.4175 21.0902 16.9453 20.5078 16.9453Z" fill="#333333"/>
</g>
<defs>
<clipPath id="clip0_404_193">
<rect width="36" height="36" fill="white"/>
</clipPath>
</defs>
</svg>
