<svg width="36" height="36" viewBox="0 0 36 36" fill="none" xmlns="http://www.w3.org/2000/svg">
<g clip-path="url(#clip0_404_189)">
<path d="M29.5123 21.2194C30.1541 19.5465 30.4985 17.7486 30.4985 15.9056V2.97724L18.0245 0L5.55054 2.97724V15.9055C5.55054 17.7379 5.89071 19.5257 6.52535 21.1903L0 29.1222L5.60426 30.9154L8.56786 35.9993L13.8334 29.27L18.0245 31.665L22.186 29.2869L27.4335 36L30.3974 30.9154L36 29.1227L29.5123 21.2194ZM7.01269 29.1606L3.58959 28.0652L7.51894 23.289C8.62116 25.2153 10.1514 26.8959 12.0212 28.1773L8.82253 32.2651L7.01269 29.1606ZM14.0869 26.9955C10.1172 24.7271 7.6512 20.4777 7.6512 15.9055V4.63549L18.0245 2.15958L28.3978 4.63549V15.9055C28.3978 20.4777 25.9318 24.7271 21.9621 26.9955L18.0245 29.2456L14.0869 26.9955ZM28.989 29.1606L27.1796 32.2644L23.9998 28.1964C25.8737 26.9183 27.4085 25.2402 28.5151 23.3153L32.4138 28.0648L28.989 29.1606Z" fill="#333333"/>
<path d="M22.5935 16.1054L25.3977 12.2252L20.8483 10.7343L18.0245 6.86829L15.2008 10.7343L10.6514 12.2252L13.4556 16.1054L13.4677 20.8929L18.0245 19.4249L22.5814 20.8929L22.5935 16.1054ZM20.4946 15.4233L20.488 18.0116L18.0245 17.2179L15.5611 18.0116L15.5545 15.4233L14.0385 13.3257L16.498 12.5198L18.0245 10.4298L19.5511 12.5198L22.0106 13.3257L20.4946 15.4233Z" fill="#333333"/>
</g>
<defs>
<clipPath id="clip0_404_189">
<rect width="36" height="36" fill="white"/>
</clipPath>
</defs>
</svg>
