<svg width="30" height="30" viewBox="0 0 30 30" fill="none" xmlns="http://www.w3.org/2000/svg">
<g clip-path="url(#clip0_73_50)">
<path d="M24.5007 7.09808L19.6456 11.9531H22.9688C23.616 11.9531 24.1406 12.4777 24.1406 13.125C24.1406 13.7723 23.616 14.2969 22.9688 14.2969H18.5742C16.9588 14.2969 15.6445 12.9826 15.6445 11.3672V6.97266C15.6445 6.32538 16.1691 5.80078 16.8164 5.80078C17.4637 5.80078 17.9883 6.32538 17.9883 6.97266V10.2958L22.8431 5.44098C23.3009 4.98322 24.0429 4.98322 24.5004 5.44098C24.9582 5.89851 24.9582 6.64055 24.5007 7.09808ZM13.2422 24.0234C13.8895 24.0234 14.4141 23.4988 14.4141 22.8516V18.457C14.4141 16.8416 13.0998 15.5273 11.4844 15.5273H7.08984C6.44257 15.5273 5.91797 16.0519 5.91797 16.6992C5.91797 17.3465 6.44257 17.8711 7.08984 17.8711H10.413L5.55794 22.7261C5.1004 23.1837 5.1004 23.9257 5.55794 24.3832C5.78682 24.6121 6.08688 24.7266 6.38672 24.7266C6.68655 24.7266 6.98662 24.6121 7.2155 24.3832L12.0703 19.5284V22.8516C12.0703 23.4988 12.5949 24.0234 13.2422 24.0234ZM28.8281 20.625C29.4754 20.625 30 20.1004 30 19.4531V4.6875C30 2.10274 27.8973 0 25.3125 0H4.6875C2.10274 0 0 2.10274 0 4.6875V25.3125C0 27.8973 2.10274 30 4.6875 30H25.3125C27.8973 30 30 27.8973 30 25.3125C30 24.6652 29.4754 24.1406 28.8281 24.1406C28.1808 24.1406 27.6562 24.6652 27.6562 25.3125C27.6562 26.6048 26.6048 27.6562 25.3125 27.6562H4.6875C3.39523 27.6562 2.34375 26.6048 2.34375 25.3125V4.6875C2.34375 3.39523 3.39523 2.34375 4.6875 2.34375H25.3125C26.6048 2.34375 27.6562 3.39523 27.6562 4.6875V19.4531C27.6562 20.1004 28.1808 20.625 28.8281 20.625Z" fill="#333333"/>
</g>
<defs>
<clipPath id="clip0_73_50">
<rect width="30" height="30" fill="white"/>
</clipPath>
</defs>
</svg>
