<svg width="36" height="36" viewBox="0 0 36 36" fill="none" xmlns="http://www.w3.org/2000/svg">
<g clip-path="url(#clip0_405_267)">
<path d="M15.8906 36C24.6138 36 31.7108 28.8715 31.7108 20.1094C31.7108 11.366 24.6351 4.28918 15.8906 4.28918C7.12846 4.28918 0 11.3861 0 20.1094C0 28.8549 7.14597 36 15.8906 36ZM15.8906 6.39855C23.4507 6.39855 29.6014 12.5493 29.6014 20.1094C29.6014 27.7084 23.4507 33.8906 15.8906 33.8906C8.29157 33.8906 2.10937 27.7084 2.10937 20.1094C2.10937 12.5493 8.29157 6.39855 15.8906 6.39855Z" fill="black"/>
<path d="M15.8906 29.6016C21.1175 29.6016 25.3827 25.3507 25.3827 20.1095C25.3827 19.527 24.9105 19.0548 24.3281 19.0548H7.45312C6.87065 19.0548 6.39844 19.527 6.39844 20.1095C6.39844 25.3531 10.6659 29.6016 15.8906 29.6016ZM12.4626 26.6466C13.4076 25.834 14.609 25.3829 15.8906 25.3829C17.1722 25.3829 18.3736 25.834 19.3186 26.6466C18.2936 27.1863 17.1272 27.4923 15.8906 27.4923C14.6539 27.4923 13.4876 27.1863 12.4626 26.6466ZM23.1983 21.1642C22.9627 22.8039 22.186 24.2711 21.0559 25.379C19.685 24.0297 17.855 23.2735 15.8907 23.2735C13.9263 23.2735 12.0963 24.0297 10.7255 25.379C9.59532 24.2711 8.81858 22.8039 8.58304 21.1642H23.1983Z" fill="black"/>
<path d="M26.986 4.19021L27.4775 1.22746C27.5729 0.652791 27.1843 0.109697 26.6097 0.0143535C26.0351 -0.0808496 25.492 0.307557 25.3966 0.882221L24.905 3.84498C24.8097 4.41964 25.1982 4.96274 25.7729 5.05808C26.3486 5.15342 26.8908 4.76396 26.986 4.19021Z" fill="black"/>
<path d="M30.9421 10.2268C31.0373 10.8002 31.5792 11.1901 32.1552 11.0947L35.118 10.6032C35.6926 10.5078 36.0812 9.96471 35.9858 9.39005C35.8905 8.81545 35.3474 8.42691 34.7727 8.52218L31.81 9.01374C31.2353 9.10908 30.8468 9.65217 30.9421 10.2268Z" fill="black"/>
<path d="M31.5437 2.96434L28.5618 5.94622C28.15 6.35804 28.15 7.02587 28.5618 7.43776C28.9737 7.84965 29.6414 7.84972 30.0534 7.43776L33.0353 4.45588C33.4472 4.04406 33.4472 3.37623 33.0353 2.96434C32.6234 2.55245 31.9556 2.55238 31.5437 2.96434Z" fill="black"/>
<path d="M8.50781 15.8907C9.09028 15.8907 9.5625 15.4185 9.5625 14.8361C9.5625 14.2545 10.0356 13.7814 10.6172 13.7814C11.1987 13.7814 11.6719 14.2545 11.6719 14.8361C11.6719 15.4185 12.1441 15.8907 12.7266 15.8907C13.309 15.8907 13.7812 15.4185 13.7812 14.8361C13.7812 13.0914 12.3619 11.672 10.6172 11.672C8.87252 11.672 7.45312 13.0914 7.45312 14.8361C7.45312 15.4185 7.92534 15.8907 8.50781 15.8907Z" fill="black"/>
<path d="M19.0547 15.8907C19.6372 15.8907 20.1094 15.4185 20.1094 14.8361C20.1094 14.2545 20.5825 13.7814 21.1641 13.7814C21.7456 13.7814 22.2188 14.2545 22.2188 14.8361C22.2188 15.4185 22.691 15.8907 23.2734 15.8907C23.8559 15.8907 24.3281 15.4185 24.3281 14.8361C24.3281 13.0914 22.9087 11.672 21.1641 11.672C19.4194 11.672 18 13.0914 18 14.8361C18 15.4185 18.4722 15.8907 19.0547 15.8907Z" fill="black"/>
</g>
<defs>
<clipPath id="clip0_405_267">
<rect width="36" height="36" fill="white"/>
</clipPath>
</defs>
</svg>
