<svg width="36" height="36" viewBox="0 0 36 36" fill="none" xmlns="http://www.w3.org/2000/svg">
<g clip-path="url(#clip0_404_171)">
<path d="M18.0694 5.01709L17.993 5.01737C15.1958 5.03706 12.5578 6.14323 10.5651 8.13203C8.57231 10.1209 7.461 12.7566 7.43597 15.5538C7.40925 18.5399 8.6496 21.4174 10.8389 23.4484C11.6106 24.1643 12.0532 25.166 12.0532 26.1968V31.9527H14.2035V32.1341C14.2035 34.2658 15.9378 36.0001 18.0695 36.0001C20.2012 36.0001 21.9355 34.2658 21.9355 32.1341V31.9527H24.0858V26.1839C24.0858 25.1569 24.5194 24.1682 25.2754 23.4713C27.4539 21.463 28.7035 18.6126 28.7035 15.6511C28.7034 9.78749 23.933 5.01709 18.0694 5.01709ZM19.8257 32.134C19.8257 33.1024 19.0378 33.8903 18.0694 33.8903C17.101 33.8903 16.3131 33.1024 16.3131 32.134V31.9526H19.8256V32.134H19.8257ZM14.1628 29.843V27.2516H21.976V29.843H14.1628ZM23.8454 21.9201C22.9161 22.7768 22.2969 23.9143 22.0712 25.1418H19.1243V21.473L21.9914 19.6289V16.4536H19.8817V18.4775L18.0694 19.643L16.2572 18.4775V16.4536H14.1475V19.6289L17.0146 21.473V25.1418H14.0646C13.835 23.914 13.2102 22.7704 12.2737 21.9017C10.5185 20.2735 9.52406 17.9666 9.54551 15.5727C9.58693 10.9483 13.3831 7.15961 18.0078 7.12698L18.0694 7.12677C22.7697 7.12677 26.5937 10.9507 26.5937 15.651C26.5937 18.0251 25.592 20.3101 23.8454 21.9201Z" fill="#333333"/>
<path d="M16.9453 0H19.055V2.85045H16.9453V0Z" fill="#333333"/>
<path d="M9.25732 2.6178L11.0843 1.56296L12.5132 4.03779L10.6862 5.09262L9.25732 2.6178Z" fill="#333333"/>
<path d="M3.91211 8.73535L4.96695 6.90837L7.44177 8.33726L6.38694 10.1642L3.91211 8.73535Z" fill="#333333"/>
<path d="M2.3418 14.5962H5.19956V16.7059H2.3418V14.5962Z" fill="#333333"/>
<path d="M30.8008 14.5962H33.6585V16.7059H30.8008V14.5962Z" fill="#333333"/>
<path d="M28.5576 8.33691L31.0325 6.908L32.0873 8.73497L29.6125 10.1639L28.5576 8.33691Z" fill="#333333"/>
<path d="M23.4868 4.03845L24.9157 1.56363L26.7427 2.61846L25.3138 5.09329L23.4868 4.03845Z" fill="#333333"/>
</g>
<defs>
<clipPath id="clip0_404_171">
<rect width="36" height="36" fill="white"/>
</clipPath>
</defs>
</svg>
