<svg width="34" height="34" viewBox="0 0 34 34" fill="none" xmlns="http://www.w3.org/2000/svg">
<g clip-path="url(#clip0_467_1999)">
<path d="M0.996062 33.9999H33.0038C33.3161 33.9999 33.6105 33.8534 33.7986 33.6041C33.9869 33.3551 34.0474 33.0319 33.962 32.7315L29.9777 18.7198C29.8557 18.2915 29.4646 17.9961 29.0194 17.9961H25.454L25.5575 17.8669C27.1048 15.9344 27.9569 13.504 27.9569 11.0234C27.9569 4.94518 23.0419 0 16.9999 0C10.9583 0 6.04293 4.94518 6.04293 11.0234C6.04293 13.504 6.89505 15.9344 8.44263 17.8669L8.54587 17.9961H4.98043C4.5353 17.9961 4.14413 18.2915 4.02247 18.7198L0.0381013 32.7315C-0.0475003 33.0319 0.0129396 33.3551 0.201263 33.6041C0.389587 33.8534 0.683745 33.9999 0.996062 33.9999ZM8.03511 11.0234C8.03511 6.04348 12.0568 1.99218 16.9999 1.99218C21.9433 1.99218 25.9648 6.04374 25.9648 11.0234C25.9648 13.0825 25.2862 15.0184 24.0024 16.6218L16.9999 25.3671L9.99772 16.6218C8.7137 15.0184 8.03511 13.0825 8.03511 11.0234ZM5.73269 19.9882H10.1409L14.9263 25.9648H14.0117C13.4615 25.9648 13.0156 26.4107 13.0156 26.9609C13.0156 27.5111 13.4615 27.957 14.0117 27.957H19.9882C20.5384 27.957 20.9843 27.5111 20.9843 26.9609C20.9843 26.4107 20.5384 25.9648 19.9882 25.9648H19.0736L23.859 19.9882H28.2672L31.685 32.0078H2.3151L5.73269 19.9882Z" fill="#333333"/>
<path d="M11.0234 27.957H7.03906C6.48888 27.957 6.04297 28.4029 6.04297 28.9531C6.04297 29.5033 6.48888 29.9492 7.03906 29.9492H11.0234C11.5736 29.9492 12.0195 29.5033 12.0195 28.9531C12.0195 28.4029 11.5736 27.957 11.0234 27.957Z" fill="#333333"/>
<path d="M27.0273 27.957H22.9766C22.4264 27.957 21.9805 28.4029 21.9805 28.9531C21.9805 29.5033 22.4264 29.9492 22.9766 29.9492H27.0273C27.5775 29.9492 28.0234 29.5033 28.0234 28.9531C28.0234 28.4029 27.5775 27.957 27.0273 27.957Z" fill="#333333"/>
<path d="M9.73577 22.2723C9.54875 22.0855 9.29557 21.9805 9.03124 21.9805H7.03906C6.48888 21.9805 6.04297 22.4264 6.04297 22.9766C6.04297 23.5267 6.48888 23.9727 7.03906 23.9727H8.6188L10.3192 25.6733C10.708 26.0621 11.3389 26.0621 11.7277 25.6733C12.1168 25.2842 12.1168 24.6536 11.7277 24.2645L9.73577 22.2723Z" fill="#333333"/>
<path d="M27.0273 21.9805H24.9687C24.7044 21.9805 24.4512 22.0855 24.2645 22.2723L22.2723 24.2645C21.8832 24.6533 21.8832 25.2842 22.2723 25.673C22.6611 26.0621 23.292 26.0621 23.6811 25.673L25.3814 23.9727H27.0273C27.5775 23.9727 28.0234 23.5267 28.0234 22.9766C28.0234 22.4264 27.5775 21.9805 27.0273 21.9805Z" fill="#333333"/>
<path d="M17 16.0039C19.7462 16.0039 21.9805 13.7697 21.9805 11.0234C21.9805 8.27717 19.7462 6.04297 17 6.04297C14.2537 6.04297 12.0195 8.27717 12.0195 11.0234C12.0195 13.7697 14.2537 16.0039 17 16.0039ZM17 8.03515C18.6477 8.03515 19.9883 9.37573 19.9883 11.0234C19.9883 12.6711 18.6477 14.0117 17 14.0117C15.3523 14.0117 14.0117 12.6711 14.0117 11.0234C14.0117 9.37573 15.3523 8.03515 17 8.03515Z" fill="#333333"/>
</g>
<defs>
<clipPath id="clip0_467_1999">
<rect width="34" height="34" fill="white"/>
</clipPath>
</defs>
</svg>
