<svg width="36" height="36" viewBox="0 0 36 36" fill="none" xmlns="http://www.w3.org/2000/svg">
<g clip-path="url(#clip0_404_185)">
<path d="M1.91885 14.1683C2.04629 14.2202 2.18115 14.246 2.316 14.246C2.45553 14.246 2.59506 14.2182 2.72607 14.163L5.8808 12.8315C6.4172 12.6049 6.66879 11.9864 6.4422 11.4497C6.2156 10.913 5.59735 10.6617 5.06039 10.8883L4.2886 11.2138C6.68307 5.76343 12.1004 2.17969 18.1281 2.17969C25.0198 2.17969 31.0381 6.83982 32.7635 13.5121C32.8863 13.9875 33.3145 14.3031 33.7839 14.3031C33.8712 14.3031 33.9602 14.2921 34.0487 14.2693C34.6125 14.1235 34.9518 13.5481 34.8059 12.9842C32.8396 5.38056 25.9814 0.0703125 18.1281 0.0703125C11.2207 0.0703125 5.01727 4.20063 2.31243 10.4705L1.9562 9.62651C1.72988 9.0901 1.11135 8.83851 0.574668 9.0651C0.0379848 9.29142 -0.213602 9.91023 0.0129909 10.4466L1.34426 13.6014C1.45303 13.859 1.65957 14.0631 1.91885 14.1683Z" fill="#333333"/>
<path d="M35.8465 25.4796L34.5152 22.3251C34.4065 22.0675 34.1997 21.8634 33.9407 21.7579C33.6817 21.6527 33.3911 21.6547 33.1334 21.7634L29.9787 23.095C29.442 23.3213 29.1907 23.9401 29.4173 24.4768C29.6436 25.0135 30.2624 25.2648 30.7988 25.0382L31.6821 24.6655C29.3478 30.2619 23.8546 33.9605 17.7314 33.9605C10.8397 33.9605 4.82136 29.3003 3.09596 22.6278C2.95011 22.0639 2.37443 21.7252 1.81083 21.8708C1.24695 22.0167 0.908026 22.5921 1.05387 23.1559C3.01988 30.7593 9.8781 36.0696 17.7314 36.0696C24.6778 36.0696 30.9123 31.8926 33.5924 25.5633L33.903 26.2997C34.073 26.7023 34.4639 26.9446 34.8753 26.9446C35.0118 26.9446 35.1511 26.9177 35.2848 26.8611C35.8215 26.6348 36.0728 26.0162 35.8465 25.4796Z" fill="#333333"/>
<path d="M25.7296 20.4527C27.5113 18.0487 28.145 14.9986 27.3828 12.4929C27.2883 12.1822 27.0562 11.9323 26.7533 11.8156C25.2165 11.2231 23.3134 11.1319 21.395 11.5596C19.9629 11.8784 18.655 12.4566 17.6835 13.1866C15.9801 11.6642 13.9248 10.6444 12.1497 10.6444C12.1365 10.6444 12.1228 10.6444 12.1098 10.6447C11.7347 10.6477 11.3897 10.8501 11.2035 11.1759C11.0173 11.5016 11.0181 11.9015 11.2057 12.2264C11.9228 13.4687 11.6215 14.561 11.0708 16.24C10.6918 17.3947 10.2998 18.5889 10.4482 19.9161C10.6654 21.862 12.0272 23.6586 13.9174 24.4927C14.6263 24.8055 15.3538 24.9604 16.0677 24.9604C16.2201 24.9604 16.372 24.9525 16.5228 24.9385L17.4195 27.9592C17.5555 28.4173 17.9752 28.7139 18.43 28.7139C18.5294 28.7139 18.6305 28.6996 18.7305 28.67C19.2889 28.5044 19.6075 27.9171 19.4416 27.3588L18.5558 24.3746C19.953 24.2829 21.2678 23.9145 22.4722 23.2743C23.7493 22.5951 24.8452 21.6459 25.7296 20.4527ZM25.4907 13.6198C25.8263 15.3839 25.2819 17.5144 24.035 19.1967C23.4719 19.9564 22.4398 21.0542 20.8371 21.717C20.9203 21.514 20.9896 21.305 21.045 21.0899C21.3076 20.0715 21.2464 18.9646 20.8627 17.8004C20.5105 16.7319 19.906 15.6827 19.1463 14.7311C20.6979 13.6733 23.3945 13.0543 25.4907 13.6198ZM14.7691 22.5632C13.5721 22.0345 12.6778 20.8768 12.5444 19.682C12.4471 18.8106 12.752 17.8814 13.075 16.8976C13.4565 15.7341 13.8734 14.4638 13.6957 13.0924C15.8007 13.9403 18.129 16.2444 18.8593 18.4604C19.3693 20.0083 19.0466 21.2553 17.9016 22.1705L17.0084 19.1621C16.8428 18.6037 16.2555 18.2854 15.6972 18.451C15.1388 18.6169 14.8204 19.2039 14.9863 19.7622L15.901 22.8436C15.4401 22.8162 15.044 22.6843 14.7691 22.5632Z" fill="#333333"/>
</g>
<defs>
<clipPath id="clip0_404_185">
<rect width="36" height="36" fill="white"/>
</clipPath>
</defs>
</svg>
