<svg width="60" height="60" viewBox="0 0 60 60" fill="none" xmlns="http://www.w3.org/2000/svg">
<path d="M43.8185 14.6813C41.7413 10.2688 38.2597 6.66944 33.9187 4.44654C29.5778 2.22364 24.6223 1.50265 19.8279 2.39638C15.0334 3.29011 10.6705 5.74814 7.42203 9.3858C4.17352 13.0235 2.22266 17.6355 1.87477 22.5001C1.563 26.9819 2.63242 31.4516 4.93893 35.3069C7.24544 39.1623 10.6782 42.2181 14.7748 44.0626C16.1701 47.5201 18.4028 50.5768 21.2722 52.9576C24.1416 55.3385 27.5576 56.969 31.2133 57.7025C34.8689 58.436 38.6496 58.2495 42.2153 57.1599C45.781 56.0702 49.0201 54.1116 51.6413 51.4599C54.2625 48.8083 56.1836 45.5468 57.232 41.9687C58.2804 38.3906 58.4231 34.6081 57.6474 30.9612C56.8717 27.3142 55.2019 23.9172 52.788 21.0756C50.3742 18.2339 47.292 16.0366 43.8185 14.6813ZM23.7935 5.62508H24.9185C28.9867 5.87563 32.8551 7.47575 35.9115 10.1722C38.9679 12.8686 41.0378 16.5074 41.7935 20.5126L20.906 5.86883C21.8606 5.71169 22.8261 5.63019 23.7935 5.62508ZM16.2935 7.23757L40.9498 24.5813L41.9623 25.2938C41.7527 27.9995 40.9458 30.625 39.5998 32.9813L10.0685 11.8313C11.8037 9.87007 13.9392 8.30361 16.331 7.23757H16.2935ZM7.89352 14.8876L37.4998 36.0376C35.7754 37.9992 33.6534 39.5715 31.2748 40.6501L5.62477 21.8251C5.90292 19.3827 6.6748 17.0224 7.89352 14.8876ZM5.62477 26.4938L26.7935 42.0001C25.432 42.2358 24.0476 42.3113 22.6685 42.2251C18.4499 41.9687 14.4493 40.2629 11.3436 37.3964C8.23786 34.5298 6.21767 30.6785 5.62477 26.4938ZM35.6248 54.3751C32.4618 54.3594 29.3535 53.5495 26.5851 52.0195C23.8168 50.4895 21.4771 48.2886 19.781 45.6188C20.6601 45.794 21.5494 45.913 22.4435 45.9751H23.8123C29.4112 45.9639 34.7973 43.8287 38.883 40.0005C42.9687 36.1723 45.4496 30.9364 45.8248 25.3501C45.9328 23.4651 45.7942 21.5741 45.4123 19.7251C48.8542 21.876 51.5052 25.0856 52.9672 28.8719C54.4291 32.6582 54.623 36.8166 53.5198 40.7225C52.4165 44.6284 50.0756 48.0708 46.8487 50.5327C43.6219 52.9945 39.6834 54.3428 35.6248 54.3751Z" fill="#9C69DF"/>
</svg>
