<svg width="60" height="60" viewBox="0 0 60 60" fill="none" xmlns="http://www.w3.org/2000/svg">
<g clip-path="url(#clip0_205_128)">
<path d="M58.125 23.6719H54.2728C53.6925 21.4409 52.8043 19.3015 51.6338 17.3156L54.3619 14.5875C54.5144 14.4352 54.6353 14.2544 54.7178 14.0553C54.8004 13.8562 54.8429 13.6428 54.8429 13.4273C54.8429 13.2118 54.8004 12.9985 54.7178 12.7994C54.6353 12.6003 54.5144 12.4195 54.3619 12.2672L47.7328 5.63812C47.5805 5.48565 47.3997 5.36469 47.2006 5.28216C47.0015 5.19963 46.7882 5.15715 46.5727 5.15715C46.3572 5.15715 46.1438 5.19963 45.9447 5.28216C45.7456 5.36469 45.5648 5.48565 45.4125 5.63812L42.6844 8.36625C40.6985 7.19551 38.5592 6.30728 36.3281 5.72719V1.875C36.3279 1.43996 36.1549 1.0228 35.8473 0.715177C35.5397 0.407554 35.1225 0.234623 34.6875 0.234375H25.3125C24.8775 0.234623 24.4603 0.407554 24.1527 0.715177C23.8451 1.0228 23.6721 1.43996 23.6719 1.875V5.72719C21.4408 6.30728 19.3015 7.19551 17.3156 8.36625L14.5875 5.63812C14.4352 5.48565 14.2544 5.36469 14.0553 5.28216C13.8562 5.19963 13.6428 5.15715 13.4273 5.15715C13.2118 5.15715 12.9985 5.19963 12.7994 5.28216C12.6003 5.36469 12.4195 5.48565 12.2672 5.63812L5.63812 12.2672C5.48565 12.4195 5.36469 12.6003 5.28216 12.7994C5.19963 12.9985 5.15715 13.2118 5.15715 13.4273C5.15715 13.6428 5.19963 13.8562 5.28216 14.0553C5.36469 14.2544 5.48565 14.4352 5.63812 14.5875L8.36625 17.3156C7.19568 19.3015 6.30745 21.4409 5.72719 23.6719H1.875C1.43996 23.6721 1.0228 23.8451 0.715177 24.1527C0.407554 24.4603 0.234623 24.8775 0.234375 25.3125V34.6875C0.234623 35.1225 0.407554 35.5397 0.715177 35.8473C1.0228 36.1549 1.43996 36.3279 1.875 36.3281H5.72719C6.30745 38.5591 7.19568 40.6984 8.36625 42.6844L5.63812 45.4125C5.48565 45.5648 5.36469 45.7456 5.28216 45.9447C5.19963 46.1438 5.15715 46.3572 5.15715 46.5727C5.15715 46.7882 5.19963 47.0015 5.28216 47.2006C5.36469 47.3997 5.48565 47.5805 5.63812 47.7328L12.2672 54.3619C12.4195 54.5144 12.6003 54.6353 12.7994 54.7178C12.9985 54.8004 13.2118 54.8429 13.4273 54.8429C13.6428 54.8429 13.8562 54.8004 14.0553 54.7178C14.2544 54.6353 14.4352 54.5144 14.5875 54.3619L17.3156 51.6338C19.3015 52.8043 21.4409 53.6925 23.6719 54.2728V58.125C23.6721 58.56 23.8451 58.9772 24.1527 59.2848C24.4603 59.5924 24.8775 59.7654 25.3125 59.7656H34.6875C35.1225 59.7654 35.5397 59.5924 35.8473 59.2848C36.1549 58.9772 36.3279 58.56 36.3281 58.125V54.2728C38.5591 53.6925 40.6984 52.8043 42.6844 51.6338L45.4125 54.3619C45.5648 54.5144 45.7456 54.6353 45.9447 54.7178C46.1438 54.8004 46.3572 54.8429 46.5727 54.8429C46.7882 54.8429 47.0015 54.8004 47.2006 54.7178C47.3997 54.6353 47.5805 54.5144 47.7328 54.3619L54.3619 47.7328C54.5144 47.5805 54.6353 47.3997 54.7178 47.2006C54.8004 47.0015 54.8429 46.7882 54.8429 46.5727C54.8429 46.3572 54.8004 46.1438 54.7178 45.9447C54.6353 45.7456 54.5144 45.5648 54.3619 45.4125L51.6338 42.6844C52.8043 40.6984 53.6925 38.5591 54.2728 36.3281H58.125C58.56 36.3279 58.9772 36.1549 59.2848 35.8473C59.5924 35.5397 59.7654 35.1225 59.7656 34.6875V25.3125C59.7654 24.8775 59.5924 24.4603 59.2848 24.1527C58.9772 23.8451 58.56 23.6721 58.125 23.6719ZM56.4844 33.0469H52.9688C52.5905 33.0468 52.2239 33.1774 51.9309 33.4166C51.6379 33.6557 51.4366 33.9888 51.3609 34.3594C50.8082 37.0928 49.7305 39.693 48.1875 42.0159C47.9792 42.331 47.8861 42.7083 47.9238 43.0841C47.9616 43.4599 48.1279 43.8111 48.3947 44.0784L50.8856 46.5694L46.5731 50.8819L44.0822 48.3909C43.8146 48.1246 43.4634 47.9586 43.0877 47.9209C42.7121 47.8832 42.3349 47.976 42.0197 48.1838C39.6975 49.7275 37.0979 50.8062 34.365 51.36C33.9944 51.4356 33.6614 51.637 33.4222 51.93C33.183 52.223 33.0524 52.5896 33.0525 52.9678V56.4844H26.9587V52.9688C26.9588 52.5905 26.8282 52.2239 26.5891 51.9309C26.3499 51.6379 26.0168 51.4366 25.6463 51.3609C22.9109 50.8089 20.3087 49.7311 17.9841 48.1875C17.6688 47.9797 17.2917 47.8869 16.916 47.9246C16.5403 47.9624 16.1892 48.1284 15.9216 48.3947L13.4306 50.8856L9.11812 46.5731L11.6091 44.0822C11.8758 43.8149 12.0422 43.4636 12.0799 43.0878C12.1177 42.712 12.0245 42.3347 11.8162 42.0197C10.2725 39.6975 9.19383 37.0979 8.64 34.365C8.56547 33.9932 8.36447 33.6588 8.07118 33.4184C7.77789 33.1781 7.41041 33.0468 7.03125 33.0469H3.51562V26.9531H7.03125C7.40946 26.9532 7.77609 26.8226 8.06908 26.5834C8.36207 26.3443 8.56342 26.0112 8.63906 25.6406C9.1918 22.9072 10.2695 20.307 11.8125 17.9841C12.0208 17.669 12.1139 17.2917 12.0762 16.9159C12.0384 16.5401 11.8721 16.1889 11.6053 15.9216L9.11812 13.4269L13.4306 9.11438L15.9216 11.6053C16.1895 11.8728 16.5416 12.0395 16.9182 12.0773C17.2949 12.115 17.6731 12.0215 17.9888 11.8125C20.3106 10.2687 22.9098 9.19002 25.6425 8.63625C26.0123 8.56032 26.3445 8.35922 26.5833 8.06685C26.822 7.77448 26.9526 7.40872 26.9531 7.03125V3.51562H33.0469V7.03125C33.0468 7.40946 33.1774 7.77609 33.4166 8.06908C33.6557 8.36207 33.9888 8.56342 34.3594 8.63906C37.0925 9.19174 39.6924 10.2695 42.015 11.8125C42.3302 12.0204 42.7074 12.1134 43.0831 12.0756C43.4588 12.0379 43.81 11.8718 44.0775 11.6053L46.5684 9.11438L50.8809 13.4269L48.39 15.9178C48.1232 16.1851 47.9569 16.5364 47.9191 16.9122C47.8814 17.288 47.9745 17.6653 48.1828 17.9803C49.7266 20.3025 50.8052 22.9021 51.3591 25.635C51.4347 26.0056 51.6361 26.3386 51.929 26.5778C52.222 26.817 52.5887 26.9476 52.9669 26.9475H56.4844V33.0469Z" fill="#007AFF"/>
<path d="M30 12.4219C26.5234 12.4219 23.1248 13.4528 20.2341 15.3843C17.3434 17.3158 15.0904 20.0612 13.7599 23.2731C12.4295 26.4851 12.0814 30.0195 12.7596 33.4293C13.4379 36.8391 15.1121 39.9713 17.5704 42.4296C20.0287 44.888 23.1609 46.5621 26.5707 47.2404C29.9805 47.9186 33.5149 47.5705 36.7269 46.2401C39.9388 44.9096 42.6842 42.6566 44.6157 39.7659C46.5472 36.8752 47.5781 33.4766 47.5781 30C47.5729 25.3396 45.7193 20.8716 42.4239 17.5761C39.1285 14.2807 34.6604 12.4271 30 12.4219ZM30 44.2969C27.209 44.2936 24.4799 43.4748 22.148 41.9412C19.8162 40.4075 17.9834 38.2258 16.875 35.6644L20.4675 32.3709L24.0544 36.6759C24.2004 36.851 24.3813 36.9937 24.5855 37.0949C24.7897 37.1962 25.0128 37.2538 25.2405 37.2642C25.4682 37.2745 25.6956 37.2373 25.9082 37.1549C26.1207 37.0725 26.3137 36.9467 26.475 36.7856L34.9238 28.3359V30C34.9238 30.4351 35.0966 30.8524 35.4043 31.1601C35.712 31.4678 36.1293 31.6406 36.5644 31.6406C36.9995 31.6406 37.4168 31.4678 37.7245 31.1601C38.0322 30.8524 38.205 30.4351 38.205 30V24.375C38.2049 24.1594 38.1623 23.946 38.0797 23.7469C37.9971 23.5478 37.8761 23.3669 37.7235 23.2145C37.571 23.0622 37.39 22.9414 37.1908 22.859C36.9916 22.7766 36.7781 22.7343 36.5625 22.7344H30.9375C30.5024 22.7344 30.0851 22.9072 29.7774 23.2149C29.4697 23.5226 29.2969 23.9399 29.2969 24.375C29.2969 24.8101 29.4697 25.2274 29.7774 25.5351C30.0851 25.8428 30.5024 26.0156 30.9375 26.0156H32.6016L25.4222 33.1941L21.885 28.95C21.743 28.7795 21.5679 28.6395 21.3702 28.5387C21.1726 28.4378 20.9565 28.3781 20.7351 28.3632C20.5137 28.3483 20.2915 28.3785 20.0821 28.452C19.8728 28.5255 19.6804 28.6407 19.5169 28.7906L15.8606 32.1394C15.4238 29.2532 15.8809 26.3025 17.1705 23.6838C18.4601 21.0651 20.5204 18.9039 23.0744 17.4906C25.6285 16.0773 28.554 15.4797 31.4577 15.778C34.3614 16.0763 37.1043 17.2563 39.3176 19.1594C41.531 21.0625 43.1087 23.5975 43.8389 26.4237C44.5691 29.25 44.4166 32.232 43.4021 34.969C42.3876 37.706 40.5596 40.067 38.1637 41.7345C35.7679 43.402 32.919 44.2962 30 44.2969Z" fill="#007AFF"/>
</g>
<defs>
<clipPath id="clip0_205_128">
<rect width="60" height="60" fill="white"/>
</clipPath>
</defs>
</svg>
