<svg width="60" height="60" viewBox="0 0 60 60" fill="none" xmlns="http://www.w3.org/2000/svg">
<g clip-path="url(#clip0_205_60)">
<path d="M16.3273 13.8414L11.3555 8.8696C10.669 8.18312 9.55597 8.18312 8.8696 8.8696C8.18312 9.55608 8.18312 10.669 8.8696 11.3555L13.8414 16.3273C14.5278 17.0138 15.6409 17.0138 16.3273 16.3273C17.0138 15.6408 17.0138 14.5279 16.3273 13.8414Z" fill="#9C69DF"/>
<path d="M8.90625 28.2422H1.75781C0.787031 28.2422 0 29.0292 0 30C0 30.9708 0.787031 31.7578 1.75781 31.7578H8.90625C9.87703 31.7578 10.6641 30.9708 10.6641 30C10.6641 29.0292 9.87703 28.2422 8.90625 28.2422Z" fill="#9C69DF"/>
<path d="M58.2422 28.2422H51.0938C50.123 28.2422 49.3359 29.0292 49.3359 30C49.3359 30.9708 50.123 31.7578 51.0938 31.7578H58.2422C59.213 31.7578 60 30.9708 60 30C60 29.0292 59.213 28.2422 58.2422 28.2422Z" fill="#9C69DF"/>
<path d="M51.1303 8.8696C50.4439 8.18312 49.3309 8.18312 48.6444 8.8696L43.6726 13.8414C42.9861 14.5279 42.9861 15.6408 43.6726 16.3273C44.3589 17.0138 45.4721 17.0138 46.1585 16.3273L51.1303 11.3555C51.8168 10.669 51.8168 9.55608 51.1303 8.8696Z" fill="#9C69DF"/>
<path d="M30 0C29.0292 0 28.2422 0.787031 28.2422 1.75781V8.90625C28.2422 9.87703 29.0292 10.6641 30 10.6641C30.9708 10.6641 31.7578 9.87703 31.7578 8.90625V1.75781C31.7578 0.787031 30.9708 0 30 0Z" fill="#9C69DF"/>
<path d="M26.2158 14.6208C20.5881 15.9334 16.058 20.3966 14.6747 25.9913C13.2869 31.6043 14.8753 37.3258 18.9237 41.2958C20.2918 42.6375 21.2111 45.2093 21.2111 47.6953V51.211C21.2111 54.1187 23.5767 56.4844 26.4845 56.4844H28.2423V58.2422C28.2423 59.213 29.0293 60 30.0001 60C30.9709 60 31.7579 59.213 31.7579 58.2422V56.4844H33.5157C36.4235 56.4844 38.7892 54.1187 38.7892 51.211V47.6953C38.7892 45.2394 39.7576 42.6189 41.199 41.1743C44.1792 38.1878 45.8204 34.2192 45.8204 30C45.8204 19.9111 36.4703 12.2291 26.2158 14.6208ZM35.2736 51.211C35.2736 52.1802 34.485 52.9688 33.5157 52.9688H26.4845C25.5152 52.9688 24.7267 52.1802 24.7267 51.211V49.4532H35.2736V51.211ZM38.7104 38.6911C36.9537 40.4516 35.7484 43.1224 35.387 45.9375H24.6135C24.3075 43.5048 23.3515 40.714 21.3852 38.7858C18.2341 35.6956 17.0013 31.228 18.0875 26.835C19.1568 22.5106 22.6607 19.06 27.0143 18.0446C35.0503 16.17 42.3048 22.1643 42.3048 30C42.3048 33.2816 41.0283 36.3682 38.7104 38.6911Z" fill="#9C69DF"/>
</g>
<defs>
<clipPath id="clip0_205_60">
<rect width="60" height="60" fill="white"/>
</clipPath>
</defs>
</svg>
