<svg width="60" height="60" viewBox="0 0 60 60" fill="none" xmlns="http://www.w3.org/2000/svg">
<g clip-path="url(#clip0_205_79)">
<path d="M51 24C49 20 45.9 16.8 42 14.4L41.7 14.3V14C41.7 13.8 41.7 13.6 41.7 13.5C41.7 10.2 40.4 7.29995 38.2 5.19995C36.2 2.99995 33.3 1.69995 30 1.69995C26.7 1.69995 23.8 2.99995 21.7 5.09995C19.6 7.19995 18.2 10.2 18.2 13.4C18.2 16.6 19.5 19.6 21.7 21.7C23.8 23.8 26.8 25.2 30 25.2C34.7 25.2 38.7 22.5 40.6 18.5L40.8 18L41.3 18.2999C44 20.1999 46.2 22.7 47.7 25.5C48 26.2 48.7 26.5 49.4 26.5C49.7 26.5 50 26.4 50.2 26.2999C50.8 26 51.2 25.3 51.2 24.7C51.2 24.6 51.2 24.2999 51 24ZM30 21.6C25.5 21.6 21.9 18 21.9 13.5C21.9 8.99995 25.5 5.39995 30 5.39995C34.5 5.39995 38.1 8.99995 38.1 13.5C38.1 18 34.5 21.6 30 21.6ZM20.7 35.0999C18.6 32.9999 15.6 31.6 12.3 31.6C11.9 31.6 11.4 31.6 11 31.7L10.3 31.7999L10.4 31.1C11 27.9 12.3 24.9 14.4 22.2999C14.7 22 14.8 21.6 14.8 21.1C14.8 20.6 14.6 20 14.1 19.7C13.8 19.4 13.4 19.2999 13 19.2999C12.5 19.2999 11.9 19.5 11.5 20C8.5 23.7 6.8 28.0999 6.5 32.7999V33.0999L6.3 33.2C2.8 35.2999 0.5 39 0.5 43.4C0.5 46.6 1.8 49.6 4 51.7C6.1 53.7999 9.1 55.2 12.3 55.2C15.6 55.2 18.5 53.9 20.7 51.7C22.8 49.6 24.2 46.6 24.2 43.4C24.1 40.2 22.8 37.2999 20.7 35.0999ZM12.3 51.5999C7.8 51.5999 4.2 48 4.2 43.5C4.2 39 7.8 35.4 12.3 35.4C16.8 35.4 20.4 39 20.4 43.5C20.4 48 16.8 51.5999 12.3 51.5999ZM56 35.0999C53.9 32.9999 50.9 31.6 47.7 31.6C44.4 31.6 41.5 32.8999 39.3 35.0999C37.2 37.1999 35.8 40.2 35.8 43.4C35.8 46.5 37 49.4 39 51.5L39.5 52L39 52.4C36.2 53.8 33.2 54.5 30 54.5C29 54.5 28 54.3999 27 54.2999C26.9 54.2999 26.8 54.2999 26.7 54.2999C25.8 54.2999 25 54.9 24.9 55.9C24.9 56 24.9 56.1 24.9 56.2C24.9 57.1 25.6 57.9 26.5 58C27.7 58.2 28.9 58.2999 30.1 58.2999C34.7 58.2999 39.1 57 42.9 54.5L43.1 54.2999L43.3 54.4C44.7 55 46.2 55.2999 47.8 55.2999C48.4 55.2999 49 55.2 49.6 55.2C50.5 55.1 51.2 54.3 51.2 53.4C51.2 53.3 51.2 53.1999 51.2 53.0999C51.1 52.1999 50.3 51.5 49.4 51.5C49.3 51.5 49.2 51.5 49.1 51.5C48.7 51.5999 48.3 51.5999 47.9 51.5999C43.4 51.5999 39.8 48 39.8 43.5C39.8 39 43.4 35.4 47.9 35.4C52.4 35.4 56 39 56 43.5C56 44.5 55.8 45.3999 55.5 46.2999C55.4 46.5 55.4 46.7 55.4 46.9C55.4 47.7 55.9 48.3999 56.6 48.5999C56.8 48.6999 57 48.7 57.2 48.7C58 48.7 58.7 48.2 58.9 47.5C59.4 46.2 59.6 44.9 59.6 43.5C59.5 40.2 58.2 37.2999 56 35.0999Z" fill="#007AFF"/>
</g>
<defs>
<clipPath id="clip0_205_79">
<rect width="60" height="58" fill="white" transform="translate(0 1)"/>
</clipPath>
</defs>
</svg>
