<svg width="60" height="60" viewBox="0 0 60 60" fill="none" xmlns="http://www.w3.org/2000/svg">
<path d="M13.7789 56.3106H3.68705V46.2314C3.68705 45.2045 2.86982 44.3867 1.84352 44.3867C0.817234 44.3867 0 45.2045 0 46.2314V58.1553C0 59.1823 0.817234 60 1.84352 60H13.7789C14.8052 60 15.6224 59.1823 15.6224 58.1553C15.6034 57.1474 14.7862 56.3106 13.7789 56.3106Z" fill="#007AFF"/>
<path d="M59.9811 58.1553V46.2314C59.9811 45.2045 59.1638 44.3867 58.1375 44.3867C57.1113 44.3867 56.294 45.2045 56.294 46.2314V56.3106H46.2022C45.1759 56.3106 44.3586 57.1284 44.3586 58.1553C44.3586 59.1823 45.1759 60 46.2022 60H58.1375C59.1638 60 59.9811 59.1823 59.9811 58.1553Z" fill="#007AFF"/>
<path d="M46.2212 3.68938H56.3131V13.7686C56.3131 14.7956 57.1303 15.6133 58.1566 15.6133C59.1829 15.6133 60.0001 14.7956 60.0001 13.7686V1.84469C60.0001 0.817749 59.1829 0 58.1566 0H46.2212C45.1949 0 44.3777 0.817749 44.3777 1.84469C44.3777 2.85261 45.1949 3.68938 46.2212 3.68938Z" fill="#007AFF"/>
<path d="M1.84352 15.6133C2.86982 15.6133 3.68705 14.7956 3.68705 13.7686V3.68938H13.7789C14.8052 3.68938 15.6224 2.87163 15.6224 1.84469C15.6224 0.817749 14.8052 0 13.7789 0H1.84352C0.817234 0 0 0.817749 0 1.84469V13.7686C0 14.7765 0.817234 15.6133 1.84352 15.6133Z" fill="#007AFF"/>
<path d="M10.282 46.8399C10.434 47.7337 11.1942 48.3803 12.1065 48.3803H47.8746C48.7679 48.3803 49.5471 47.7337 49.6991 46.8399C50.2883 43.3787 49.6041 36.019 42.9142 32.9952C41.0707 32.1584 38.8851 30.9603 37.0796 29.8383C37.6497 28.8874 38.1249 27.8225 38.467 26.6434C39.8924 25.5974 40.6716 23.4485 40.8997 22.2313C41.2988 20.1204 40.6906 18.6561 39.6643 17.8573L39.7023 17.0015C39.8163 14.5863 38.9991 12.3423 37.4217 10.6878C35.7492 8.93815 33.3735 7.96826 30.7508 7.96826H29.2684C26.6456 7.96826 24.2699 8.93815 22.5975 10.6878C21.02 12.3423 20.2028 14.5863 20.3168 16.9825L20.3548 17.8383C19.3475 18.637 18.7204 20.1014 19.1195 22.2123C19.3856 23.6006 20.2218 25.6164 21.5522 26.6244C21.9133 27.8034 22.3884 28.8874 22.9586 29.8383C21.1531 30.9603 18.9674 32.1584 17.1239 32.9952C10.377 36 9.71181 43.3597 10.282 46.8399ZM22.6925 21.5087C22.6165 21.1473 22.6165 20.9001 22.6355 20.748C23.4717 20.5388 24.0609 19.7591 24.0229 18.9033L23.9468 16.8304C23.8898 15.4041 24.327 14.1679 25.2012 13.2361C26.1705 12.2091 27.5959 11.6576 29.2113 11.6576H30.6938C32.3092 11.6576 33.7346 12.2282 34.7039 13.2361C35.5971 14.1679 36.0343 15.4041 35.9582 16.8494L35.8822 18.9033C35.8442 19.7401 36.4714 20.5198 37.2696 20.748C37.2886 20.8811 37.2886 21.1283 37.2316 21.5087C37.0416 22.4976 36.5474 23.3534 36.2813 23.6006C35.6732 23.7908 35.217 24.2852 35.046 24.9128C34.2098 28.3549 32.1002 30.7511 29.9335 30.7511C28.8882 30.7511 27.862 30.1806 26.9877 29.2298C26.9687 29.2107 26.9497 29.2107 26.9307 29.1917C25.9994 28.1648 25.2392 26.6814 24.8021 24.9128C24.65 24.2852 24.1749 23.7908 23.5857 23.6006C23.3767 23.3534 22.8825 22.4976 22.6925 21.5087ZM25.3152 32.6529C26.7026 33.7939 28.2991 34.4405 29.9716 34.4405C31.663 34.4405 33.2595 33.7749 34.6469 32.6339C36.6805 33.9461 39.2082 35.3534 41.3748 36.3233C45.556 38.206 46.1451 42.3898 46.1451 44.6719H13.817C13.817 42.3898 14.4251 38.206 18.5873 36.3233C20.7729 35.3534 23.3007 33.9651 25.3152 32.6529Z" fill="#007AFF"/>
</svg>
