<svg width="60" height="60" viewBox="0 0 60 60" fill="none" xmlns="http://www.w3.org/2000/svg">
<g clip-path="url(#clip0_205_107)">
<path d="M37.0312 30.4688C36.3844 30.4688 35.8594 30.9937 35.8594 31.6406C35.8594 32.2875 36.3844 32.8125 37.0312 32.8125C37.6781 32.8125 38.2031 32.2875 38.2031 31.6406C38.2031 30.9937 37.6781 30.4688 37.0312 30.4688Z" fill="#F59B50"/>
<path d="M0.292165 27.7263C0.295329 27.73 0.298142 27.7341 0.301423 27.7376C0.301892 27.738 0.302243 27.7386 0.302712 27.7392L29.1308 59.6142C29.3456 59.8518 29.6712 60 30 60C30.3278 60 30.6527 59.8534 30.8692 59.6142L59.6973 27.7392C59.6978 27.7387 59.6981 27.7382 59.6986 27.7376C59.7019 27.7339 59.7046 27.73 59.7079 27.7263C60.0835 27.2991 60.0933 26.6715 59.7524 26.2343C59.7491 26.2301 59.7467 26.2253 59.7433 26.2211L50.3683 14.5023C50.146 14.2243 49.8092 14.0625 49.4531 14.0625C44.6758 14.0625 14.4341 14.0625 10.5469 14.0625C10.1909 14.0625 9.8542 14.2243 9.63177 14.5023L0.256775 26.2211C0.253376 26.2253 0.251033 26.23 0.247634 26.2343C-0.09678 26.6761 -0.0792018 27.3039 0.292165 27.7263ZM23.6322 16.4062H36.3678L41.9928 25.7812H18.0072L23.6322 16.4062ZM17.7353 28.125H42.2645L29.9999 55.9249L17.7353 28.125ZM44.8263 28.125H56.1883L34.0055 52.6521L44.8263 28.125ZM15.1736 28.125L25.9943 52.6521L3.81166 28.125H15.1736ZM56.3898 25.7812H44.7259L39.1009 16.4062H48.8898L56.3898 25.7812ZM11.11 16.4062H20.8989L15.2739 25.7812H3.60998L11.11 16.4062Z" fill="#F59B50"/>
<path d="M32.3437 30.4688H23.646C22.9988 30.4688 22.4741 30.9934 22.4741 31.6406C22.4741 32.2879 22.9988 32.8125 23.646 32.8125H32.3437C32.9909 32.8125 33.5155 32.2879 33.5155 31.6406C33.5155 30.9934 32.9909 30.4688 32.3437 30.4688Z" fill="#F59B50"/>
<path d="M30 9.375C30.6472 9.375 31.1719 8.85035 31.1719 8.20312V1.17188C31.1719 0.524648 30.6472 0 30 0C29.3528 0 28.8281 0.524648 28.8281 1.17188V8.20312C28.8281 8.85035 29.3528 9.375 30 9.375Z" fill="#F59B50"/>
<path d="M37.86 9.03165L42.5475 4.34415C43.0051 3.88653 43.0051 3.1445 42.5475 2.68676C42.0899 2.22903 41.3478 2.22915 40.8901 2.68676L36.2026 7.37426C35.745 7.83188 35.745 8.57391 36.2026 9.03165C36.6602 9.48926 37.4022 9.48938 37.86 9.03165Z" fill="#F59B50"/>
<path d="M22.1396 9.03185C22.5973 9.48946 23.3393 9.48946 23.797 9.03185C24.2546 8.57423 24.2546 7.8322 23.797 7.37446L19.1095 2.68696C18.6519 2.22935 17.9099 2.22935 17.4521 2.68696C16.9944 3.14458 16.9945 3.88661 17.4521 4.34435L22.1396 9.03185Z" fill="#F59B50"/>
</g>
<defs>
<clipPath id="clip0_205_107">
<rect width="60" height="60" fill="white"/>
</clipPath>
</defs>
</svg>
