<svg width="60" height="60" viewBox="0 0 60 60" fill="none" xmlns="http://www.w3.org/2000/svg">
<g clip-path="url(#clip0_205_116)">
<path fill-rule="evenodd" clip-rule="evenodd" d="M30 20.625C25.8579 20.625 22.5 23.9829 22.5 28.125C22.5 32.2671 25.8579 35.625 30 35.625C34.1421 35.625 37.5 32.2671 37.5 28.125C37.5 23.9829 34.1421 20.625 30 20.625ZM18.75 28.125C18.75 21.9118 23.7868 16.875 30 16.875C36.2132 16.875 41.25 21.9118 41.25 28.125C41.25 34.3382 36.2132 39.375 30 39.375C23.7868 39.375 18.75 34.3382 18.75 28.125Z" fill="#F59B50"/>
<path fill-rule="evenodd" clip-rule="evenodd" d="M30.0002 39.3738C27.2301 39.3738 24.5142 40.1408 22.1533 41.5898C19.7925 43.0388 17.8791 45.1133 16.6251 47.5833C16.1564 48.5067 15.0278 48.8752 14.1045 48.4064C13.1811 47.9377 12.8126 46.8091 13.2814 45.8857C14.8489 42.7983 17.2407 40.2052 20.1917 38.3939C23.1426 36.5825 26.5377 35.6238 30.0002 35.6238C33.4628 35.6238 36.8577 36.5825 39.8087 38.3939C42.7596 40.2052 45.1513 42.7983 46.7188 45.8857C47.1876 46.8091 46.8192 47.9377 45.8959 48.4064C44.9725 48.8752 43.8439 48.5067 43.3752 47.5833C42.1212 45.1133 40.2077 43.0388 37.8469 41.5898C35.4861 40.1408 32.7702 39.3738 30.0002 39.3738Z" fill="#F59B50"/>
<path fill-rule="evenodd" clip-rule="evenodd" d="M45.5491 28.6741C46.2813 27.942 47.4686 27.942 48.2008 28.6741L52.5 32.9733L56.7991 28.6741C57.5313 27.942 58.7186 27.942 59.4508 28.6741C60.183 29.4063 60.183 30.5936 59.4508 31.3258L53.8258 36.9508C53.0936 37.683 51.9063 37.683 51.1741 36.9508L45.5491 31.3258C44.817 30.5936 44.817 29.4063 45.5491 28.6741Z" fill="#F59B50"/>
<path fill-rule="evenodd" clip-rule="evenodd" d="M6.17417 23.0491C6.90641 22.317 8.09359 22.317 8.82583 23.0491L14.4508 28.6741C15.1831 29.4063 15.1831 30.5936 14.4508 31.3258C13.7186 32.058 12.5314 32.058 11.7992 31.3258L7.5 27.0266L3.20083 31.3258C2.46859 32.058 1.28141 32.058 0.549174 31.3258C-0.183058 30.5936 -0.183058 29.4063 0.549174 28.6741L6.17417 23.0491Z" fill="#F59B50"/>
<path fill-rule="evenodd" clip-rule="evenodd" d="M21.508 7.12748C26.4443 5.29271 31.8422 5.10606 36.8935 6.59545C41.9449 8.08483 46.378 11.1702 49.5293 15.3896C52.6808 19.609 54.3807 24.7356 54.375 30.0019L52.5 29.9999H54.375V30.0019V35.6249C54.375 36.6604 53.5356 37.4999 52.5 37.4999C51.4645 37.4999 50.625 36.6604 50.625 35.6249V29.9978C50.6299 25.5417 49.1914 21.2039 46.5248 17.6336C43.8583 14.0633 40.1072 11.4526 35.833 10.1924C31.5587 8.93211 26.9914 9.09004 22.8145 10.6425C18.6374 12.195 15.0756 15.0585 12.6621 18.8044C12.1012 19.675 10.9409 19.9261 10.0704 19.3651C9.19989 18.8042 8.94888 17.6439 9.50975 16.7734C12.3621 12.3464 16.5715 8.96222 21.508 7.12748Z" fill="#F59B50"/>
<path fill-rule="evenodd" clip-rule="evenodd" d="M7.50001 22.5C8.53554 22.5 9.37501 23.3394 9.37501 24.375V30.0021C9.37014 34.4582 10.8086 38.796 13.4751 42.3664C16.1416 45.9366 19.8928 48.5473 24.1671 49.8075C28.4411 51.0679 33.0086 50.9098 37.1856 49.3573C41.3625 47.8048 44.9244 44.9413 47.3379 41.1954C47.8987 40.3249 49.0592 40.0738 49.9296 40.6348C50.8001 41.1956 51.0512 42.3561 50.4902 43.2264C47.6379 47.6535 43.4286 51.0377 38.4921 52.8724C33.5557 54.7073 28.1578 54.8938 23.1064 53.4045C18.0551 51.915 13.6219 48.8297 10.4706 44.6104C7.31949 40.3913 5.61948 35.265 5.62501 29.9991C5.62501 29.9987 5.62501 29.9994 5.62501 29.9991V24.375C5.62501 23.3394 6.46447 22.5 7.50001 22.5Z" fill="#F59B50"/>
</g>
<defs>
<clipPath id="clip0_205_116">
<rect width="60" height="60" fill="white"/>
</clipPath>
</defs>
</svg>
