<svg width="60" height="60" viewBox="0 0 60 60" fill="none" xmlns="http://www.w3.org/2000/svg">
<g clip-path="url(#clip0_205_124)">
<path d="M52.4541 9.60544C51.7676 8.91896 50.6546 8.91896 49.9682 9.60544L46.2393 13.3343L44.9964 12.0915C44.3099 11.405 43.197 11.405 42.5105 12.0915C41.824 12.7779 41.824 13.8909 42.5105 14.5774L44.9964 17.0634C45.6829 17.7499 46.7958 17.7499 47.4823 17.0634L52.4542 12.0915C53.1405 11.4049 53.1405 10.2919 52.4541 9.60544Z" fill="#9C69DF"/>
<path d="M47.6953 0C44.8451 0 42.2184 0.974297 40.1302 2.60707C39.8387 2.58832 39.5473 2.57812 39.2578 2.57812H13.4766C6.04559 2.57812 0 8.62371 0 16.0547V46.5234C0 53.9544 6.04559 60 13.4766 60H39.2578C46.6888 60 52.7344 53.9544 52.7344 46.5234V23.5295C57.0137 21.6008 60 17.295 60 12.3047C60 5.51988 54.4801 0 47.6953 0ZM3.51562 16.0547C3.51562 10.5622 7.9841 6.09375 13.4766 6.09375H37.0771C36.0778 7.79566 35.4761 9.7575 35.3999 11.8514C32.6338 10.3908 29.5307 9.60938 26.3672 9.60938C15.7054 9.60938 7.03125 18.2835 7.03125 28.9453V32.4609C7.03125 35.428 5.70891 38.1825 3.51562 40.0436V16.0547ZM49.2188 46.5234C49.2188 47.0554 49.1757 47.5773 49.0951 48.0868C42.8774 45.4654 38.6719 39.2794 38.6719 32.4609V28.9453C38.6719 22.1605 33.152 16.6406 26.3672 16.6406C23.3346 16.6406 20.421 17.7537 18.1631 19.7746C17.4397 20.422 17.3783 21.5333 18.0258 22.2567C18.6732 22.9801 19.7845 23.0416 20.5079 22.3942C22.1201 20.951 24.201 20.1562 26.3672 20.1562C31.2135 20.1562 35.1562 24.099 35.1562 28.9453V32.4609C35.1562 36.9564 36.5937 41.2234 39.313 44.8007C41.5351 47.7237 44.5472 50.0229 47.9326 51.4102C47.3234 52.4875 46.5211 53.4416 45.5704 54.2225C38.1967 50.7891 32.9859 43.7929 31.8784 35.737C31.7461 34.7753 30.8591 34.1021 29.8976 34.235C28.9358 34.3672 28.2633 35.2541 28.3956 36.2159C29.5443 44.5704 34.5383 51.9308 41.7335 56.1727C40.9416 56.376 40.1121 56.4844 39.2578 56.4844H36.0255C32.6766 53.7389 29.8852 50.2687 27.9338 46.4113C27.4955 45.545 26.4381 45.198 25.5717 45.6363C24.7055 46.0746 24.3585 47.1321 24.7968 47.9984C26.3659 51.1001 28.425 53.9748 30.8516 56.4844H26.18C25.2305 55.3191 24.3319 54.0762 23.5038 52.7786C22.9815 51.9601 21.8947 51.7201 21.0764 52.2424C20.2581 52.7647 20.0181 53.8515 20.5403 54.6698C20.934 55.2867 21.3435 55.8916 21.7651 56.4843H13.4766C12.6244 56.4843 11.797 56.3763 11.0071 56.1741C14.5114 54.1147 17.5249 51.3047 19.8432 47.9082C22.9613 43.3403 24.6094 37.9986 24.6094 32.4609V28.9453C24.6094 27.9761 25.3979 27.1875 26.3672 27.1875C27.3364 27.1875 28.125 27.9761 28.125 28.9453C28.125 29.9161 28.912 30.7031 29.8828 30.7031C30.8536 30.7031 31.6406 29.9161 31.6406 28.9453C31.6406 26.0375 29.275 23.6719 26.3672 23.6719C23.4594 23.6719 21.0938 26.0375 21.0938 28.9453V32.4609C21.0938 41.8437 15.6594 50.2803 7.16613 54.2243C6.21445 53.443 5.41148 52.4883 4.80176 51.4103C8.18719 50.0229 11.1994 47.7238 13.4214 44.8008C16.1407 41.2234 17.5781 36.9564 17.5781 32.4609V28.9453C17.5781 27.9745 16.7911 27.1875 15.8203 27.1875C14.8495 27.1875 14.0625 27.9745 14.0625 28.9453V32.4609C14.0625 39.2794 9.85687 45.4655 3.63926 48.087C3.55863 47.5774 3.51562 47.0554 3.51562 46.5234V44.2854C7.8218 41.9407 10.5469 37.4195 10.5469 32.4609V28.9453C10.5469 20.222 17.6439 13.125 26.3672 13.125C29.9054 13.125 33.3514 14.3188 36.1256 16.4947C37.0212 18.9599 38.683 21.0604 40.8221 22.5062C41.7281 24.5337 42.1875 26.6973 42.1875 28.9453V32.4609C42.1875 37.4195 44.9126 41.9408 49.2188 44.2854V46.5234ZM49.2188 40.0473C47.0245 38.1858 45.7031 35.4288 45.7031 32.4609V28.9453C45.7031 27.3745 45.5177 25.8373 45.1528 24.3445C45.9735 24.5176 46.8239 24.6094 47.6953 24.6094C48.2111 24.6094 48.7194 24.577 49.2188 24.515V40.0473ZM47.6953 21.0938C42.849 21.0938 38.9062 17.151 38.9062 12.3047C38.9062 7.4584 42.849 3.51562 47.6953 3.51562C52.5416 3.51562 56.4844 7.4584 56.4844 12.3047C56.4844 17.151 52.5416 21.0938 47.6953 21.0938Z" fill="#9C69DF"/>
</g>
<defs>
<clipPath id="clip0_205_124">
<rect width="60" height="60" fill="white"/>
</clipPath>
</defs>
</svg>
