<svg width="60" height="60" viewBox="0 0 60 60" fill="none" xmlns="http://www.w3.org/2000/svg">
<g clip-path="url(#clip0_270_137)">
<path d="M59.9292 4.47925C59.7993 2.09589 57.9038 0.200615 55.5204 0.0705373C50.7113 -0.192197 41.3006 0.0633891 32.302 4.71772C27.7147 7.09054 22.8632 11.1135 18.9914 15.755C18.9437 15.8122 18.8973 15.8698 18.85 15.9271L10.0633 16.6058C8.61692 16.7176 7.32868 17.4757 6.52876 18.6855L0.53415 27.7526C-0.0725293 28.6701 -0.168975 29.8185 0.275986 30.8243C0.721064 31.8302 1.6356 32.5312 2.72251 32.6996L10.1254 33.8462C10.0992 33.9901 10.073 34.1339 10.049 34.2778C9.80251 35.752 10.2909 37.2677 11.3557 38.3324L21.6673 48.6441C22.55 49.5268 23.7429 50.0135 24.9652 50.0135C25.2169 50.0135 25.47 49.9928 25.722 49.9507C25.8659 49.9267 26.0097 49.9004 26.1536 49.8743L27.3001 57.2773C27.4685 58.3642 28.1695 59.2788 29.1752 59.7238C29.5937 59.9089 30.0366 60.0003 30.4774 60.0003C31.0965 60.0002 31.7113 59.82 32.2471 59.4657L41.3141 53.471C42.5241 52.671 43.282 51.3827 43.3936 49.9365L44.0724 41.1499C44.1297 41.1026 44.1873 41.0562 44.2445 41.0085C48.8862 37.1367 52.9092 32.2851 55.2819 27.6977C59.9365 18.6988 60.1916 9.28804 59.9292 4.47925ZM39.3752 50.5383L30.7021 56.2726L29.5846 49.058C33.2502 47.9802 36.8763 46.254 40.3309 43.9416L39.8888 49.6656C39.8612 50.0226 39.674 50.3408 39.3752 50.5383ZM24.1532 46.1582L13.8415 35.8465C13.5784 35.5833 13.4568 35.2135 13.5164 34.8574C13.823 33.0243 14.2993 31.2792 14.889 29.6353L30.3611 45.1073C28.3867 45.8146 26.6182 46.2364 25.1422 46.4832C24.7855 46.5425 24.4163 46.4212 24.1532 46.1582ZM10.3341 20.111L16.058 19.6689C13.7454 23.1234 12.0192 26.7496 10.9415 30.4152L3.72692 29.2978L9.46138 20.6245C9.65895 20.3257 9.97712 20.1385 10.3341 20.111ZM41.9929 38.3086C39.1531 40.6773 36.3965 42.3906 33.8556 43.6303L16.3688 26.1435C17.9927 22.8266 19.9747 20.0646 21.6911 18.007C25.2741 13.7115 29.7304 10.0059 33.9174 7.8403C42.176 3.56847 50.8773 3.33843 55.329 3.58077C55.9183 3.61288 56.3869 4.08151 56.419 4.67085C56.6617 9.12257 56.4312 17.8237 52.1593 26.0825C49.9938 30.2694 46.2882 34.7256 41.9929 38.3086Z" fill="#007AFF"/>
<path d="M41.1004 27.6848C43.3506 27.6845 45.6018 26.8279 47.3149 25.1147C48.975 23.4548 49.8891 21.2476 49.8891 18.9001C49.8891 16.5526 48.9749 14.3455 47.3149 12.6856C43.8881 9.25866 38.3123 9.2589 34.8858 12.6856C33.2257 14.3455 32.3115 16.5526 32.3115 18.9001C32.3115 21.2476 33.2258 23.4548 34.8858 25.1147C36.5993 26.8282 38.8493 27.685 41.1004 27.6848ZM37.3714 15.1714C38.3994 14.1433 39.7498 13.6293 41.1001 13.6293C42.4506 13.6293 43.8009 14.1433 44.8289 15.1714C45.8249 16.1673 46.3733 17.4916 46.3733 18.9C46.3733 20.3085 45.8249 21.6328 44.8289 22.6288C42.773 24.6849 39.4274 24.6848 37.3713 22.6288C36.3754 21.6328 35.8268 20.3086 35.8268 18.9001C35.8268 17.4917 36.3755 16.1673 37.3714 15.1714Z" fill="#007AFF"/>
<path d="M1.79291 49.4459C2.24279 49.4459 2.69268 49.2743 3.0358 48.9309L8.77482 43.1919C9.46131 42.5054 9.46131 41.3925 8.77482 40.706C8.08846 40.0195 6.97541 40.0195 6.28893 40.706L0.55002 46.445C-0.136465 47.1315 -0.136465 48.2445 0.55002 48.9309C0.893144 49.2742 1.34303 49.4459 1.79291 49.4459Z" fill="#007AFF"/>
<path d="M14.0344 45.9655C13.3481 45.2791 12.235 45.2791 11.5485 45.9655L0.514863 56.9993C-0.171621 57.6858 -0.171621 58.7987 0.514863 59.4852C0.858105 59.8285 1.30787 60 1.75775 60C2.20764 60 2.65752 59.8285 3.00064 59.4851L14.0343 48.4514C14.7209 47.765 14.7209 46.652 14.0344 45.9655Z" fill="#007AFF"/>
<path d="M16.8081 51.2249L11.0691 56.964C10.3826 57.6505 10.3826 58.7634 11.0691 59.4499C11.4123 59.7931 11.8622 59.9648 12.312 59.9648C12.7617 59.9648 13.2117 59.7932 13.5548 59.4499L19.2939 53.7108C19.9804 53.0244 19.9804 51.9114 19.2939 51.2249C18.6075 50.5385 17.4945 50.5385 16.8081 51.2249Z" fill="#007AFF"/>
</g>
<defs>
<clipPath id="clip0_270_137">
<rect width="60" height="60" fill="white"/>
</clipPath>
</defs>
</svg>
