<svg width="60" height="60" viewBox="0 0 60 60" fill="none" xmlns="http://www.w3.org/2000/svg">
<g clip-path="url(#clip0_270_144)">
<path d="M59.7417 38.3055C54.485 28.0557 43.0444 18.75 29.9999 18.75C16.8639 18.75 5.45666 28.1692 0.258223 38.3055C-0.0860742 38.9769 -0.0860742 39.7731 0.258223 40.4446C5.5149 50.6943 16.9554 60 29.9999 60C44.7703 60 55.6578 48.4076 59.7417 40.4445C60.086 39.7731 60.086 38.9769 59.7417 38.3055ZM29.9999 55.3125C19.3621 55.3125 10.4327 48.2453 5.04416 39.375C10.373 30.6029 19.274 23.4375 29.9999 23.4375C40.6801 23.4375 49.5974 30.5549 54.9557 39.375C49.5424 48.2857 40.5772 55.3125 29.9999 55.3125ZM0.738574 13.028C1.60459 12.066 3.08666 11.9884 4.04865 12.8545L9.26865 17.5546C10.2305 18.4208 10.3082 19.9027 9.44209 20.8646C8.57596 21.8268 7.09389 21.9041 6.13201 21.0381L0.912012 16.3379C-0.0498633 15.4719 -0.127559 13.99 0.738574 13.028ZM27.6562 11.7188V2.34375C27.6562 1.04941 28.7055 0 29.9999 0C31.2944 0 32.3437 1.04941 32.3437 2.34375V11.7188C32.3437 13.0131 31.2944 14.0625 29.9999 14.0625C28.7055 14.0625 27.6562 13.0131 27.6562 11.7188ZM12.7968 6.49863C12.2703 5.31609 12.8021 3.9307 13.9846 3.40418C15.1673 2.87766 16.5526 3.40945 17.0791 4.59199L20.6635 12.6428C21.19 13.8252 20.6582 15.2107 19.4757 15.7372C18.2965 16.2621 16.9095 15.7356 16.3812 14.5494L12.7968 6.49863ZM50.5578 20.8646C49.6917 19.9028 49.7692 18.4208 50.7312 17.5546L55.9512 12.8545C56.9131 11.9884 58.3952 12.066 59.2613 13.028C60.1274 13.9898 60.0499 15.4718 59.0879 16.3379L53.8679 21.0381C52.9056 21.9043 51.4238 21.8264 50.5578 20.8646ZM39.3363 12.6428L42.9207 4.59199C43.4472 3.40945 44.8326 2.87766 46.0151 3.40418C47.1977 3.9307 47.7295 5.31609 47.203 6.49863L43.6185 14.5493C43.0897 15.7372 41.7013 16.2613 40.5241 15.7372C39.3417 15.2107 38.8099 13.8253 39.3363 12.6428ZM29.9999 27.8613C23.6513 27.8613 18.4863 33.0264 18.4863 39.375C18.4863 45.7236 23.6513 50.8887 29.9999 50.8887C36.3486 50.8887 41.5136 45.7236 41.5136 39.375C41.5136 33.0264 36.3486 27.8613 29.9999 27.8613ZM29.9999 46.2012C26.236 46.2012 23.1738 43.1389 23.1738 39.375C23.1738 35.6111 26.236 32.5488 29.9999 32.5488C33.7639 32.5488 36.8261 35.6111 36.8261 39.375C36.8261 43.1389 33.7639 46.2012 29.9999 46.2012Z" fill="#F59B50"/>
</g>
<defs>
<clipPath id="clip0_270_144">
<rect width="60" height="60" fill="white"/>
</clipPath>
</defs>
</svg>
