<svg width="80" height="80" viewBox="0 0 80 80" fill="none" xmlns="http://www.w3.org/2000/svg">
<path d="M27.7311 69.1091C26.8683 69.1091 26.1686 69.8088 26.1686 70.6716C26.1686 71.5344 26.8683 72.2341 27.7311 72.2341H50.56C51.4228 72.2341 52.1225 71.5344 52.1225 70.6716C52.1225 69.8088 51.4228 69.1091 50.56 69.1091H27.7311Z" fill="#007AFF"/>
<path d="M64.3707 21.1796C64.2055 20.6717 63.7927 20.2832 63.2755 20.1496L55.7363 18.2012L55.3132 17.5367L57.5104 1.77842C57.5895 1.21139 57.352 0.646552 56.8916 0.306084C56.431 -0.0343844 55.8213 -0.0956343 55.3026 0.146553L44.7757 5.05482C43.9935 5.41951 43.6551 6.3492 44.0198 7.13123C44.3843 7.91326 45.3142 8.25185 46.0962 7.88716L54.0184 4.19326L52.7246 13.472L51.5535 11.6331C51.2692 11.1867 50.7645 10.9097 50.2351 10.9097C49.701 10.9097 49.2038 11.1825 48.917 11.6331L44.7349 18.2012L37.1957 20.1489C36.6786 20.2824 36.2656 20.6709 36.1004 21.1789C35.937 21.6821 36.0447 22.2482 36.3814 22.6565L41.3354 28.6637L40.8586 36.4362C40.8223 37.0273 41.1345 37.5991 41.6489 37.8905C42.0531 38.1198 42.5518 38.1563 42.9853 37.9876C42.9873 37.9868 42.9893 37.9863 42.9914 37.9855L49.6759 35.3509L46.0528 61.343H31.5606L24.8078 17.8129L33.7518 13.6428C34.534 13.2781 34.8725 12.3484 34.5078 11.5664C34.1433 10.7843 33.2134 10.4461 32.4314 10.8104L22.4236 15.4765C21.7934 15.7704 21.4333 16.4451 21.5398 17.1323L28.3984 61.3431H20.0728C19.21 61.3431 18.5103 62.0428 18.5103 62.9056V76.875H17.1155C16.2527 76.875 15.553 77.5747 15.553 78.4375C15.553 79.3003 16.2527 80 17.1155 80H60.4585C61.3213 80 62.021 79.3003 62.021 78.4375C62.021 77.5747 61.3213 76.875 60.4585 76.875H59.4899V62.9056C59.4899 62.0428 58.7902 61.3431 57.9274 61.3431H49.2084L52.7254 36.1116L57.4804 37.9857C57.9776 38.1815 58.5398 38.1102 58.9718 37.796C59.404 37.4821 59.6457 36.9693 59.613 36.4363L59.136 28.664L64.0902 22.6567C64.4299 22.2445 64.5357 21.6874 64.3707 21.1796ZM56.3648 76.875H21.6352V64.4681H56.3648V76.875ZM56.3332 27.1509C56.0815 27.4562 55.9548 27.8456 55.979 28.2407L56.3434 34.1787L50.8085 31.9968C50.4406 31.8513 50.0306 31.8513 49.662 31.9966L44.1282 34.1785L44.4926 28.2407C44.5167 27.8482 44.3885 27.454 44.1382 27.1506L40.3537 22.5614L46.1132 21.0732C46.4965 20.9742 46.8279 20.7334 47.0406 20.3993L50.2356 15.3818L53.4313 20.3993C53.6438 20.7332 53.9751 20.9739 54.3584 21.0729L60.1182 22.5614L56.3332 27.1509Z" fill="#007AFF"/>
<path d="M44.719 44.1576C44.719 43.2948 44.0193 42.5951 43.1565 42.5951H34.0594C33.1966 42.5951 32.4969 43.2948 32.4969 44.1576C32.4969 45.0204 33.1966 45.7201 34.0594 45.7201H43.1565C44.0193 45.7201 44.719 45.0206 44.719 44.1576Z" fill="#007AFF"/>
<path d="M35.6501 49.3491C34.7873 49.3491 34.0876 50.0488 34.0876 50.9116C34.0876 51.7744 34.7873 52.4741 35.6501 52.4741H38.4383C39.3011 52.4741 40.0008 51.7744 40.0008 50.9116C40.0008 50.0488 39.3011 49.3491 38.4383 49.3491H35.6501Z" fill="#007AFF"/>
<path d="M40.6546 8.47986C39.9063 7.33502 38.0932 7.71393 37.8233 9.0408C37.529 10.4888 39.3141 11.4853 40.4047 10.5044C40.9719 9.99424 41.0769 9.11268 40.6546 8.47986Z" fill="#007AFF"/>
</svg>
