<svg width="80" height="80" viewBox="0 0 80 80" fill="none" xmlns="http://www.w3.org/2000/svg">
<g clip-path="url(#clip0_8_59)">
<path d="M66.742 23.3699L66.742 23.37L79.242 42.12L79.45 41.9813L79.242 42.12C79.8147 42.979 79.6758 44.1272 78.9148 44.8248L41.4148 79.1998C41.0146 79.5667 40.5076 79.75 40 79.75C39.4925 79.75 38.9854 79.5666 38.5854 79.1998L38.5854 79.1998L1.08536 44.8248C0.324333 44.1272 0.185327 42.9789 0.758025 42.12L0.550017 41.9813L0.75803 42.12L13.258 23.37L13.2581 23.3699C13.6462 22.7875 14.2999 22.4375 15 22.4375H39.9952L40 22.4374L40.0049 22.4375H65C65.7 22.4375 66.3538 22.7875 66.742 23.3699ZM31.6712 40.7989L31.4121 41.1875H31.8792H48.1208H48.5879L48.3288 40.7989L40.208 28.6178L40 28.3057L39.792 28.6178L31.6712 40.7989ZM49.3889 45.7105L49.5108 45.375H49.1539H30.8461H30.4892L30.6112 45.7105L39.7651 70.8836L40 71.5297L40.235 70.8836L49.3889 45.7105ZM44.3794 26.625H43.9123L44.1714 27.0137L52.292 39.1945L52.5 39.5065L52.708 39.1945L60.8287 27.0137L61.0878 26.625H60.6206H44.3794ZM27.292 39.1945L27.5 39.5065L27.708 39.1945L35.8287 27.0137L36.0878 26.625H35.6206H19.3794H18.9123L19.1714 27.0137L27.292 39.1945ZM23.1208 41.1875H23.5879L23.3288 40.7989L15.208 28.6178L15 28.3058L14.792 28.6178L6.67122 40.7989L6.4121 41.1875H6.87924H23.1208ZM26.0934 45.5396L26.0336 45.375H25.8585H8.52533H7.88263L8.3564 45.8093L34.3561 69.6423L34.76 69.3726L26.0934 45.5396ZM54.1416 45.375H53.9665L53.9066 45.5396L45.2401 69.3726L45.644 69.6423L71.6436 45.8093L72.1174 45.375H71.4747H54.1416ZM56.6712 40.7989L56.4121 41.1875H56.8792H73.1208H73.5879L73.3288 40.7989L65.208 28.6178L65 28.3057L64.792 28.6178L56.6712 40.7989Z" fill="#F59B50" stroke="white" stroke-width="0.5"/>
<path d="M66.4472 16.5137L66.4471 16.5138C66.0384 16.9226 65.503 17.1271 64.9668 17.1271C64.4305 17.1271 63.8951 16.9226 63.4862 16.5137C62.6685 15.696 62.6685 14.3703 63.4862 13.5528L63.4862 13.5528L70.1152 6.92371C70.1152 6.9237 70.1152 6.9237 70.1152 6.92369C70.9329 6.10615 72.2587 6.10618 73.0762 6.92369C73.8939 7.74138 73.8939 9.06714 73.0762 9.88465L73.0762 9.88467L66.4472 16.5137Z" fill="#F59B50" stroke="white" stroke-width="0.5"/>
<path d="M42.0938 11.7188C42.0938 12.8751 41.1563 13.8125 40 13.8125C38.8437 13.8125 37.9062 12.8751 37.9062 11.7188V2.34375C37.9062 1.18745 38.8437 0.25 40 0.25C41.1563 0.25 42.0938 1.18745 42.0938 2.34375V11.7188Z" fill="#F59B50" stroke="white" stroke-width="0.5"/>
<path d="M16.5136 16.5137L16.5135 16.5137C16.1048 16.9226 15.5692 17.127 15.0331 17.127C14.4971 17.127 13.9616 16.9226 13.5527 16.5137L6.92381 9.88479C6.10612 9.0671 6.10614 7.74134 6.92379 6.92383C7.74149 6.10627 9.06727 6.1063 9.88478 6.92381C9.88478 6.92381 9.88478 6.92381 9.88479 6.92381L16.5135 13.5527L16.6903 13.3759L16.5135 13.5527C17.3312 14.3704 17.3312 15.6962 16.5136 16.5137Z" fill="#F59B50" stroke="white" stroke-width="0.5"/>
</g>
<defs>
<clipPath id="clip0_8_59">
<rect width="80" height="80" fill="white"/>
</clipPath>
</defs>
</svg>
