<svg width="80" height="80" viewBox="0 0 80 80" fill="none" xmlns="http://www.w3.org/2000/svg">
<g clip-path="url(#clip0_8_70)">
<path d="M40 11.2733C38.7581 11.2733 37.75 10.2653 37.75 9.02333V2.5C37.75 1.25807 38.7581 0.25 40 0.25C41.2419 0.25 42.25 1.25807 42.25 2.5V9.02333C42.25 10.2653 41.2419 11.2733 40 11.2733Z" fill="#9C69DF" stroke="white" stroke-width="0.5"/>
<path d="M60.3141 19.6872L60.3135 19.6866C59.4344 18.8075 59.4344 17.3825 60.3135 16.5034L60.1367 16.3267L60.3135 16.5034L64.9268 11.8901C65.8058 11.0111 67.2309 11.0111 68.1099 11.8901C68.9889 12.7691 68.9889 14.1942 68.1099 15.0732L63.4972 19.686C63.497 19.6861 63.4969 19.6862 63.4968 19.6864C63.0549 20.125 62.4789 20.3467 61.9033 20.3467C61.3267 20.3467 60.7515 20.1277 60.3141 19.6872Z" fill="#9C69DF" stroke="white" stroke-width="0.5"/>
<path d="M77.5 42.25H70.9767C69.7348 42.25 68.7267 41.2419 68.7267 40C68.7267 38.7581 69.7348 37.75 70.9767 37.75H77.5C78.742 37.75 79.75 38.7581 79.75 40C79.75 41.2419 78.742 42.25 77.5 42.25Z" fill="#9C69DF" stroke="white" stroke-width="0.5"/>
<path d="M64.9274 68.1072L64.9268 68.1066L60.3135 63.4933C59.4344 62.6142 59.4344 61.1892 60.3135 60.3102C61.1925 59.4311 62.6175 59.4311 63.4966 60.3102L68.1099 64.9235C68.9889 65.8025 68.9889 67.2276 68.1099 68.1066C67.6687 68.5478 67.0932 68.7667 66.5167 68.7667C65.94 68.7667 65.3649 68.5477 64.9274 68.1072Z" fill="#9C69DF" stroke="white" stroke-width="0.5"/>
<path d="M11.894 68.1072L11.8934 68.1066C11.0144 67.2276 11.0144 65.8025 11.8934 64.9235L16.5067 60.3102C17.3858 59.4311 18.8108 59.4311 19.6899 60.3102C20.5689 61.1892 20.5689 62.6142 19.6899 63.4933L15.0765 68.1066C14.6353 68.5478 14.0598 68.7667 13.4833 68.7667C12.9067 68.7667 12.3315 68.5477 11.894 68.1072Z" fill="#9C69DF" stroke="white" stroke-width="0.5"/>
<path d="M9.02333 42.25H2.5C1.25807 42.25 0.25 41.2419 0.25 40C0.25 38.7581 1.25807 37.75 2.5 37.75H9.02333C10.2653 37.75 11.2733 38.7581 11.2733 40C11.2733 41.2419 10.2653 42.25 9.02333 42.25Z" fill="#9C69DF" stroke="white" stroke-width="0.5"/>
<path d="M16.5073 19.6872L16.5067 19.6866L11.8934 15.0732C11.0144 14.1942 11.0144 12.7691 11.8934 11.8901C12.7724 11.0111 14.1975 11.0111 15.0765 11.8901L19.6899 16.5034C20.5687 17.3823 20.5689 18.8069 19.6904 19.686C19.2446 20.1254 18.6716 20.3467 18.0966 20.3467C17.52 20.3467 16.9448 20.1277 16.5073 19.6872Z" fill="#9C69DF" stroke="white" stroke-width="0.5"/>
<path d="M52.5 41.4167C51.2581 41.4167 50.25 40.4086 50.25 39.1667C50.25 33.9719 46.0281 29.75 40.8334 29.75C39.5914 29.75 38.5834 28.7419 38.5834 27.5C38.5834 26.2581 39.5914 25.25 40.8334 25.25C48.5053 25.25 54.75 31.4947 54.75 39.1667C54.75 40.4086 53.742 41.4167 52.5 41.4167Z" fill="#9C69DF" stroke="white" stroke-width="0.5"/>
<mask id="path-9-inside-1_8_70" fill="white">
<path fill-rule="evenodd" clip-rule="evenodd" d="M35.8333 80H44.1666C47.3833 80 50 77.3834 50 74.1667V67.5146C50 67.5098 50 67.5049 50 67.5C50 67.4951 50 67.4902 50 67.4854V66.7567C50 63.6067 51.61 60.5334 54.4166 58.3267C60.0833 53.87 63.3333 47.1934 63.3333 40C63.3333 32.94 60.19 26.3367 54.71 21.8834C49.2233 17.4234 42.0266 15.7134 34.9966 17.19C26.1533 19.04 18.99 26.23 17.1733 35.0834C15.3166 44.12 18.6866 53.14 25.97 58.6234C28.4933 60.5234 30 63.77 30 67.3067V73.1867C30 77.8667 33.0233 80 35.8333 80ZM45.1044 65C45.6025 60.9509 47.8078 57.1598 51.3233 54.3934C55.78 50.8934 58.3333 45.6467 58.3333 40C58.3333 34.4534 55.86 29.2634 51.5533 25.7634C48.26 23.09 44.1766 21.6734 39.9533 21.6734C38.6466 21.6734 37.33 21.81 36.0133 22.0834C29.0933 23.53 23.49 29.1567 22.0666 36.0867C20.6033 43.21 23.25 50.3167 28.9733 54.6267C32.1673 57.0328 34.2727 60.8028 34.8415 65H45.1044ZM44.9966 70H34.9966V73.1867C34.9966 73.49 35.0366 75 35.83 75H44.1633C44.6233 75 44.9966 74.6267 44.9966 74.1667V70Z"/>
</mask>
<path fill-rule="evenodd" clip-rule="evenodd" d="M35.8333 80H44.1666C47.3833 80 50 77.3834 50 74.1667V67.5146C50 67.5098 50 67.5049 50 67.5C50 67.4951 50 67.4902 50 67.4854V66.7567C50 63.6067 51.61 60.5334 54.4166 58.3267C60.0833 53.87 63.3333 47.1934 63.3333 40C63.3333 32.94 60.19 26.3367 54.71 21.8834C49.2233 17.4234 42.0266 15.7134 34.9966 17.19C26.1533 19.04 18.99 26.23 17.1733 35.0834C15.3166 44.12 18.6866 53.14 25.97 58.6234C28.4933 60.5234 30 63.77 30 67.3067V73.1867C30 77.8667 33.0233 80 35.8333 80ZM45.1044 65C45.6025 60.9509 47.8078 57.1598 51.3233 54.3934C55.78 50.8934 58.3333 45.6467 58.3333 40C58.3333 34.4534 55.86 29.2634 51.5533 25.7634C48.26 23.09 44.1766 21.6734 39.9533 21.6734C38.6466 21.6734 37.33 21.81 36.0133 22.0834C29.0933 23.53 23.49 29.1567 22.0666 36.0867C20.6033 43.21 23.25 50.3167 28.9733 54.6267C32.1673 57.0328 34.2727 60.8028 34.8415 65H45.1044ZM44.9966 70H34.9966V73.1867C34.9966 73.49 35.0366 75 35.83 75H44.1633C44.6233 75 44.9966 74.6267 44.9966 74.1667V70Z" fill="#9C69DF"/>
<path d="M50 67.5146L49.5 67.5119V67.5146H50ZM50 67.4854H49.5L49.5 67.4881L50 67.4854ZM54.4166 58.3267L54.7257 58.7198L54.7257 58.7197L54.4166 58.3267ZM54.71 21.8834L54.3946 22.2714L54.3946 22.2714L54.71 21.8834ZM34.9966 17.19L35.099 17.6794L35.0994 17.6794L34.9966 17.19ZM17.1733 35.0834L17.6631 35.184L17.6631 35.1839L17.1733 35.0834ZM25.97 58.6234L26.2707 58.2239L26.2707 58.2239L25.97 58.6234ZM45.1044 65V65.5H45.5467L45.6007 65.061L45.1044 65ZM51.3233 54.3934L51.0145 54.0001L51.0141 54.0004L51.3233 54.3934ZM51.5533 25.7634L51.8686 25.3753L51.8684 25.3752L51.5533 25.7634ZM36.0133 22.0834L35.9117 21.5938L35.911 21.5939L36.0133 22.0834ZM22.0666 36.0867L22.5564 36.1873L22.5564 36.1873L22.0666 36.0867ZM28.9733 54.6267L29.2741 54.2273L29.2741 54.2273L28.9733 54.6267ZM34.8415 65L34.346 65.0671L34.4047 65.5H34.8415V65ZM44.9966 70H45.4966V69.5H44.9966V70ZM34.9966 70V69.5H34.4966V70H34.9966ZM44.1666 79.5H35.8333V80.5H44.1666V79.5ZM49.5 74.1667C49.5 77.1072 47.1072 79.5 44.1666 79.5V80.5C47.6594 80.5 50.5 77.6595 50.5 74.1667H49.5ZM49.5 67.5146V74.1667H50.5V67.5146H49.5ZM49.5 67.5C49.5 67.5038 49.5 67.5078 49.5 67.5119L50.5 67.5174C50.5 67.5117 50.5 67.5059 50.5 67.5H49.5ZM49.5 67.4881C49.5 67.4922 49.5 67.4962 49.5 67.5H50.5C50.5 67.4941 50.5 67.4883 50.5 67.4826L49.5 67.4881ZM49.5 66.7567V67.4854H50.5V66.7567H49.5ZM54.1076 57.9336C51.1986 60.2208 49.5 63.4316 49.5 66.7567H50.5C50.5 63.7819 52.0213 60.846 54.7257 58.7198L54.1076 57.9336ZM62.8333 40C62.8333 47.0395 59.6541 53.5715 54.1075 57.9337L54.7257 58.7197C60.5125 54.1686 63.8333 47.3472 63.8333 40H62.8333ZM54.3946 22.2714C59.7578 26.6298 62.8333 33.0906 62.8333 40H63.8333C63.8333 32.7894 60.6221 26.0436 55.0253 21.4953L54.3946 22.2714ZM35.0994 17.6794C41.9849 16.233 49.0273 17.9084 54.3946 22.2714L55.0253 21.4954C49.4193 16.9384 42.0684 15.1937 34.8938 16.7007L35.0994 17.6794ZM17.6631 35.1839C19.4397 26.5258 26.4508 19.4886 35.099 17.6794L34.8942 16.7006C25.8558 18.5914 18.5402 25.9343 16.6835 34.9829L17.6631 35.1839ZM26.2707 58.2239C19.1441 52.8586 15.8447 44.0344 17.6631 35.184L16.6835 34.9827C14.7886 44.2057 18.2292 53.4215 25.6692 59.0228L26.2707 58.2239ZM30.5 67.3067C30.5 63.6346 28.9358 60.2307 26.2707 58.2239L25.6692 59.0228C28.0508 60.8161 29.5 63.9055 29.5 67.3067H30.5ZM30.5 73.1867V67.3067H29.5V73.1867H30.5ZM35.8333 79.5C34.5526 79.5 33.2251 79.0137 32.2182 77.9966C31.2165 76.9847 30.5 75.4141 30.5 73.1867H29.5C29.5 75.6393 30.2951 77.4754 31.5075 78.7001C32.7148 79.9197 34.304 80.5 35.8333 80.5V79.5ZM45.6007 65.061C46.0813 61.1543 48.2113 57.4784 51.6325 54.7863L51.0141 54.0004C47.4042 56.8411 45.1238 60.7476 44.6082 64.939L45.6007 65.061ZM51.6321 54.7866C56.2091 51.1921 58.8333 45.8006 58.8333 40H57.8333C57.8333 45.4928 55.3508 50.5947 51.0145 54.0001L51.6321 54.7866ZM58.8333 40C58.8333 34.3026 56.2919 28.9701 51.8686 25.3753L51.2379 26.1514C55.428 29.5566 57.8333 34.6042 57.8333 40H58.8333ZM51.8684 25.3752C48.4842 22.6281 44.2891 21.1734 39.9533 21.1734V22.1734C44.0642 22.1734 48.0357 23.552 51.2382 26.1516L51.8684 25.3752ZM39.9533 21.1734C38.6116 21.1734 37.2609 21.3137 35.9117 21.5938L36.1149 22.5729C37.399 22.3064 38.6816 22.1734 39.9533 22.1734V21.1734ZM35.911 21.5939C28.7956 23.0814 23.0402 28.8611 21.5769 35.9861L22.5564 36.1873C23.9397 29.4523 29.3909 23.9786 36.1156 22.5728L35.911 21.5939ZM21.5769 35.9861C20.0754 43.2949 22.7919 50.5977 28.6725 55.0261L29.2741 54.2273C23.708 50.0357 21.1312 43.1252 22.5564 36.1873L21.5769 35.9861ZM28.6724 55.0261C31.7505 57.3448 33.7936 60.9901 34.346 65.0671L35.337 64.9329C34.7519 60.6155 32.5842 56.7209 29.2741 54.2273L28.6724 55.0261ZM34.8415 65.5H45.1044V64.5H34.8415V65.5ZM44.9966 69.5H34.9966V70.5H44.9966V69.5ZM34.4966 70V73.1867H35.4966V70H34.4966ZM34.4966 73.1867C34.4966 73.3493 34.5062 73.8549 34.6322 74.3342C34.6947 74.5719 34.7962 74.8453 34.9724 75.0689C35.1602 75.3072 35.4457 75.5 35.83 75.5V74.5C35.8175 74.5 35.8005 74.5041 35.7578 74.4498C35.7033 74.3808 35.6461 74.2578 35.5994 74.08C35.507 73.7285 35.4966 73.3275 35.4966 73.1867H34.4966ZM35.83 75.5H44.1633V74.5H35.83V75.5ZM44.1633 75.5C44.8994 75.5 45.4966 74.9028 45.4966 74.1667H44.4966C44.4966 74.3506 44.3472 74.5 44.1633 74.5V75.5ZM45.4966 74.1667V70H44.4966V74.1667H45.4966Z" fill="white" mask="url(#path-9-inside-1_8_70)"/>
</g>
<defs>
<clipPath id="clip0_8_70">
<rect width="80" height="80" fill="white"/>
</clipPath>
</defs>
</svg>
