<svg width="76" height="62" viewBox="0 0 76 62" fill="none" xmlns="http://www.w3.org/2000/svg">
<path d="M74.3828 7.24339C74.0021 7.02369 73.529 7.02369 73.148 7.24339C64.0073 12.5174 66.7178 10.9534 57.4583 16.2961C56.9524 16.588 56.737 17.1775 56.8875 17.7026L51.5944 20.7497C50.0847 21.6208 48.2089 21.6208 46.6989 20.7494L41.7796 17.911C39.5732 16.6377 36.8314 16.6378 34.6248 17.911L27.8744 21.8059C26.7176 21.7311 25.581 21.3872 24.5693 20.8038L19.1219 17.6665C19.2533 17.145 19.0302 16.5777 18.5418 16.2961L12.5667 12.8485C12.0481 12.5495 11.3852 12.7267 11.0859 13.245C10.7865 13.7631 10.9642 14.4257 11.4826 14.7249L12.0114 15.03L7.1314 23.4771C6.83206 23.9952 7.0097 24.6578 7.52816 24.957C8.04432 25.2547 8.70833 25.0809 9.00898 24.5605L13.8889 16.1133L16.6494 17.7062L7.22954 34.0118L3.1681 31.6684V9.92756L6.97356 12.1232C7.49188 12.4221 8.15503 12.2448 8.45438 11.7267C8.75372 11.2085 8.57608 10.5459 8.05761 10.2468L2.85199 7.24339C2.47113 7.02369 1.99805 7.02369 1.61719 7.24339C1.23647 7.4631 1 7.87262 1 8.31203V32.2069C1 32.6459 1.23618 33.0551 1.61733 33.2755L6.95332 36.3543C7.14368 36.4643 7.35486 36.5203 7.56907 36.5203C7.87809 36.5203 8.19435 36.403 8.43284 36.1703L12.2289 38.3566C11.7792 39.4167 11.8365 40.6228 12.4281 41.6473L13.411 43.3486C14.0067 44.3801 15.0169 45.0115 16.1186 45.1607C16.0013 45.9548 16.1406 46.792 16.5725 47.5395L17.5554 49.2407C18.3941 50.6928 20.0855 51.3663 21.6505 50.9738C21.6821 51.5432 21.8472 52.1015 22.1409 52.6098L23.1238 54.3112C23.6167 55.1643 24.4123 55.7746 25.3644 56.0295C26.1672 56.2448 27.024 56.1903 27.8112 55.8409C27.8595 56.3642 28.0209 56.8756 28.2918 57.3443L29.2747 59.0457C29.7676 59.8988 30.5634 60.5091 31.5153 60.764C32.4645 61.0184 33.46 60.8893 34.3157 60.3955L36.1373 59.3445C36.6237 59.0639 37.0478 58.7056 37.3967 58.2866L41.2396 60.5039C42.1058 61.0038 43.1121 61.1304 44.0734 60.8633C45.0358 60.5957 45.8319 59.9672 46.3151 59.0932L47.2658 57.3732C47.5154 56.9217 47.6589 56.4373 47.7046 55.9505L48.2567 56.2692C49.1218 56.7683 50.1281 56.896 51.0906 56.6284C52.0529 56.3609 52.8489 55.7324 53.3321 54.8585L54.2827 53.1385C54.5734 52.6124 54.7201 52.0423 54.7362 51.475C56.1929 51.7385 57.7718 51.0985 58.5869 49.6876L59.5699 47.9863C59.969 47.2957 60.1183 46.5281 60.046 45.7889C60.3029 45.7716 60.5603 45.727 60.8144 45.6549C61.7827 45.38 62.5788 44.7407 63.0558 43.8546L63.9873 42.1241C64.6748 40.8472 64.5435 39.3601 63.762 38.2547L67.4963 36.0949C67.871 36.528 68.5187 36.6588 69.0464 36.3545L72.6162 34.2946L72.6959 34.4324C72.9727 34.9119 73.5424 35.153 74.0848 35.0075C74.6238 34.8632 75 34.3731 75 33.8156V8.31203C75.0001 7.87262 74.7635 7.4631 74.3828 7.24339ZM72.832 9.9277V30.3344L63.9899 15.0292L72.832 9.9277ZM15.2887 42.2652L14.3058 40.5639C13.9556 39.9576 14.0725 39.2185 14.5271 38.748C14.8207 38.4517 14.7724 38.563 18.9052 36.1537C19.2988 35.9268 19.7288 35.8189 20.1535 35.8189C21.0198 35.8189 21.8637 36.2678 22.3271 37.0701C23.0177 38.2654 22.6063 39.7996 21.4101 40.4899C20.9927 40.7309 17.6961 42.6328 17.3679 42.8222C17.0158 43.0255 16.6059 43.0793 16.213 42.9742C15.8201 42.8689 15.492 42.6172 15.2887 42.2652ZM19.4331 48.1573L18.4502 46.4561C18.0306 45.7298 18.2805 44.7976 19.0073 44.3781C20.5832 43.4688 20.0203 43.7935 21.7569 42.7916C22.9532 42.1037 24.4861 42.5153 25.1758 43.7096C25.8664 44.905 25.4551 46.4391 24.259 47.1294L21.5123 48.7143C20.7855 49.1338 19.8528 48.8841 19.4331 48.1573ZM25.9257 53.9366C25.533 53.8315 25.2047 53.5798 25.0013 53.2279L24.0185 51.5266C23.8153 51.1747 23.7612 50.7648 23.8664 50.3723C23.9715 49.9801 24.2231 49.6522 24.575 49.4491C24.5955 49.4373 24.4212 49.5378 27.1374 47.9706C28.3287 47.2834 29.8656 47.6863 30.5594 48.8869C31.25 50.0823 30.8386 51.6165 29.6424 52.3068L27.0806 53.7848C26.7286 53.9877 26.3183 54.0418 25.9257 53.9366ZM35.0533 57.468L33.2316 58.519C32.8794 58.7221 32.4693 58.7761 32.0766 58.671C31.6839 58.5658 31.3556 58.314 31.1523 57.9623L30.1694 56.261C29.9662 55.9089 29.9121 55.4991 30.0173 55.1067C30.1226 54.7142 30.3743 54.3863 30.7264 54.183L32.5481 53.132C33.1287 52.797 33.8037 52.7089 34.4489 52.882C35.0952 53.055 35.6353 53.4692 35.9699 54.0484C36.6634 55.2482 36.2505 56.7774 35.0533 57.468ZM68.8195 33.9835C68.766 33.9052 68.7037 33.836 68.6347 33.7763L66.7176 30.4576C66.4184 29.9393 65.7549 29.7622 65.2367 30.0611C64.7183 30.3603 64.5406 31.0228 64.84 31.541L66.3932 34.2296L61.934 36.8086L53.7572 32.0909C53.2384 31.7917 52.5756 31.9691 52.2764 32.4874C51.977 33.0056 52.1547 33.6682 52.6731 33.9673C53.6141 34.5103 60.6513 38.5706 61.4989 39.0596C62.2161 39.4734 62.4707 40.3686 62.0782 41.0975L61.1467 42.828C60.95 43.1935 60.6216 43.4571 60.2222 43.5706C59.8225 43.6843 59.4045 43.6323 59.0451 43.4246C53.8818 40.4446 56.9206 42.1994 50.3014 38.3801C49.7826 38.0811 49.1198 38.2583 48.8206 38.7766C48.5212 39.2948 48.6989 39.9574 49.2173 40.2565L57.1475 44.8321C57.8647 45.2549 58.1096 46.1807 57.6925 46.9028L56.7094 48.6041C56.5062 48.9561 56.178 49.2078 55.7852 49.3128C55.3927 49.4179 54.9823 49.3639 54.6302 49.1608C49.7406 46.3396 51.8341 47.5476 46.7125 44.5923C46.1941 44.2933 45.5308 44.4705 45.2316 44.9888C44.9323 45.507 45.1099 46.1696 45.6284 46.4687C46.5394 46.9944 50.9027 49.5121 51.8137 50.0378C52.527 50.4495 52.7833 51.3703 52.3851 52.0907L51.4346 53.8105C51.2353 54.1709 50.907 54.4302 50.51 54.5406C50.1132 54.6512 49.6981 54.5983 49.3411 54.3925L46.4342 52.7153C46.4332 52.7147 46.432 52.714 46.431 52.7134C46.3855 52.6871 43.5157 51.0313 43.4649 51.002L43.1026 50.793C42.5838 50.4938 41.9209 50.6712 41.6217 51.1895C41.3224 51.7076 41.5 52.3702 42.0185 52.6694C42.711 53.0689 44.0658 53.8507 44.7969 54.2725C45.5102 54.684 45.7663 55.6049 45.3681 56.3254L44.4174 58.0452C44.2183 58.4057 43.8899 58.665 43.493 58.7754C43.0959 58.886 42.6811 58.8332 42.3241 58.6272L38.357 56.3387C38.6212 55.186 38.4427 53.9945 37.8478 52.9649C37.2237 51.8846 36.2159 51.1118 35.0102 50.7889C34.353 50.613 33.6798 50.5822 33.0284 50.6916C33.1452 49.7233 32.9613 48.711 32.4371 47.8034C31.4408 46.079 29.5026 45.2295 27.6431 45.5282C27.924 43.2567 26.5144 41.1144 24.3019 40.4766C25.0115 39.1083 25.0311 37.4175 24.2045 35.9867C22.9161 33.7567 20.0526 32.9897 17.8209 34.2773C13.4367 36.807 13.7448 36.6279 13.6607 36.6807L9.5565 34.3169L18.0782 19.5663L23.4858 22.6809C23.9955 22.9748 24.5301 23.2214 25.0816 23.4184C24.0834 24.0342 23.7488 25.3403 24.3392 26.3619L24.6926 26.9735C26.4732 30.0558 30.4314 31.1156 33.5161 29.3361L35.065 28.4425C35.2971 28.3085 35.5908 28.3449 35.7631 28.5292C36.8369 29.6782 38.3547 30.3371 39.9272 30.3371C41.3772 30.3371 42.7389 29.7995 43.7822 28.8373L48.2024 31.3877C48.7203 31.6863 49.3836 31.5101 49.6832 30.9912C49.9825 30.4731 49.8049 29.8105 49.2864 29.5113L45.0771 27.0825C45.238 26.7437 45.3649 26.3886 45.4565 26.0197C45.6008 25.4389 45.2467 24.8512 44.6656 24.7071C44.0841 24.5628 43.4964 24.9167 43.3522 25.4975C43.2344 25.9722 43.0221 26.4096 42.7213 26.7981C42.7177 26.8027 42.7139 26.8075 42.7104 26.8123C42.0356 27.6757 41.0219 28.1705 39.9272 28.1705C38.9388 28.1705 38.0227 27.7727 37.3475 27.0505C36.4803 26.1224 35.0962 25.9232 33.9811 26.5661L32.4323 27.4597C30.383 28.6422 27.7531 27.9381 26.5703 25.8903L26.2169 25.2785C26.2136 25.2726 26.2156 25.2649 26.2216 25.2616C27.3572 24.6064 34.5725 20.4434 35.7087 19.7875C37.2467 18.8999 39.1573 18.8999 40.6954 19.7875L45.6147 22.626C47.7932 23.8828 50.4996 23.8831 52.6772 22.627L57.9396 19.5975L62.3055 27.1542C62.6064 27.6749 63.2703 27.8484 63.7863 27.5507C64.3047 27.2516 64.4824 26.589 64.183 26.0708L59.4534 17.8841C59.4402 17.8157 59.4203 17.7478 59.3933 17.6815L62.1122 16.1126L71.5322 32.4182L68.8195 33.9835Z" fill="#9C69DF" stroke="#9C69DF"/>
<path d="M25.6328 9.17874L26.9026 9.81331C28.3485 10.5358 29.543 11.7297 30.2662 13.1748L30.901 14.4436C31.1133 14.868 31.54 15.1317 32.0147 15.1317C32.4889 15.1317 32.9162 14.8685 33.1284 14.4436L33.7633 13.1748C34.4863 11.7296 35.6809 10.5357 37.1269 9.81331L38.3967 9.17874C38.8211 8.96669 39.0849 8.54056 39.085 8.06648C39.0851 7.59196 38.8216 7.16526 38.3966 6.95277L37.1269 6.31835C35.6809 5.59581 34.4865 4.40194 33.7633 2.95686L33.1284 1.68787C32.9162 1.26362 32.4896 1.00014 32.015 1C31.539 1 31.113 1.26434 30.9008 1.68801L30.266 2.95686C29.543 4.40208 28.3484 5.59596 26.9026 6.31835L25.6322 6.95306C25.2077 7.16555 24.9442 7.59211 24.9443 8.06662C24.9448 8.54071 25.2086 8.96712 25.6328 9.17874ZM37.4276 7.24037C37.4274 7.24037 37.427 7.24066 37.4265 7.24095C37.427 7.24066 37.4273 7.24066 37.4276 7.24037ZM32.0147 4.2871C32.8922 5.86709 34.2144 7.18866 35.7956 8.06561C34.2146 8.94271 32.8922 10.2643 32.0147 11.8443C31.1372 10.2643 29.8148 8.94271 28.2338 8.06576C29.8148 7.18866 31.1372 5.86738 32.0147 4.2871Z" fill="#9C69DF" stroke="#9C69DF"/>
<path d="M41.581 12.1459L42.639 12.6746C43.8094 13.2595 44.7761 14.2254 45.3613 15.3949L45.8906 16.4531C46.0985 16.8678 46.5159 17.1255 46.98 17.1255C47.4441 17.1255 47.8617 16.8678 48.0697 16.4524L48.5987 15.395C49.184 14.2254 50.1507 13.2595 51.321 12.6746C51.3363 12.6669 52.3945 12.1381 52.3796 12.1456C52.7946 11.9379 53.0524 11.5207 53.0524 11.0569C53.0524 10.5931 52.7946 10.1758 52.379 9.9679L51.321 9.43921C50.1507 8.85433 49.184 7.88825 48.5987 6.71864L48.0694 5.66069C47.8616 5.24598 47.4441 4.98828 46.98 4.98828C46.5159 4.98828 46.0983 5.24598 45.8903 5.66127L45.3613 6.71864C44.7761 7.88825 43.8094 8.85433 42.639 9.43921L41.5804 9.96818C41.1655 10.1759 40.9076 10.5931 40.9076 11.0569C40.9076 11.5207 41.1655 11.938 41.581 12.1459ZM46.98 8.26758C47.6698 9.40396 48.634 10.3676 49.7712 11.057C48.6343 11.7464 47.6699 12.71 46.98 13.8464C46.2903 12.7103 45.3259 11.7465 44.1888 11.057C45.326 10.3676 46.2903 9.40396 46.98 8.26758Z" fill="#9C69DF" stroke="#9C69DF"/>
</svg>
