<svg width="60" height="60" viewBox="0 0 60 60" fill="none" xmlns="http://www.w3.org/2000/svg">
<path d="M56.8325 46.9688L55.7028 45.9356L55.2841 45.5527V46.1201V53.6454C55.2841 57.0119 52.5513 59.75 49.1945 59.75H34.39C31.0331 59.75 28.3004 57.0119 28.3004 53.6454V46.1201V45.5527L27.8817 45.9356L26.7519 46.9688L23.9372 43.8759L41.792 27.5469L59.6472 43.8759L56.8325 46.9688ZM51.108 41.8438V41.7336L51.0267 41.6593L41.9607 33.3686L41.792 33.2144L41.6233 33.3687L32.5577 41.6593L32.4764 41.7336V41.8438V53.6449C32.4764 54.702 33.334 55.5625 34.39 55.5625H49.1945C50.2505 55.5625 51.108 54.702 51.108 53.6449V41.8438ZM12.3473 42.1204C16.5406 47.4355 21.3116 51.8711 23.7148 53.9874V59.4419L22.6528 58.5819C22.6528 58.5819 22.6528 58.5819 22.6528 58.5819C22.4295 58.4009 17.0407 54.0151 11.577 47.727C4.03372 39.0453 0.25 31.2961 0.25 24.6875V24.0235C0.25 10.9144 10.8892 0.25 23.9648 0.25C37.0405 0.25 47.6797 10.9144 47.6797 24.0235V24.6875C47.6797 25.0773 47.6652 25.4719 47.638 25.8706L43.3985 21.9936C42.382 12.1444 34.0557 4.4375 23.9648 4.4375C13.1905 4.4375 4.42606 13.2243 4.42606 24.0235V24.6875C4.42606 30.4391 8.1135 36.754 12.3473 42.1204ZM45.1075 43.7265V50.2575H38.5937V43.7265H45.1075ZM23.9648 14.3125C29.3052 14.3125 33.6515 18.6686 33.6515 24.0235C33.6515 29.3784 29.3052 33.7345 23.9648 33.7345C18.6245 33.7345 14.2782 29.3784 14.2782 24.0235C14.2782 18.6686 18.6245 14.3125 23.9648 14.3125ZM23.9648 18.5C20.9253 18.5 18.4542 20.9781 18.4542 24.0235C18.4542 27.0685 20.9253 29.547 23.9648 29.547C27.0039 29.547 29.4755 27.0685 29.4755 24.0235C29.4755 20.978 27.0039 18.5 23.9648 18.5Z" fill="#007AFF" stroke="white" stroke-width="0.5"/>
</svg>
