<svg width="60" height="60" viewBox="0 0 60 60" fill="none" xmlns="http://www.w3.org/2000/svg">
<path d="M40.372 35.8385L39.1515 29.043L44.1777 24.1446C45.9107 22.5484 44.8957 19.4536 42.5647 19.175L35.72 18.2417L32.6059 11.9485C31.6479 9.81343 28.3384 9.8114 27.3824 11.9505L24.3781 18.1665L17.4297 19.1832C15.0906 19.4577 14.0939 22.5565 15.8147 24.1507L20.8022 28.9291L19.6164 35.8425C19.3438 37.4265 20.4076 38.9333 21.9942 39.2057C22.6268 39.3135 23.2756 39.2118 23.8431 38.9129L29.9311 35.6473C30.8688 36.0093 36.5133 39.4579 37.5039 39.2464C39.2878 39.2586 40.6852 37.5933 40.372 35.8385ZM31.3488 32.943C30.5006 32.4977 29.4856 32.4977 28.6374 32.943L22.6715 36.0784L23.8126 29.4374C23.9733 28.4919 23.6601 27.5281 22.9746 26.8571L18.1457 22.1539L24.8154 21.184C25.7653 21.0457 26.5851 20.452 27.0102 19.5919L29.9514 13.4633L32.9802 19.5939C33.4032 20.452 34.223 21.0457 35.1708 21.184L41.8426 22.1539L37.0137 26.8591C36.3282 27.5281 36.015 28.4919 36.1777 29.4374L37.3168 36.0784L31.3488 32.943Z" fill="#F59B50"/>
<path d="M22.6674 43.1686L22.6715 43.1706L17.2588 42.3959L14.8383 37.4955C13.9677 35.5556 10.9634 35.5516 10.0928 37.4955L7.67024 42.3959L2.25963 43.1808C0.815447 43.3943 -0.183278 44.7363 0.0282646 46.182C-0.0388596 47.4366 3.62246 50.263 4.70661 51.4972L3.78315 56.8816C3.35193 58.982 5.75619 60.7246 7.61939 59.6795L12.4584 57.1378L17.3015 59.6795C19.1688 60.7389 21.569 58.9861 21.1459 56.8897L20.2306 51.5013L24.136 47.6826C25.7165 46.2349 24.791 43.4126 22.6674 43.1686ZM17.9423 49.474C17.3198 50.08 17.0351 50.9523 17.1795 51.8083L17.9931 56.5969L13.6992 54.3378C12.9263 53.9312 12.0048 53.9312 11.2319 54.3378L6.92781 56.5969L7.74144 51.8083C7.88992 50.9502 7.60515 50.0718 6.98069 49.4639L3.50651 46.0722L8.31707 45.3727C9.17952 45.2487 9.92602 44.7058 10.3105 43.925L12.4645 39.5654L14.6166 43.925C15.001 44.7058 15.7475 45.2487 16.61 45.3727L21.4205 46.0722L17.9423 49.474Z" fill="#F59B50"/>
<path d="M59.2561 43.945C58.8473 43.5241 58.3103 43.2496 57.7286 43.1663V43.1703L52.318 42.3855L49.8974 37.485C49.2547 36.1735 47.6701 35.6326 46.3581 36.2772C45.1336 36.5985 43.5715 40.9723 42.7294 42.3855L37.3188 43.1703C35.8725 43.3777 34.8698 44.7177 35.0772 46.1635C35.006 47.4221 38.6857 50.2729 39.7576 51.501L38.8341 56.8874C38.3968 58.996 40.8214 60.7427 42.6867 59.6792L47.5237 57.1375L52.3688 59.6792C53.6604 60.3624 55.2592 59.8704 55.9427 58.5792C56.7461 57.593 55.4382 53.1582 55.2857 51.5031L59.1951 47.6824C60.2447 46.6677 60.2711 44.9943 59.2561 43.945ZM52.9994 49.4636C52.3769 50.0736 52.0922 50.948 52.2366 51.8081L53.0604 56.5967L48.7583 54.3376C47.9854 53.9309 47.064 53.9309 46.291 54.3376L41.9951 56.5967L42.8087 51.8081C42.9572 50.948 42.6724 50.0716 42.0459 49.4636L38.5656 46.0719L43.3742 45.3725C44.2366 45.2484 44.9831 44.7076 45.3696 43.9247L47.5216 39.5652L49.6737 43.9247C50.0581 44.7055 50.8046 45.2484 51.6671 45.3725L56.4797 46.0719L52.9994 49.4636Z" fill="#F59B50"/>
<path d="M29.9942 7.35468C30.8363 7.35468 31.5197 6.67147 31.5197 5.82966V1.52502C31.5197 0.683211 30.8363 0 29.9942 0C29.1521 0 28.4686 0.683211 28.4686 1.52502V5.82966C28.4686 6.67147 29.1521 7.35468 29.9942 7.35468Z" fill="#F59B50"/>
<path d="M20.5337 12.4911C21.925 13.9185 24.1096 11.8119 22.7264 10.3703C22.6837 10.3174 19.6163 7.26734 19.5736 7.21854C18.16 5.81552 16.012 7.95869 17.4175 9.37391L20.5337 12.4911Z" fill="#F59B50"/>
<path d="M39.4179 12.5301C39.4667 12.4874 42.5239 9.41901 42.5707 9.37631C43.8847 7.96718 41.8242 5.90738 40.4146 7.22094L37.2984 10.3361C35.8684 11.7269 37.9757 13.9107 39.4179 12.5301Z" fill="#F59B50"/>
</svg>
