<svg width="79" height="62" viewBox="0 0 79 62" fill="none" xmlns="http://www.w3.org/2000/svg">
<path d="M71.583 48.2271V39.2873C71.5999 30.8147 68.2161 22.6859 62.1845 16.7078C61.387 15.9262 60.5505 15.1854 59.6763 14.4894C59.6429 14.4585 59.6072 14.4295 59.5701 14.4024C56.2596 11.7597 52.4571 9.79424 48.3806 8.61929C47.6469 3.73566 43.0741 0.369375 38.1672 1.09951C34.2617 1.68137 31.1956 4.73241 30.6119 8.61929C16.8803 12.5595 7.42262 25.0639 7.41698 39.2873V48.2271C3.87246 48.2271 1 51.0868 1 54.6135C1 58.1407 3.87246 61 7.41698 61H71.583C75.1275 61 78 58.1407 78 54.6135C78 51.0868 75.1275 48.2271 71.583 48.2271ZM69.0165 39.2873V48.2271H51.2629C51.4518 47.794 51.6163 47.351 51.7559 46.8987C51.7841 46.8061 51.8034 46.7112 51.8292 46.6181C51.9585 46.1667 52.0618 45.7093 52.1394 45.2467C52.1638 45.097 52.1897 44.9492 52.2085 44.7995C52.3542 43.8061 52.3725 42.7986 52.2625 41.8004C52.2475 41.6573 52.2174 41.5184 52.1977 41.3748C52.1572 41.0848 52.1178 40.7938 52.0586 40.5081C52.0228 40.3378 51.9711 40.1736 51.9303 40.0043C51.8659 39.7489 51.802 39.4935 51.7249 39.2513C51.668 39.0735 51.5966 38.9014 51.5322 38.7251C51.4476 38.4949 51.3644 38.2629 51.2657 38.0375C51.1886 37.8593 51.0989 37.6881 51.0091 37.5127C50.9038 37.2999 50.8 37.0866 50.683 36.8742C50.5843 36.7007 50.4762 36.5323 50.3699 36.363C50.2416 36.1656 50.1209 35.9687 49.985 35.7774C49.8671 35.6113 49.7411 35.45 49.6156 35.2891C49.4728 35.1081 49.329 34.9266 49.1762 34.7512C49.0404 34.5968 48.8975 34.4471 48.7542 34.2979C48.6602 34.2011 48.577 34.0978 48.4793 34.0028V11.3032C51.723 12.3415 54.7618 13.929 57.4627 15.9955V32.9008C57.4627 33.6057 58.0375 34.1782 58.7458 34.1782C59.455 34.1782 60.0293 33.6057 60.0293 32.9008V18.1999C60.1402 18.3056 60.2567 18.4057 60.3658 18.5142C65.9171 24.0134 69.0311 31.4915 69.0165 39.2873ZM36.6073 52.9068C31.1749 51.2894 28.0896 45.5951 29.7152 40.1886C31.0104 35.8812 34.9826 32.9228 39.5 32.9008C39.8168 32.9008 40.1307 32.9153 40.4437 32.9438C42.3161 33.1146 44.1057 33.797 45.6138 34.9163C45.8634 35.1024 46.1059 35.3003 46.3418 35.5103C50.5636 39.2765 50.9179 45.7364 47.1333 49.9385C45.1885 52.0976 42.4138 53.3334 39.5 53.3362C38.5196 53.3413 37.544 53.1968 36.6073 52.9068ZM39.5 3.52472C41.2051 3.51723 42.841 4.19404 44.038 5.4022C45.2017 6.56078 45.8747 8.12068 45.917 9.75916C45.917 9.80874 45.917 32.0608 45.917 32.0608C45.8512 32.0233 45.7793 31.9962 45.7125 31.9607C45.3596 31.7642 44.9982 31.586 44.6278 31.4256C44.5141 31.376 44.4023 31.3231 44.2885 31.2778C43.8327 31.093 43.3674 30.9349 42.8932 30.8049C42.8124 30.782 42.7287 30.7679 42.6483 30.7474C42.2395 30.6445 41.8254 30.5621 41.4086 30.5009C41.2737 30.4803 41.1402 30.4616 41.0039 30.4447C40.5053 30.3825 40.0029 30.3493 39.5 30.3465C38.9967 30.3503 38.4943 30.383 37.9952 30.4447C37.8598 30.4616 37.7263 30.4803 37.5929 30.5009C37.1736 30.5631 36.7577 30.6449 36.3484 30.7488C36.2685 30.7679 36.1876 30.782 36.1077 30.8035C35.6331 30.9349 35.1664 31.0935 34.7091 31.2787C34.5977 31.3231 34.4892 31.3746 34.3773 31.4232C34.0042 31.5846 33.639 31.7647 33.2813 31.9635C33.217 31.999 33.153 32.0233 33.084 32.0608C33.084 32.0608 33.084 9.72033 33.0948 9.65158C33.2174 6.22308 36.0528 3.51068 39.5 3.52472ZM9.98349 39.2873C9.96986 31.3348 13.2141 23.721 18.967 18.2022V32.9008C18.967 33.6057 19.5413 34.1782 20.25 34.1782C20.9592 34.1782 21.5335 33.6057 21.5335 32.9008V16.0118C24.2288 13.9323 27.269 12.3378 30.5165 11.3003V34.007C30.4164 34.1038 30.3299 34.2123 30.2317 34.3134C30.0959 34.4556 29.9596 34.5968 29.8304 34.7456C29.6701 34.9289 29.5183 35.1183 29.3693 35.3083C29.2499 35.4617 29.1306 35.6137 29.0192 35.7722C28.8763 35.9715 28.7471 36.1773 28.6174 36.3836C28.5163 36.5449 28.4134 36.7044 28.3194 36.8705C28.1977 37.0866 28.0896 37.3074 27.981 37.5295C27.8988 37.697 27.8128 37.8616 27.7371 38.0328C27.6356 38.2653 27.551 38.5024 27.4636 38.7391C27.4006 38.9089 27.3353 39.0759 27.2761 39.2499C27.1966 39.5052 27.1341 39.7606 27.0697 40.016C27.0274 40.182 26.9772 40.3458 26.9414 40.5132C26.8822 40.799 26.8427 41.089 26.8023 41.379C26.7826 41.5221 26.7525 41.6624 26.7375 41.806C26.6275 42.8032 26.6458 43.8103 26.7915 44.8033C26.8108 44.9543 26.8362 45.1022 26.8606 45.2532C26.9382 45.714 27.0415 46.17 27.1698 46.6195C27.1966 46.714 27.2159 46.8113 27.2455 46.9053C27.3842 47.3548 27.5482 47.7963 27.7371 48.2271H9.98349V39.2873ZM74.3145 57.3189C73.5893 58.0388 72.6076 58.4438 71.583 58.4457H7.41698C5.29036 58.4457 3.56651 56.7296 3.56651 54.6135C3.56651 52.497 5.29036 50.7819 7.41698 50.7819H29.2335C29.3308 50.9096 29.4436 51.0241 29.5451 51.15C29.6926 51.3314 29.8416 51.5115 29.9981 51.6837C30.188 51.8918 30.383 52.0882 30.587 52.2824C30.7529 52.4433 30.9174 52.6037 31.0918 52.7538C31.3032 52.9381 31.5251 53.1079 31.7483 53.2763C31.9292 53.4133 32.1078 53.5523 32.2953 53.6785C32.5303 53.8385 32.7742 53.9798 33.0191 54.1229C33.2113 54.2342 33.404 54.3516 33.5967 54.4526C33.8533 54.5803 34.1212 54.6991 34.3886 54.8151C34.586 54.9012 34.773 54.9943 34.9812 55.071C35.266 55.1767 35.5588 55.2604 35.8511 55.347C36.0462 55.404 36.2361 55.4742 36.4353 55.5205C36.7648 55.6009 37.1027 55.6477 37.4396 55.708C37.6098 55.7352 37.7733 55.7759 37.9444 55.7964C38.9746 55.9237 40.017 55.9237 41.0471 55.7964C41.2182 55.7759 41.3822 55.7352 41.55 55.708C41.8893 55.6533 42.2268 55.6009 42.5567 55.5205C42.756 55.4718 42.9411 55.4031 43.1404 55.3456C43.4332 55.2595 43.7255 55.1767 44.0108 55.071C44.2133 54.9943 44.4084 54.9007 44.6076 54.8151C44.8727 54.7019 45.1387 54.5892 45.3939 54.4564C45.5946 54.354 45.7788 54.2351 45.9767 54.1229C46.2196 53.9812 46.4612 53.8408 46.6953 53.6823C46.8837 53.5546 47.0637 53.4138 47.247 53.2758C47.4679 53.1088 47.6888 52.9405 47.8988 52.7571C48.0751 52.6051 48.2405 52.4447 48.4125 52.2824C48.6127 52.0896 48.8092 51.8988 48.9962 51.6883C49.1541 51.5148 49.3041 51.3338 49.4535 51.1495C49.5546 51.0218 49.6673 50.9133 49.7637 50.7842H71.583C73.7092 50.7819 75.4349 52.4952 75.4377 54.6117C75.4387 55.6276 75.0345 56.6019 74.3145 57.3213V57.3189Z" fill="#F59B50" stroke="#F59B50"/>
<path d="M45.902 47.3687C48.2561 43.8504 47.2978 39.0982 43.7622 36.7553C40.2266 34.4134 35.4517 35.3666 33.0986 38.8859C30.7445 42.4046 31.7028 47.1568 35.2384 49.4988C36.5012 50.3356 37.983 50.7818 39.5001 50.7818C42.076 50.7916 44.4827 49.5081 45.902 47.3687ZM35.2346 45.9552C33.6635 43.6105 34.3003 40.4425 36.6563 38.8793C39.0122 37.3161 42.1954 37.9499 43.7665 40.2942C45.3366 42.6394 44.7003 45.8074 42.3439 47.3706C41.5017 47.9295 40.5124 48.2279 39.5001 48.2279C37.7842 48.2336 36.1811 47.3795 35.2346 45.9552Z" fill="#F59B50" stroke="#F59B50"/>
</svg>
