<svg width="62" height="62" viewBox="0 0 62 62" fill="none" xmlns="http://www.w3.org/2000/svg">
<path d="M60.9998 6.958C61.0034 6.14316 60.6791 5.36109 60.0998 4.78802L57.2119 1.90004C56.6415 1.32341 55.8639 0.99931 55.0528 1H55.0429C54.2367 1.00049 53.4646 1.32479 52.8998 1.90004L39.8 14.9999H14.0002V4.00003C14.0002 2.3431 12.657 1 11.0002 1H9.00018C4.58401 1.00494 1.00518 4.58376 1.00024 8.99994V53.2507C1.2505 57.6332 4.9008 61.0452 9.29023 60.9995H57.9999C59.6567 60.9995 60.9998 59.6565 60.9998 57.9996V17.9999C60.9998 16.3431 59.6567 14.9999 57.9999 14.9999H54.1999L60.0998 9.09995C60.6739 8.53487 60.998 7.76356 60.9998 6.958ZM36.78 25.9999C36.5684 26.0287 36.3556 25.9543 36.208 25.7999C36.0592 25.652 35.9856 25.4445 36.008 25.2359L36.387 21.8359C36.4029 21.7648 36.4229 21.6946 36.447 21.6259L40.386 25.5649C40.321 25.5789 40.262 25.6109 40.194 25.6189L36.78 25.9999ZM42.0189 24.3668L37.6429 19.9898L48.5429 9.08997L52.9168 13.4629L42.0189 24.3668ZM49.9529 7.67491L51.4359 6.19291L55.8079 10.5659L54.3259 12.0488L49.9529 7.67491ZM3.00023 8.99994C3.00359 5.68766 5.6879 3.00324 9.00018 2.99999H11.0002C11.5524 2.99999 12.0002 3.44769 12.0002 3.99993V43.9996C12.0002 44.5519 11.5525 44.9996 11.0002 44.9996H9.00018C6.70285 44.9989 4.51658 45.9878 3.00023 47.7135V8.99994ZM57.9999 16.9999C58.5521 16.9999 58.9999 17.4476 58.9999 17.9999V57.9996C58.9999 58.5519 58.5522 58.9997 57.9999 58.9997H9.29023C5.989 59.0551 3.22344 56.5138 3.00023 53.2197V52.9996C3.00359 49.6873 5.6879 47.003 9.00018 46.9997H11.0002C12.657 46.9997 14.0001 45.6566 14.0001 43.9997V16.9999H37.7999L35.5289 19.2709C34.8949 19.8956 34.4961 20.72 34.4 21.6048L34.021 25.0118C33.9898 25.3441 34.0214 25.6791 34.114 25.9998H17.0001C16.4479 25.9998 16.0001 26.4475 16.0001 26.9998C16.0001 27.552 16.4478 27.9997 17.0001 27.9997H20.0001V54.9996C20.0001 55.5518 20.4478 55.9996 21.0002 55.9996C21.5525 55.9996 22.0002 55.5519 22.0002 54.9996V40.9997H33.0001V48.9996H26.0001C25.4479 48.9996 25.0002 49.4473 25.0002 49.9996C25.0002 50.5518 25.4479 50.9996 26.0001 50.9996H45.9999C47.1045 50.9996 47.9999 50.1042 47.9999 48.9996V33.9998C47.9999 33.4476 47.5522 32.9998 47 32.9998C46.4477 32.9998 45.9999 33.4475 45.9999 33.9998V38.9997H22.0001V27.9998H36.708C36.8056 28 36.9031 27.9947 37.0001 27.9839L40.417 27.5949C41.2843 27.4965 42.0938 27.1111 42.717 26.4999L52.2049 17L57.9999 16.9999ZM45.9999 40.9997V48.9996H35V40.9997H45.9999ZM58.6898 7.68192L57.2218 9.15088L52.8499 4.77893L54.3189 3.30997C54.5111 3.11273 54.7745 3.00097 55.0499 2.99999C55.3302 3.00068 55.5986 3.11381 55.7948 3.31402L58.6869 6.20002C58.888 6.39806 59.0008 6.66875 58.9999 6.95099C58.999 7.22642 58.8873 7.48991 58.6898 7.68192Z" fill="#007AFF" stroke="#007AFF"/>
</svg>
