<svg width="60" height="60" viewBox="0 0 60 60" fill="none" xmlns="http://www.w3.org/2000/svg">
<path d="M30 59.75H7.03125C3.29229 59.75 0.25 56.7077 0.25 52.9688V30C0.25 26.261 3.29229 23.2188 7.03125 23.2188H21.4307C22.587 23.2188 23.5244 24.1561 23.5244 25.3125C23.5244 26.4689 22.587 27.4062 21.4307 27.4062H7.03125C5.60084 27.4062 4.4375 28.5696 4.4375 30V52.9688C4.4375 54.3992 5.60084 55.5625 7.03125 55.5625H30C31.4304 55.5625 32.5938 54.3992 32.5938 52.9688V38.5693C32.5938 37.413 33.5311 36.4756 34.6875 36.4756C35.8439 36.4756 36.7812 37.413 36.7812 38.5693V52.9688C36.7812 56.7077 33.739 59.75 30 59.75Z" fill="#9C69DF" stroke="white" stroke-width="0.5"/>
<path d="M2.34375 18.0312C1.18737 18.0312 0.25 17.0939 0.25 15.9375V9.375C0.25 4.3437 4.3437 0.25 9.375 0.25H15.9375C17.0939 0.25 18.0312 1.18737 18.0312 2.34375C18.0312 3.50013 17.0939 4.4375 15.9375 4.4375H9.375C6.65224 4.4375 4.4375 6.65224 4.4375 9.375V15.9375C4.4375 17.0939 3.50013 18.0312 2.34375 18.0312Z" fill="#9C69DF" stroke="white" stroke-width="0.5"/>
<path d="M34.6875 4.4375H25.3125C24.1561 4.4375 23.2188 3.50013 23.2188 2.34375C23.2188 1.18737 24.1561 0.25 25.3125 0.25H34.6875C35.8439 0.25 36.7812 1.18737 36.7812 2.34375C36.7812 3.50013 35.8439 4.4375 34.6875 4.4375Z" fill="#9C69DF" stroke="white" stroke-width="0.5"/>
<path d="M57.6562 18.0312C56.4999 18.0312 55.5625 17.0939 55.5625 15.9375V9.375C55.5625 6.65224 53.3478 4.4375 50.625 4.4375H44.0625C42.9061 4.4375 41.9688 3.50013 41.9688 2.34375C41.9688 1.18737 42.9061 0.25 44.0625 0.25H50.625C55.6563 0.25 59.75 4.3437 59.75 9.375V15.9375C59.75 17.0939 58.8126 18.0312 57.6562 18.0312Z" fill="#9C69DF" stroke="white" stroke-width="0.5"/>
<path d="M50.625 59.75H44.0625C42.9061 59.75 41.9688 58.8126 41.9688 57.6562C41.9688 56.4999 42.9061 55.5625 44.0625 55.5625H50.625C53.3478 55.5625 55.5625 53.3478 55.5625 50.625V44.0625C55.5625 42.9061 56.4999 41.9688 57.6562 41.9688C58.8126 41.9688 59.75 42.9061 59.75 44.0625V50.625C59.75 55.6563 55.6563 59.75 50.625 59.75Z" fill="#9C69DF" stroke="white" stroke-width="0.5"/>
<path d="M57.6562 36.7812C56.4999 36.7812 55.5625 35.8439 55.5625 34.6875V25.3125C55.5625 24.1561 56.4999 23.2188 57.6562 23.2188C58.8126 23.2188 59.75 24.1561 59.75 25.3125V34.6875C59.75 35.8439 58.8126 36.7812 57.6562 36.7812Z" fill="#9C69DF" stroke="white" stroke-width="0.5"/>
<path d="M42.7997 14.2393L43.2265 13.8125H42.623H41.25C40.0936 13.8125 39.1562 12.8751 39.1562 11.7188C39.1562 10.5624 40.0936 9.625 41.25 9.625H48.2812C49.4376 9.625 50.375 10.5624 50.375 11.7188V18.75C50.375 19.9064 49.4376 20.8438 48.2812 20.8438C47.1249 20.8438 46.1875 19.9064 46.1875 18.75V17.377V16.7735L45.7607 17.2003L21.419 41.542L20.9922 41.9688H21.5958H22.9688C24.1251 41.9688 25.0625 42.9061 25.0625 44.0625C25.0625 45.2189 24.1251 46.1562 22.9688 46.1562H15.9375C14.7811 46.1562 13.8438 45.2189 13.8438 44.0625V37.0312C13.8438 35.8749 14.7811 34.9375 15.9375 34.9375C17.0939 34.9375 18.0312 35.8749 18.0312 37.0312V38.4042V39.0078L18.458 38.581L42.7997 14.2393Z" fill="#9C69DF" stroke="white" stroke-width="0.5"/>
</svg>
