<svg width="24" height="24" viewBox="0 0 24 24" fill="none" xmlns="http://www.w3.org/2000/svg">
<path d="M24 2C24 2.6 23.8 3 23.4 3.4L3.4 23.4C2.6 24.2 1.4 24.2 0.6 23.4C-0.2 22.6 -0.2 21.4 0.6 20.6L20.6 0.599996C21.4 -0.200006 22.6 -0.200006 23.4 0.599996C23.8 0.999995 24 1.4 24 2Z" fill="white"/>
<path d="M24 2L24 20C24 21.2 23.2 22 22 22C20.8 22 20 21.2 20 20L20 4L4 4C2.8 4 2 3.2 2 2C2 0.799999 2.8 -3.49691e-08 4 -8.74228e-08L22 -8.74228e-07C23.2 -9.26681e-07 24 0.799998 24 2Z" fill="white"/>
</svg>
