<svg width="186" height="60" viewBox="0 0 186 60" fill="none" xmlns="http://www.w3.org/2000/svg">
<path d="M87.8236 21.3766V30.1049H93.9157C96.2786 30.1049 97.7871 30.0361 98.4233 29.9085C99.4006 29.7275 100.197 29.2949 100.81 28.6054C101.423 27.9086 101.734 26.9918 101.734 25.8326C101.734 24.8471 101.499 24.0218 101.021 23.3395C100.552 22.6571 99.8621 22.1576 98.9681 21.8463C98.074 21.5359 96.1265 21.3766 93.1338 21.3766H87.8227H87.8236ZM87.8236 8.4657V15.9668H92.1275C94.6804 15.9668 96.2713 15.9288 96.893 15.8528C98.0151 15.7243 98.9011 15.3379 99.5445 14.6936C100.189 14.0501 100.506 13.2085 100.506 12.1633C100.506 11.1181 100.227 10.3444 99.6739 9.71544C99.121 9.0865 98.2948 8.70732 97.2043 8.57882C96.5518 8.5028 94.6813 8.4657 91.5972 8.4657H87.8236ZM81.2328 3.05591H94.2496C96.8333 3.05591 98.75 3.16269 100.015 3.37445C101.287 3.59435 102.417 4.0414 103.417 4.71559C104.417 5.39792 105.25 6.29925 105.917 7.42863C106.584 8.5571 106.918 9.83037 106.918 11.2321C106.918 12.7479 106.509 14.1488 105.691 15.4148C104.873 16.6872 103.759 17.6347 102.357 18.2717C104.335 18.8554 105.849 19.84 106.918 21.2336C107.979 22.6282 108.509 24.2643 108.509 26.1511C108.509 27.6362 108.169 29.0759 107.479 30.4777C106.79 31.8786 105.849 33.0007 104.652 33.8414C103.463 34.6749 101.992 35.1907 100.243 35.3871C99.1518 35.5002 96.5075 35.5771 92.3176 35.607H81.2328V3.05591Z" fill="#35456A"/>
<path d="M116.109 8.96636V4.82983H130.429V8.96636H116.109ZM128.019 21.832C127.974 20.0212 127.511 18.6421 126.625 17.7018C125.738 16.7544 124.662 16.2856 123.39 16.2856C122.033 16.2856 120.912 16.7851 120.025 17.7779C119.139 18.7706 118.708 20.1271 118.722 21.832H128.019ZM127.656 28.1513L133.884 29.1965C133.088 31.477 131.823 33.2127 130.103 34.409C128.375 35.5981 126.215 36.1972 123.632 36.1972C119.534 36.1972 116.495 34.8561 114.533 32.1747C112.98 30.0227 112.199 27.3097 112.199 24.0293C112.199 20.1199 113.223 17.0512 115.261 14.8386C117.299 12.6187 119.882 11.5129 123.004 11.5129C126.505 11.5129 129.27 12.6721 131.301 14.9915C133.324 17.31 134.294 20.8637 134.202 25.6518H118.609C118.655 27.5006 119.155 28.9404 120.118 29.9712C121.072 31.001 122.27 31.5168 123.694 31.5168C124.671 31.5168 125.489 31.2517 126.149 30.7214C126.816 30.1911 127.316 29.335 127.657 28.1531L127.656 28.1513Z" fill="#35456A"/>
<path d="M139.075 35.6061V3.05591H145.302V20.3242L152.598 12.0122H160.281L152.235 20.6346L160.872 35.6061H154.145L148.188 24.9611L145.302 28.0524V35.6061H139.075Z" fill="#35456A"/>
<path d="M177.587 24.3322C176.791 24.5974 175.527 24.9159 173.791 25.2869C172.064 25.658 170.927 26.0218 170.397 26.3702C169.586 26.9539 169.177 27.6814 169.177 28.5683C169.177 29.4551 169.503 30.1972 170.155 30.8334C170.806 31.4696 171.632 31.7881 172.64 31.7881C173.761 31.7881 174.837 31.4171 175.86 30.6823C176.61 30.1139 177.11 29.4316 177.345 28.6135C177.504 28.0832 177.587 27.0679 177.587 25.5756V24.3331V24.3322ZM169.222 19.2862L163.584 18.2862C164.221 15.9831 165.32 14.2782 166.873 13.1724C168.426 12.0665 170.737 11.5127 173.797 11.5127C176.578 11.5127 178.654 11.8385 180.018 12.4982C181.375 13.1579 182.337 13.9904 182.89 15.0058C183.443 16.0212 183.724 17.8772 183.724 20.5902L183.632 27.8633C183.632 29.932 183.731 31.4623 183.928 32.4478C184.125 33.4324 184.497 34.4858 185.041 35.607H178.859C178.7 35.197 178.495 34.5916 178.26 33.788C178.161 33.417 178.085 33.1745 178.04 33.0614C176.979 34.1066 175.843 34.8876 174.631 35.4097C173.419 35.9328 172.131 36.1979 170.76 36.1979C168.342 36.1979 166.433 35.5382 165.038 34.2206C163.644 32.9093 162.947 31.2424 162.947 29.2271C162.947 27.9013 163.266 26.7113 163.902 25.6661C164.538 24.6281 165.424 23.8245 166.576 23.2716C167.72 22.7187 169.372 22.2336 171.531 21.8174C174.441 21.2717 176.464 20.7568 177.586 20.2871V19.6582C177.586 18.4455 177.29 17.5822 176.699 17.0591C176.101 16.5433 174.979 16.2863 173.335 16.2863C172.221 16.2863 171.357 16.5062 170.736 16.9524C170.107 17.3922 169.608 18.1722 169.22 19.2862H169.222Z" fill="#35456A"/>
<path d="M177.475 50.5296H178.654L180.573 53.5105L182.49 50.5296H183.67V56.8335H182.572V52.3132L180.582 55.2851H180.546L178.574 52.3313V56.8344H177.476V50.5305L177.475 50.5296ZM172.594 50.4852H173.621L176.395 56.8344H175.224L174.584 55.3122H171.603L170.955 56.8344H169.819L172.593 50.4852H172.594ZM174.179 54.3304L173.09 51.8092L172.008 54.3304H174.179ZM163.849 50.5296H166.659C167.056 50.5296 167.406 50.5848 167.713 50.6961C168.019 50.8074 168.275 50.9622 168.479 51.1594C168.646 51.3332 168.776 51.535 168.865 51.763C168.956 51.992 169.001 52.2436 169.001 52.5196V52.5377C169.001 52.7956 168.964 53.0282 168.889 53.2354C168.814 53.4426 168.711 53.6263 168.579 53.7847C168.446 53.944 168.289 54.0788 168.105 54.1901C167.923 54.3005 167.72 54.3865 167.498 54.4471L169.2 56.8335H167.894L166.341 54.6363H164.95V56.8335H163.851V50.5296H163.849ZM166.573 53.6544C166.971 53.6544 167.288 53.5603 167.522 53.3693C167.757 53.1802 167.875 52.9223 167.875 52.5965V52.5784C167.875 52.2354 167.761 51.9739 167.532 51.7974C167.303 51.6182 166.98 51.5305 166.565 51.5305H164.949V53.6553H166.574L166.573 53.6544ZM159.779 56.9412C159.287 56.9412 158.84 56.8597 158.437 56.6941C158.034 56.5285 157.691 56.3014 157.406 56.01C157.121 55.7186 156.9 55.3765 156.745 54.9829C156.588 54.5892 156.51 54.1612 156.51 53.6987V53.6806C156.51 53.2426 156.59 52.8254 156.75 52.4291C156.911 52.0327 157.136 51.6852 157.426 51.3893C157.716 51.0916 158.061 50.8554 158.46 50.6816C158.859 50.5079 159.296 50.4201 159.77 50.4201C160.046 50.4201 160.297 50.44 160.522 50.4789C160.747 50.5178 160.956 50.573 161.148 50.6454C161.34 50.7169 161.522 50.8065 161.693 50.9115C161.865 51.0165 162.03 51.1377 162.192 51.2762L161.49 52.1142C161.371 52.0119 161.247 51.9196 161.121 51.8354C160.995 51.7513 160.863 51.6807 160.725 51.6237C160.586 51.5658 160.435 51.5214 160.269 51.4879C160.105 51.4545 159.923 51.4382 159.725 51.4382C159.437 51.4382 159.168 51.4979 158.918 51.6182C158.669 51.7386 158.453 51.8997 158.269 52.1015C158.087 52.3024 157.943 52.5377 157.838 52.8101C157.733 53.0797 157.679 53.3666 157.679 53.667V53.6851C157.679 54.0091 157.731 54.3114 157.833 54.5865C157.935 54.8643 158.078 55.1023 158.268 55.2996C158.458 55.4978 158.681 55.6552 158.942 55.7702C159.203 55.8842 159.495 55.9412 159.819 55.9412C160.117 55.9412 160.398 55.8978 160.658 55.81C160.918 55.7213 161.144 55.6064 161.335 55.4607V54.2752H159.724V53.3114H162.408V55.9593C162.251 56.0914 162.079 56.2172 161.89 56.3376C161.701 56.4579 161.497 56.5629 161.278 56.6525C161.059 56.743 160.823 56.8136 160.572 56.8642C160.319 56.9158 160.055 56.9412 159.779 56.9412ZM152.142 56.9412C151.656 56.9412 151.213 56.8561 150.81 56.6842C150.407 56.5131 150.062 56.2815 149.774 55.9864C149.486 55.6923 149.261 55.3485 149.099 54.9557C148.937 54.563 148.856 54.144 148.856 53.6987V53.6806C148.856 53.2363 148.937 52.8173 149.099 52.4246C149.261 52.0309 149.489 51.6861 149.783 51.3893C150.077 51.0916 150.425 50.8554 150.827 50.6816C151.229 50.5079 151.674 50.4201 152.16 50.4201C152.646 50.4201 153.09 50.5061 153.493 50.6771C153.896 50.8481 154.241 51.0816 154.529 51.3757C154.817 51.6698 155.042 52.0137 155.204 52.4065C155.365 52.8001 155.447 53.2191 155.447 53.6625V53.6806C155.447 54.125 155.365 54.5439 155.204 54.9376C155.042 55.3304 154.813 55.6751 154.519 55.9738C154.225 56.2697 153.877 56.5068 153.475 56.6805C153.072 56.8552 152.628 56.9412 152.142 56.9412ZM152.16 55.924C152.471 55.924 152.756 55.8661 153.017 55.7484C153.277 55.6317 153.499 55.4724 153.685 55.2715C153.87 55.0697 154.015 54.8344 154.118 54.5648C154.224 54.2951 154.277 54.0064 154.277 53.6996V53.6815C154.277 53.3748 154.224 53.0852 154.118 52.8128C154.015 52.5386 153.868 52.3024 153.68 52.1006C153.491 51.9006 153.266 51.7395 153.004 51.6191C152.739 51.4988 152.452 51.4391 152.142 51.4391C151.832 51.4391 151.547 51.497 151.285 51.6146C151.025 51.7323 150.803 51.8906 150.617 52.0915C150.433 52.2933 150.287 52.5286 150.183 52.7983C150.078 53.068 150.024 53.3567 150.024 53.6625V53.6806C150.024 53.9874 150.078 54.2761 150.183 54.5494C150.287 54.8227 150.433 55.0598 150.621 55.2607C150.81 55.4625 151.035 55.6226 151.298 55.743C151.562 55.8634 151.849 55.9231 152.159 55.9231L152.16 55.924ZM142.623 50.5296H145.433C145.829 50.5296 146.179 50.5848 146.486 50.6961C146.793 50.8074 147.048 50.9622 147.252 51.1594C147.419 51.3332 147.548 51.535 147.638 51.763C147.729 51.992 147.774 52.2436 147.774 52.5196V52.5377C147.774 52.7956 147.736 53.0282 147.662 53.2354C147.586 53.4426 147.483 53.6263 147.351 53.7847C147.219 53.944 147.061 54.0788 146.878 54.1901C146.695 54.3005 146.492 54.3865 146.271 54.4471L147.973 56.8335H146.667L145.114 54.6363H143.722V56.8335H142.624V50.5296H142.623ZM145.347 53.6544C145.745 53.6544 146.062 53.5603 146.295 53.3693C146.531 53.1802 146.648 52.9223 146.648 52.5965V52.5784C146.648 52.2354 146.534 51.9739 146.304 51.7974C146.076 51.6182 145.754 51.5305 145.339 51.5305H143.721V53.6553H145.347V53.6544ZM136.608 50.5296H139.093C139.459 50.5296 139.79 50.5794 140.088 50.678C140.385 50.7766 140.637 50.9196 140.845 51.106C141.052 51.2916 141.21 51.5133 141.322 51.7721C141.432 52.03 141.488 52.3187 141.488 52.6363V52.6544C141.488 53.0082 141.423 53.3196 141.29 53.5865C141.157 53.8544 140.977 54.077 140.749 54.258C140.519 54.4381 140.252 54.5747 139.945 54.6679C139.638 54.7611 139.311 54.8073 138.961 54.8073H137.706V56.8335H136.608V50.5296ZM138.999 53.8082C139.42 53.8082 139.754 53.7032 139.997 53.4915C140.241 53.2815 140.362 53.0092 140.362 52.6788V52.6607C140.362 52.287 140.239 52.0047 139.992 51.8155C139.745 51.6255 139.414 51.5305 138.999 51.5305H137.706V53.8091H138.999V53.8082ZM126.792 50.5296H127.817L131.186 54.8878V50.5296H132.286V56.8335H131.36L127.891 52.3485V56.8335H126.793V50.5296H126.792ZM122.145 56.9412C121.658 56.9412 121.214 56.8561 120.812 56.6842C120.409 56.5131 120.064 56.2815 119.776 55.9864C119.488 55.6923 119.262 55.3485 119.1 54.9557C118.938 54.563 118.857 54.144 118.857 53.6987V53.6806C118.857 53.2363 118.938 52.8173 119.1 52.4246C119.262 52.0309 119.491 51.6861 119.785 51.3893C120.079 51.0916 120.427 50.8554 120.829 50.6816C121.232 50.5079 121.676 50.4201 122.162 50.4201C122.648 50.4201 123.092 50.5061 123.495 50.6771C123.897 50.8481 124.242 51.0816 124.531 51.3757C124.819 51.6698 125.044 52.0137 125.206 52.4065C125.368 52.8001 125.45 53.2191 125.45 53.6625V53.6806C125.45 54.125 125.368 54.5439 125.206 54.9376C125.044 55.3304 124.816 55.6751 124.522 55.9738C124.228 56.2697 123.88 56.5068 123.477 56.6805C123.075 56.8552 122.63 56.9412 122.144 56.9412H122.145ZM122.163 55.924C122.473 55.924 122.758 55.8661 123.02 55.7484C123.279 55.6317 123.501 55.4724 123.688 55.2715C123.872 55.0697 124.018 54.8344 124.121 54.5648C124.226 54.2951 124.279 54.0064 124.279 53.6996V53.6815C124.279 53.3748 124.226 53.0852 124.121 52.8128C124.017 52.5386 123.87 52.3024 123.683 52.1006C123.494 51.9006 123.269 51.7395 123.006 51.6191C122.742 51.4988 122.455 51.4391 122.145 51.4391C121.834 51.4391 121.549 51.497 121.288 51.6146C121.028 51.7323 120.805 51.8906 120.62 52.0915C120.435 52.2933 120.29 52.5286 120.186 52.7983C120.081 53.068 120.029 53.3567 120.029 53.6625V53.6806C120.029 53.9874 120.081 54.2761 120.186 54.5494C120.29 54.8227 120.437 55.0598 120.624 55.2607C120.813 55.4625 121.039 55.6226 121.3 55.743C121.565 55.8634 121.852 55.9231 122.162 55.9231L122.163 55.924ZM116.345 50.5296H117.443V56.8335H116.345V50.5296ZM112.734 56.9231C112.248 56.9231 111.783 56.8407 111.338 56.676C110.894 56.5104 110.483 56.257 110.104 55.914L110.77 55.1222C111.077 55.3865 111.386 55.5892 111.698 55.7303C112.009 55.8715 112.364 55.9421 112.76 55.9421C113.102 55.9421 113.374 55.8706 113.576 55.7258C113.777 55.581 113.877 55.3892 113.877 55.1494V55.1313C113.877 55.0172 113.858 54.9168 113.819 54.8299C113.78 54.7421 113.708 54.6598 113.603 54.582C113.496 54.5032 113.352 54.4308 113.169 54.3657C112.985 54.2996 112.746 54.2336 112.452 54.1675C112.113 54.0888 111.815 54.0001 111.553 53.9014C111.293 53.8028 111.071 53.6824 110.894 53.5422C110.717 53.401 110.58 53.2272 110.487 53.0245C110.394 52.82 110.348 52.5748 110.348 52.2861V52.268C110.348 51.9983 110.402 51.7504 110.508 51.5259C110.617 51.3006 110.763 51.1079 110.951 50.9495C111.14 50.7902 111.364 50.6653 111.628 50.5757C111.892 50.4862 112.179 50.4409 112.492 50.4409C112.954 50.4409 113.37 50.5088 113.739 50.6436C114.108 50.7785 114.455 50.9757 114.778 51.2336L114.184 52.0716C113.896 51.8617 113.611 51.7015 113.329 51.5893C113.046 51.4789 112.76 51.4228 112.473 51.4228C112.149 51.4228 111.896 51.4943 111.716 51.6382C111.536 51.782 111.446 51.9594 111.446 52.1694V52.1875C111.446 52.3078 111.467 52.4146 111.51 52.5069C111.552 52.6001 111.628 52.6843 111.74 52.7594C111.852 52.8345 112.006 52.906 112.2 52.9711C112.397 53.0372 112.645 53.106 112.946 53.1784C113.276 53.2625 113.57 53.3557 113.826 53.458C114.081 53.5603 114.294 53.6842 114.462 53.8318C114.63 53.9793 114.759 54.1503 114.846 54.3458C114.933 54.5403 114.978 54.7675 114.978 55.0254V55.0444C114.978 55.3385 114.921 55.6018 114.813 55.8371C114.702 56.0706 114.549 56.2688 114.351 56.4317C114.157 56.5937 113.92 56.7167 113.645 56.8009C113.369 56.8851 113.064 56.9267 112.735 56.9267L112.734 56.9231ZM106.285 56.933C105.878 56.933 105.508 56.8751 105.178 56.7575C104.848 56.6407 104.566 56.4652 104.332 56.2308C104.097 55.9964 103.917 55.7068 103.791 55.3611C103.665 55.0163 103.602 54.6154 103.602 54.1593V50.5305H104.701V54.115C104.701 54.7032 104.843 55.1503 105.127 55.457C105.41 55.7629 105.803 55.9159 106.304 55.9159C106.804 55.9159 107.188 55.7693 107.471 55.4751C107.755 55.181 107.897 54.743 107.897 54.1602V50.5314H108.996V54.1069C108.996 54.5747 108.932 54.9874 108.803 55.3412C108.674 55.695 108.492 55.991 108.258 56.2281C108.024 56.4652 107.741 56.6425 107.407 56.7593C107.074 56.8769 106.7 56.9348 106.285 56.9348V56.933ZM98.1264 50.5296H99.2251V55.8344H102.54V56.8335H98.1273V50.5296H98.1264ZM94.4161 56.9412C93.9546 56.9412 93.5275 56.8579 93.1374 56.6887C92.7474 56.5204 92.4081 56.2914 92.1212 56C91.8343 55.7086 91.609 55.3647 91.4452 54.9693C91.2814 54.5729 91.2009 54.1494 91.2009 53.6987V53.6806C91.2009 53.2309 91.2805 52.8083 91.4407 52.4155C91.6009 52.0228 91.8271 51.6771 92.1158 51.3802C92.4053 51.0825 92.7492 50.849 93.1456 50.6771C93.542 50.5061 93.9791 50.4201 94.4596 50.4201C94.7483 50.4201 95.0107 50.4445 95.2469 50.4925C95.484 50.5405 95.7021 50.6083 95.9003 50.6952C96.0984 50.7821 96.2813 50.8861 96.4496 51.0065C96.6179 51.126 96.7772 51.2581 96.9265 51.4029L96.2143 52.2228C95.9627 51.9884 95.6948 51.8001 95.4134 51.6553C95.1311 51.5115 94.8098 51.4391 94.4496 51.4391C94.1501 51.4391 93.8714 51.497 93.6162 51.6146C93.361 51.7323 93.1411 51.8906 92.9547 52.0915C92.7682 52.2933 92.6243 52.5286 92.5221 52.7983C92.4198 53.068 92.3692 53.3567 92.3692 53.6625V53.6806C92.3692 53.9874 92.4198 54.2761 92.5221 54.5494C92.6243 54.8227 92.7682 55.0616 92.9547 55.2652C93.1411 55.4697 93.3619 55.6308 93.6162 55.7475C93.8714 55.8652 94.1492 55.9231 94.4496 55.9231C94.8342 55.9231 95.1636 55.8498 95.4396 55.7032C95.7157 55.5557 95.9889 55.3566 96.2595 55.1041L96.9708 55.8245C96.8079 55.9982 96.6387 56.153 96.4622 56.2887C96.2858 56.4235 96.0948 56.5403 95.8903 56.6398C95.6858 56.7385 95.4623 56.8136 95.2188 56.8642C94.9754 56.9158 94.7066 56.9412 94.4125 56.9412H94.4161ZM84.3667 50.5296H85.392L88.7611 54.8878V50.5296H89.8606V56.8335H88.934L85.4653 52.3485V56.8335H84.3667V50.5296ZM81.5749 50.5296H82.6735V56.8335H81.5749V50.5296ZM159.608 44.5596L157.104 40.7416H158.41L160.175 43.5334L161.959 40.7416H163.228L160.725 44.5325V47.0455H159.608V44.5596ZM153.466 41.7679H151.468V40.7407H156.583V41.7679H154.583V47.0446H153.466V41.7679ZM149.125 40.7407H150.223V47.0446H149.125V40.7407ZM141.948 40.7407H142.973L146.342 45.0999V40.7407H147.441V47.0446H146.515L143.046 42.5597V47.0446H141.948V40.7407ZM137.715 47.1442C137.308 47.1442 136.938 47.0863 136.608 46.9686C136.277 46.8519 135.995 46.6763 135.761 46.4419C135.527 46.2085 135.347 45.918 135.22 45.5732C135.095 45.2275 135.032 44.8266 135.032 44.3714V40.7416H136.13V44.3262C136.13 44.9144 136.273 45.3614 136.556 45.6682C136.839 45.9741 137.232 46.127 137.732 46.127C138.233 46.127 138.617 45.9795 138.9 45.6854C139.184 45.3913 139.326 44.9533 139.326 44.3705V40.7407H140.424V44.3153C140.424 44.7841 140.36 45.1958 140.231 45.5496C140.102 45.9035 139.921 46.1994 139.686 46.4365C139.452 46.6736 139.17 46.851 138.835 46.9677C138.502 47.0854 138.128 47.1433 137.713 47.1433L137.715 47.1442ZM127.314 40.7407H128.494L130.412 43.7217L132.329 40.7407H133.509V47.0446H132.41V42.5244L130.42 45.4963H130.384L128.412 42.5425V47.0455H127.314V40.7416V40.7407ZM119.498 40.7407H120.677L122.595 43.7217L124.513 40.7407H125.692V47.0446H124.594V42.5244L122.604 45.4963H122.566L120.595 42.5425V47.0455H119.497V40.7416L119.498 40.7407ZM114.85 47.1532C114.363 47.1532 113.92 47.0672 113.517 46.8962C113.114 46.7252 112.769 46.4926 112.481 46.1985C112.193 45.9044 111.968 45.5605 111.806 45.1678C111.643 44.775 111.562 44.356 111.562 43.9117V43.8936C111.562 43.4493 111.643 43.0303 111.806 42.6366C111.968 42.243 112.196 41.8982 112.49 41.6014C112.784 41.3036 113.132 41.0674 113.534 40.8937C113.937 40.7199 114.381 40.6331 114.867 40.6331C115.353 40.6331 115.797 40.719 116.199 40.8901C116.602 41.0611 116.948 41.2937 117.235 41.5878C117.523 41.8819 117.748 42.2258 117.91 42.6185C118.072 43.0122 118.154 43.4312 118.154 43.8755V43.8936C118.154 44.337 118.072 44.756 117.91 45.1497C117.748 45.5424 117.52 45.8881 117.225 46.1858C116.931 46.4827 116.583 46.7188 116.181 46.8926C115.779 47.0672 115.334 47.1541 114.848 47.1541L114.85 47.1532ZM114.869 46.1352C115.179 46.1352 115.464 46.0763 115.726 45.9596C115.985 45.8429 116.207 45.6836 116.394 45.4827C116.578 45.2818 116.724 45.0456 116.827 44.7759C116.933 44.5062 116.986 44.2176 116.986 43.9117V43.8936C116.986 43.5868 116.933 43.2972 116.827 43.0248C116.723 42.7506 116.577 42.5144 116.389 42.3126C116.2 42.1126 115.975 41.9516 115.712 41.8312C115.448 41.7109 115.161 41.6511 114.851 41.6511C114.54 41.6511 114.255 41.709 113.994 41.8267C113.734 41.9434 113.512 42.1027 113.326 42.3036C113.141 42.5054 112.996 42.7407 112.893 43.0104C112.787 43.2809 112.735 43.5687 112.735 43.8755V43.8936C112.735 44.1995 112.788 44.489 112.893 44.7623C112.997 45.0347 113.143 45.2727 113.331 45.4736C113.519 45.6745 113.745 45.8347 114.007 45.9551C114.272 46.0754 114.559 46.1352 114.869 46.1352ZM108.132 47.1532C107.67 47.1532 107.244 47.0691 106.854 46.9007C106.464 46.7324 106.124 46.5035 105.838 46.2121C105.552 45.9207 105.326 45.5768 105.162 45.1813C104.999 44.785 104.918 44.3614 104.918 43.9117V43.8936C104.918 43.4438 104.998 43.0212 105.158 42.6285C105.319 42.2348 105.544 41.89 105.834 41.5923C106.123 41.2946 106.467 41.0611 106.864 40.8901C107.26 40.719 107.698 40.6331 108.179 40.6331C108.467 40.6331 108.73 40.6566 108.967 40.7055C109.204 40.7534 109.421 40.8213 109.619 40.9091C109.817 40.9959 110 41.0991 110.169 41.2195C110.337 41.3389 110.495 41.471 110.646 41.6158L109.933 42.4357C109.681 42.2013 109.415 42.0131 109.132 41.8683C108.85 41.7235 108.529 41.652 108.169 41.652C107.869 41.652 107.59 41.7099 107.335 41.8276C107.08 41.9443 106.86 42.1036 106.673 42.3045C106.487 42.5063 106.342 42.7416 106.241 43.0113C106.139 43.2818 106.088 43.5696 106.088 43.8764V43.8945C106.088 44.2004 106.139 44.49 106.241 44.7632C106.342 45.0356 106.487 45.2745 106.673 45.4782C106.859 45.6827 107.08 45.8438 107.335 45.9605C107.59 46.0772 107.868 46.1361 108.169 46.1361C108.552 46.1361 108.884 46.0628 109.16 45.9162C109.436 45.7686 109.709 45.5696 109.979 45.3171L110.69 46.0374C110.527 46.2112 110.358 46.3668 110.181 46.5017C110.005 46.6365 109.814 46.7532 109.61 46.8528C109.406 46.9514 109.182 47.0265 108.939 47.0781C108.695 47.1288 108.427 47.155 108.132 47.155V47.1532ZM95.9835 40.7407H98.7934C99.1898 40.7407 99.54 40.7959 99.8477 40.9082C100.154 41.0186 100.409 41.1733 100.613 41.3715C100.781 41.5452 100.91 41.747 101 41.9751C101.09 42.204 101.135 42.4556 101.135 42.7316V42.7497C101.135 43.0076 101.097 43.2402 101.022 43.4474C100.947 43.6556 100.844 43.8384 100.712 43.9968C100.58 44.156 100.422 44.2909 100.239 44.4022C100.056 44.5126 99.8531 44.5985 99.6314 44.6592L101.334 47.0455H100.028L98.4739 44.8483H97.083V47.0455H95.9844V40.7416L95.9835 40.7407ZM98.7074 43.8655C99.1056 43.8655 99.4223 43.7714 99.6558 43.5805C99.8911 43.3913 100.01 43.1334 100.01 42.8077V42.7896C100.01 42.4466 99.8956 42.185 99.6658 42.0086C99.4368 41.8294 99.1147 41.7407 98.6993 41.7407H97.0821V43.8655H98.7074ZM91.7502 47.1442C91.342 47.1442 90.9728 47.0863 90.6425 46.9686C90.3122 46.8519 90.0308 46.6763 89.7964 46.4419C89.562 46.2085 89.3819 45.918 89.2561 45.5732C89.1303 45.2275 89.067 44.8266 89.067 44.3714V40.7416H90.1656V44.3262C90.1656 44.9144 90.3077 45.3614 90.5918 45.6682C90.8751 45.9741 91.2678 46.127 91.7683 46.127C92.2687 46.127 92.6524 45.9795 92.9356 45.6854C93.2198 45.3913 93.3619 44.9533 93.3619 44.3705V40.7407H94.4605V44.3153C94.4605 44.7841 94.3962 45.1958 94.2668 45.5496C94.1374 45.9035 93.9564 46.1994 93.7221 46.4365C93.4868 46.6736 93.2044 46.851 92.8705 46.9677C92.5375 47.0854 92.1628 47.1433 91.7493 47.1433L91.7502 47.1442ZM84.5187 47.1532C84.0328 47.1532 83.5884 47.0672 83.1866 46.8962C82.7839 46.7252 82.4391 46.4926 82.1505 46.1985C81.8627 45.9044 81.6374 45.5605 81.4754 45.1678C81.3134 44.775 81.2319 44.356 81.2319 43.9117V43.8936C81.2319 43.4493 81.3125 43.0303 81.4754 42.6366C81.6374 42.243 81.8654 41.8982 82.1595 41.6014C82.4536 41.3036 82.802 41.0674 83.2038 40.8937C83.6065 40.7199 84.0508 40.6331 84.5368 40.6331C85.0228 40.6331 85.4671 40.719 85.8698 40.8901C86.2716 41.0611 86.6173 41.2937 86.906 41.5878C87.1937 41.8819 87.4191 42.2258 87.5811 42.6185C87.743 43.0122 87.8245 43.4312 87.8245 43.8755V43.8936C87.8245 44.337 87.743 44.756 87.5811 45.1497C87.4191 45.5424 87.191 45.8881 86.8969 46.1858C86.6028 46.4827 86.2544 46.7188 85.8517 46.8926C85.4499 47.0672 85.0047 47.1541 84.5187 47.1541V47.1532ZM84.5377 46.1352C84.8481 46.1352 85.1332 46.0763 85.3947 45.9596C85.6544 45.8429 85.8761 45.6836 86.0626 45.4827C86.2472 45.2818 86.3929 45.0456 86.496 44.7759C86.601 44.5062 86.6535 44.2176 86.6535 43.9117V43.8936C86.6535 43.5868 86.601 43.2972 86.496 43.0248C86.3929 42.7506 86.2454 42.5144 86.058 42.3126C85.8689 42.1126 85.6436 41.9516 85.3811 41.8312C85.1169 41.7109 84.83 41.6511 84.5196 41.6511C84.2092 41.6511 83.9242 41.709 83.6626 41.8267C83.4029 41.9434 83.1812 42.1027 82.9948 42.3036C82.8102 42.5054 82.6654 42.7407 82.5613 43.0104C82.4563 43.2809 82.4038 43.5687 82.4038 43.8755V43.8936C82.4038 44.1995 82.4563 44.489 82.5613 44.7623C82.6654 45.0347 82.812 45.2727 82.9993 45.4736C83.1884 45.6745 83.4138 45.8347 83.6762 45.9551C83.9404 46.0754 84.2273 46.1352 84.5377 46.1352Z" fill="#35456A"/>
<path d="M70.8322 0H69.2296V60H70.8322V0Z" fill="#35456A"/>
<path fill-rule="evenodd" clip-rule="evenodd" d="M5.63603 0C8.74906 0 11.2721 2.523 11.2721 5.63603C11.2721 8.74906 8.74906 11.2721 5.63603 11.2721C2.523 11.2721 0 8.74906 0 5.63603C0 2.523 2.523 0 5.63603 0Z" fill="#20A345"/>
<path fill-rule="evenodd" clip-rule="evenodd" d="M54.3622 0C57.4752 0 59.9982 2.523 59.9982 5.63603C59.9982 8.74906 57.4752 11.2721 54.3622 11.2721C51.2491 11.2721 48.7261 8.74906 48.7261 5.63603C48.7261 2.523 51.25 0 54.3622 0Z" fill="#0072AE"/>
<path fill-rule="evenodd" clip-rule="evenodd" d="M5.63603 48.7261C8.74906 48.7261 11.2721 51.2491 11.2721 54.3621C11.2721 57.4751 8.74906 59.999 5.63603 59.999C2.523 59.999 0 57.4751 0 54.3621C0 51.2491 2.523 48.7261 5.63603 48.7261Z" fill="#FFC20F"/>
<path fill-rule="evenodd" clip-rule="evenodd" d="M54.3622 48.7261C57.4752 48.7261 59.9982 51.2491 59.9982 54.3621C59.9982 57.4751 57.4752 59.999 54.3622 59.999C51.2491 59.999 48.7261 57.476 48.7261 54.3621C48.7261 51.2482 51.2491 48.7261 54.3622 48.7261Z" fill="#F05922"/>
<path fill-rule="evenodd" clip-rule="evenodd" d="M27.1177 6.65851V3.05591H16.0529V6.65851C16.0529 11.8258 11.825 16.0528 6.65864 16.0528H3.05603V27.1176H6.65864C17.9117 27.1176 27.1177 17.9107 27.1177 6.65851Z" fill="#20A345"/>
<path fill-rule="evenodd" clip-rule="evenodd" d="M16.0529 56.943H27.1177V53.3404C27.1177 42.0864 17.9117 32.8804 6.65864 32.8804H3.05603V43.9452H6.65864C11.8259 43.9452 16.0529 48.1731 16.0529 53.3395V56.9421V56.943Z" fill="#FFC20F"/>
<path fill-rule="evenodd" clip-rule="evenodd" d="M43.9453 53.3405C43.9453 48.1732 48.1732 43.9462 53.3405 43.9462H56.9431V32.8813H53.3405C42.0874 32.8813 32.8813 42.0874 32.8813 53.3414V56.944H43.9462V53.3414L43.9453 53.3405Z" fill="#F05922"/>
<path fill-rule="evenodd" clip-rule="evenodd" d="M53.3396 16.0538C48.1723 16.0538 43.9444 11.8259 43.9444 6.65949V3.05688H32.8796V6.65949C32.8796 17.9125 42.0856 27.1186 53.3387 27.1186H56.9413V16.0538H53.3387H53.3396Z" fill="#0072AE"/>
</svg>
