<svg width="184" height="60" viewBox="0 0 184 60" fill="none" xmlns="http://www.w3.org/2000/svg">
<path fill-rule="evenodd" clip-rule="evenodd" d="M0 0V29.9996L9.56376 22.5943L15.1113 15.0002L0 0Z" fill="#11DB98"/>
<path fill-rule="evenodd" clip-rule="evenodd" d="M15.1113 15.0002L16.6411 28.0063L15.1113 44.9998L0 29.9997L15.1113 15.0002Z" fill="#20E0A0"/>
<path fill-rule="evenodd" clip-rule="evenodd" d="M15.1112 15.0002V44.9998L30.2217 29.9997L15.1112 15.0002Z" fill="#28EBAA"/>
<path fill-rule="evenodd" clip-rule="evenodd" d="M60.4444 0V29.9996L51.8843 23.8766L45.3331 15.0002L60.4444 0Z" fill="#3ADCF9"/>
<path fill-rule="evenodd" clip-rule="evenodd" d="M45.3331 15.0002L44.3765 27.0567L45.3331 44.9998L60.4444 29.9997L45.3331 15.0002Z" fill="#32EAE3"/>
<path fill-rule="evenodd" clip-rule="evenodd" d="M45.3331 15.0002V28.7656V44.9998L30.2218 29.9997L45.3331 15.0002Z" fill="#5FFBE4"/>
<path fill-rule="evenodd" clip-rule="evenodd" d="M45.333 44.9998H15.1112L30.2217 59.9999L45.333 44.9998Z" fill="#42F5B9"/>
<path d="M149.667 40.8362H153.939V32.6701C153.939 30.6286 155.363 29.2147 157.262 29.2147C159.033 29.2147 160.11 30.3141 160.11 32.1983V40.8362H164.381V31.5707C164.381 27.6442 161.85 25.1317 158.686 25.1317C157.167 25.1317 156.028 25.76 155.269 26.3883C154.826 26.7653 154.446 27.1739 154.098 27.645H153.94V18.8499H149.668V40.8362H149.667ZM167.545 33.1412C167.545 37.5387 171.184 41.1507 175.773 41.1507C180.361 41.1507 184 37.5387 184 33.1412C184 28.7436 180.361 25.1317 175.773 25.1317C171.184 25.1317 167.545 28.7436 167.545 33.1412ZM175.772 37.2242C173.557 37.2242 171.816 35.4965 171.816 33.1412C171.816 30.7859 173.557 29.0582 175.772 29.0582C177.987 29.0582 179.728 30.7859 179.728 33.1412C179.728 35.4965 177.987 37.2242 175.772 37.2242ZM133.53 38.3236C134.005 38.8579 134.575 39.3289 135.239 39.7368C136.378 40.4592 138.023 41.15 140.175 41.15C144.446 41.15 146.662 38.9196 146.662 36.2813C146.662 31.2562 138.751 31.57 138.751 29.8423C138.751 29.3712 139.226 28.9001 140.333 28.9001C141.441 28.9001 142.295 29.1831 142.896 29.5285C143.244 29.7166 143.561 29.9371 143.813 30.1568L146.345 27.487C145.933 27.0784 145.427 26.6705 144.826 26.3251C143.813 25.7284 142.327 25.1317 140.333 25.1317C136.378 25.1317 134.163 27.3304 134.163 29.843C134.163 34.8682 142.074 34.5544 142.074 36.2821C142.074 36.9104 141.599 37.3815 140.176 37.3815C138.91 37.3815 137.898 37.0045 137.17 36.5334C136.758 36.2821 136.378 35.9991 136.062 35.6538L133.531 38.3236H133.53ZM115.494 33.1412C115.494 37.5387 119.133 41.1507 123.722 41.1507C128.31 41.1507 131.949 37.5387 131.949 33.1412C131.949 28.7436 128.31 25.1317 123.722 25.1317C119.133 25.1317 115.494 28.7436 115.494 33.1412ZM123.721 37.2242C121.506 37.2242 119.765 35.4965 119.765 33.1412C119.765 30.7859 121.506 29.0582 123.721 29.0582C125.936 29.0582 127.676 30.7859 127.676 33.1412C127.676 35.4965 125.936 37.2242 123.721 37.2242ZM107.9 40.8362H112.172V18.8499H107.9V40.8362ZM93.186 31.5707C93.6606 30.1568 94.8947 28.9009 96.6663 28.9009C98.4379 28.9009 99.6721 30.1576 100.147 31.5707H93.186ZM101.413 35.6538C101.128 35.9991 100.78 36.2821 100.369 36.5334C99.641 37.0045 98.66 37.3815 97.2993 37.3815C94.9258 37.3815 93.6606 36.1248 93.186 34.7116H104.419L104.483 34.1774C104.515 33.832 104.577 33.4234 104.577 32.8266C104.577 28.5863 101.097 25.1317 96.8255 25.1317C92.5538 25.1317 88.7567 28.7436 88.7567 33.1412C88.7567 37.5387 92.3954 41.1507 96.9832 41.1507C99.1346 41.1507 100.78 40.5224 101.92 39.894C102.584 39.517 103.154 39.1084 103.628 38.6374L101.413 35.6538ZM75.467 40.8362H80.8462L89.0735 18.8499H84.0104L78.2203 35.0254H78.0937L72.3028 18.8499H67.2405L75.4678 40.8362H75.467Z" fill="#333333"/>
</svg>
