<svg width="173" height="60" viewBox="0 0 173 60" fill="none" xmlns="http://www.w3.org/2000/svg">
<g clip-path="url(#clip0_210_1193)">
<path d="M74.7731 59.9248L74.2808 58.5799C74.2248 58.4235 74.1625 58.2922 74.1064 58.1858C74.0503 58.0795 73.9818 57.9982 73.9008 57.9356C73.8197 57.8731 73.7263 57.8293 73.6141 57.8043C73.502 57.7792 73.3711 57.7667 73.2091 57.7667H72.2495V59.931H71.832V55.2146H72.9349C73.0596 55.2146 73.2029 55.2146 73.3524 55.2209C73.502 55.2209 73.6515 55.2396 73.8011 55.2646C73.9506 55.2897 74.0939 55.3272 74.2372 55.371C74.3743 55.421 74.4989 55.4898 74.6111 55.5774C74.717 55.665 74.8043 55.7776 74.8728 55.9152C74.9413 56.0528 74.9725 56.2217 74.9725 56.4156C74.9725 56.572 74.9476 56.7159 74.8915 56.8472C74.8354 56.9786 74.7606 57.0912 74.6609 57.1912C74.5612 57.2913 74.4429 57.3726 74.3058 57.4352C74.1687 57.4978 74.0129 57.5478 73.8509 57.5791C73.8509 57.5916 73.8447 57.5978 73.8447 57.6041C74.0005 57.6354 74.1251 57.6854 74.2185 57.7605C74.312 57.8355 74.3992 57.9356 74.474 58.067C74.5488 58.1983 74.6236 58.3547 74.6921 58.5486C74.7669 58.7425 74.8541 58.9677 74.96 59.2367L75.2155 59.9123H74.7669L74.7731 59.9248ZM72.262 57.3914H73.2091C73.3649 57.3914 73.5207 57.3789 73.6764 57.3539C73.8322 57.3289 73.9755 57.2788 74.1001 57.21C74.2248 57.1412 74.3245 57.0474 74.4055 56.9285C74.4865 56.8097 74.5239 56.6596 74.5239 56.4782C74.5239 56.2968 74.4927 56.1466 74.4242 56.034C74.3556 55.9214 74.2684 55.8276 74.1562 55.7588C74.0378 55.69 73.907 55.6462 73.7512 55.6212C73.5954 55.5962 73.421 55.5837 73.2403 55.5837H72.2682V57.3914H72.262Z" fill="#A87C4F"/>
<path d="M81.8579 59.5559V59.9249H79.054V55.2085H81.7707V55.5776H79.4777V57.3228H81.6399V57.6856H79.4714V59.5559H81.8579Z" fill="#A87C4F"/>
<path d="M85.6464 59.9249H85.1978L87.1606 55.2085H87.6466L89.5907 59.9249H89.1358L88.5563 58.5425H86.1885L85.6402 59.9249H85.6464ZM86.3069 58.2423H88.4504L87.659 56.1468L87.4036 55.4337L87.1543 56.1468L86.3069 58.2423Z" fill="#A87C4F"/>
<path d="M95.9027 59.9249H93.1797V55.2085H93.6034V59.5559H95.9027V59.9249Z" fill="#A87C4F"/>
<path d="M107.113 59.5559V59.9249H104.309V55.2085H107.025V55.5776H104.739V57.3228H106.901V57.6856H104.732V59.5559H107.119H107.113Z" fill="#A87C4F"/>
<path d="M110.963 59.118C111.069 59.2368 111.175 59.3306 111.281 59.3994C111.387 59.4683 111.493 59.5183 111.599 59.5558C111.705 59.5934 111.811 59.6121 111.917 59.6246C112.023 59.6371 112.129 59.6371 112.228 59.6371C112.415 59.6371 112.583 59.6184 112.739 59.5808C112.895 59.5433 113.026 59.487 113.138 59.4182C113.25 59.3494 113.337 59.2556 113.4 59.1555C113.462 59.0492 113.493 58.9241 113.493 58.7864C113.493 58.6238 113.456 58.4924 113.381 58.3798C113.306 58.2673 113.2 58.1734 113.076 58.0921C112.951 58.0108 112.808 57.9357 112.646 57.8732C112.49 57.8106 112.322 57.7481 112.153 57.6855C111.985 57.623 111.823 57.5542 111.661 57.4854C111.499 57.4103 111.362 57.329 111.231 57.2289C111.107 57.1288 111.007 57.01 110.926 56.8723C110.851 56.7347 110.814 56.5658 110.814 56.3657C110.814 56.1655 110.864 55.9841 110.957 55.834C111.051 55.6776 111.175 55.5525 111.337 55.4462C111.493 55.3398 111.674 55.2647 111.873 55.2147C112.072 55.1647 112.278 55.1396 112.49 55.1396C112.596 55.1396 112.702 55.1459 112.808 55.1584C112.92 55.1709 113.026 55.1959 113.132 55.2272C113.238 55.2585 113.344 55.3023 113.443 55.3586C113.543 55.4149 113.636 55.4837 113.717 55.565L113.562 55.8653C113.412 55.7339 113.244 55.6463 113.057 55.59C112.864 55.5337 112.677 55.5087 112.484 55.5087C112.334 55.5087 112.191 55.5212 112.048 55.5525C111.904 55.5838 111.773 55.6338 111.661 55.6964C111.549 55.7652 111.456 55.8465 111.381 55.9528C111.306 56.0592 111.275 56.178 111.275 56.3281C111.275 56.4845 111.312 56.6096 111.387 56.7222C111.462 56.8286 111.561 56.9286 111.692 57.01C111.817 57.0913 111.96 57.1663 112.122 57.2351C112.284 57.304 112.446 57.3665 112.615 57.4353C112.783 57.5041 112.945 57.5729 113.107 57.648C113.269 57.7231 113.412 57.8106 113.537 57.917C113.661 58.0233 113.761 58.1421 113.842 58.286C113.917 58.4236 113.954 58.5925 113.954 58.7927C113.954 58.9428 113.929 59.0804 113.879 59.1993C113.83 59.3181 113.761 59.4245 113.68 59.512C113.593 59.6059 113.493 59.6809 113.381 59.7435C113.269 59.806 113.144 59.8623 113.007 59.8999C112.876 59.9437 112.733 59.9687 112.59 59.9874C112.446 60.0062 112.303 60.0125 112.16 60.0125C111.879 60.0125 111.624 59.9624 111.387 59.8561C111.15 59.7497 110.951 59.5934 110.789 59.3869L110.963 59.1305V59.118Z" fill="#A87C4F"/>
<path d="M118.802 59.9249V55.5776H117.263V55.2085H120.771V55.5776H119.238V59.9249H118.802Z" fill="#A87C4F"/>
<path d="M123.743 59.9249H123.295L125.257 55.2085H125.744L127.688 59.9249H127.233L126.653 58.5425H124.285L123.737 59.9249H123.743ZM124.404 58.2423H126.547L125.756 56.1468L125.5 55.4337L125.251 56.1468L124.404 58.2423Z" fill="#A87C4F"/>
<path d="M131.788 59.9249V55.5776H130.249V55.2085H133.757V55.5776H132.224V59.9249H131.788Z" fill="#A87C4F"/>
<path d="M140.187 59.5559V59.9249H137.383V55.2085H140.1V55.5776H137.813V57.3228H139.975V57.6856H137.807V59.5559H140.193H140.187Z" fill="#A87C4F"/>
<path d="M78.437 48.8971L74.4553 35.88H74.3556C74.4989 38.5259 74.5675 40.2962 74.5675 41.1782V48.8908H71.4395V32.302H76.2062L80.1194 44.9876H80.1879L84.3378 32.302H89.1046V48.8908H85.8395V41.0405C85.8395 40.6715 85.8395 40.2399 85.8582 39.7582C85.8769 39.2766 85.9205 37.988 86.014 35.8987H85.9143L81.6522 48.8908H78.4432L78.437 48.8971Z" fill="#333333"/>
<path d="M108.514 40.5839C108.514 43.3299 107.835 45.4379 106.477 46.9141C105.118 48.3904 103.174 49.1285 100.645 49.1285C98.1147 49.1285 96.1706 48.3904 94.8122 46.9141C93.4538 45.4379 92.7747 43.3236 92.7747 40.5588C92.7747 37.794 93.4538 35.6923 94.8122 34.2348C96.1706 32.7774 98.1209 32.0518 100.663 32.0518C103.206 32.0518 105.143 32.7836 106.489 34.2536C107.835 35.7236 108.508 37.8316 108.508 40.5839H108.514ZM96.4572 40.5839C96.4572 42.4354 96.8062 43.8303 97.5103 44.7686C98.2144 45.7069 99.255 46.176 100.651 46.176C103.449 46.176 104.844 44.312 104.844 40.5839C104.844 36.8558 103.455 34.9792 100.676 34.9792C99.2799 34.9792 98.2331 35.4483 97.5227 36.3929C96.8124 37.3374 96.4635 38.7323 96.4635 40.5839H96.4572Z" fill="#333333"/>
<path d="M125.905 40.4461C125.905 43.1797 125.133 45.2689 123.581 46.7201C122.03 48.1713 119.799 48.8969 116.87 48.8969H112.191V32.3081H117.381C120.079 32.3081 122.173 33.0212 123.668 34.4536C125.158 35.8861 125.905 37.8815 125.905 40.4461ZM122.266 40.5337C122.266 36.9682 120.696 35.1918 117.562 35.1918H115.699V45.9945H117.2C120.578 45.9945 122.266 44.1742 122.266 40.5337Z" fill="#333333"/>
<path d="M139.103 48.8969H129.588V32.3081H139.103V35.1918H133.09V38.8323H138.685V41.7159H133.09V45.9945H139.103V48.8969Z" fill="#333333"/>
<path d="M146.306 42.5355V48.9033H142.804V32.3145H147.621C149.864 32.3145 151.528 32.7273 152.606 33.5467C153.684 34.3662 154.219 35.611 154.219 37.2873C154.219 38.2632 153.952 39.1326 153.416 39.8895C152.88 40.6527 152.126 41.2469 151.141 41.6785C153.627 45.4066 155.248 47.8149 156.002 48.9033H152.113L148.169 42.5355H146.306ZM146.306 39.6768H147.434C148.543 39.6768 149.359 39.4892 149.889 39.1201C150.418 38.7511 150.68 38.1693 150.68 37.3749C150.68 36.5805 150.412 36.03 149.87 35.6985C149.334 35.367 148.499 35.1981 147.365 35.1981H146.3V39.6768H146.306Z" fill="#333333"/>
<path d="M173 48.8969H168.545L161.354 36.349H161.254C161.398 38.5633 161.466 40.1459 161.466 41.0904V48.8969H158.338V32.3081H162.756L169.934 44.731H170.015C169.903 42.5729 169.847 41.0529 169.847 40.1584V32.3081H173V48.8969Z" fill="#333333"/>
<path d="M53.4752 17.4833L55.4816 15.1564L42.3839 0L0 49.0659H13.1788L46.97 9.95204L53.4752 17.4833Z" fill="url(#paint0_linear_210_1193)"/>
<path d="M93.8775 21.8745L74.9848 0L32.5947 49.0659H45.7797L79.5647 9.95204L89.8647 21.8745H93.8775Z" fill="url(#paint1_linear_210_1193)"/>
<path d="M20.8805 17.4771V13.2048H7.07861V33.453L20.8805 17.4771Z" fill="url(#paint2_linear_210_1193)"/>
</g>
<defs>
<linearGradient id="paint0_linear_210_1193" x1="56.7652" y1="60.244" x2="5.71056" y2="9.38619" gradientUnits="userSpaceOnUse">
<stop stop-color="#E4C57D"/>
<stop offset="1" stop-color="#A68B4F"/>
</linearGradient>
<linearGradient id="paint1_linear_210_1193" x1="73.0657" y1="43.8803" x2="22.0048" y2="-6.97743" gradientUnits="userSpaceOnUse">
<stop stop-color="#E4C57D"/>
<stop offset="1" stop-color="#A68B4F"/>
</linearGradient>
<linearGradient id="paint2_linear_210_1193" x1="53.7619" y1="63.259" x2="2.70103" y2="12.4013" gradientUnits="userSpaceOnUse">
<stop stop-color="#E4C57D"/>
<stop offset="1" stop-color="#A68B4F"/>
</linearGradient>
<clipPath id="clip0_210_1193">
<rect width="173" height="60" fill="white"/>
</clipPath>
</defs>
</svg>
