<svg width="149" height="60" viewBox="0 0 149 60" fill="none" xmlns="http://www.w3.org/2000/svg">
<path d="M114.498 34.6099L89.1705 60.0001H76.6025L108.206 28.2983L114.498 34.6099Z" fill="#FF6E00"/>
<path d="M103.841 5.28882L114.498 15.9786L108.206 22.2901L91.2732 5.28882H103.841Z" fill="#045293"/>
<path fill-rule="evenodd" clip-rule="evenodd" d="M123.784 25.2943H111.216L136.416 0H149L123.784 25.2943Z" fill="#6FB900"/>
<path fill-rule="evenodd" clip-rule="evenodd" d="M123.784 25.2942H111.216L128.372 42.5032H140.94L123.784 25.2942Z" fill="#489B12"/>
<path d="M87.3228 28.6337H90.6361C90.6679 29.2889 90.9069 29.7682 91.3688 30.0878C91.8626 30.4074 92.4998 30.5831 93.3122 30.5831C93.9015 30.5831 94.3953 30.4713 94.8254 30.2476C95.2077 30.0239 95.4148 29.7043 95.4148 29.3208C95.4148 28.7296 94.7298 28.2982 93.3759 28.0106C92.7865 27.9147 92.3564 27.8188 92.0538 27.723C90.3334 27.3075 89.1865 26.7962 88.5972 26.221C87.9441 25.6297 87.6255 24.8628 87.6255 23.8881C87.6255 22.6577 88.0874 21.6351 89.0432 20.8202C90.0148 20.0692 91.2892 19.7017 92.8343 19.7017C94.5228 19.7017 95.8608 20.0692 96.8643 20.8202C97.8041 21.6351 98.3139 22.6897 98.3776 23.9839H96.2909C95.6696 23.9839 95.2077 23.7123 94.8891 23.153C94.7617 23.0252 94.6343 22.8974 94.5068 22.7536C94.1245 22.466 93.5829 22.3062 92.898 22.3062C92.2131 22.3062 91.767 22.4021 91.4325 22.5938C91.1458 22.7855 91.0024 23.0891 91.0024 23.4726C91.0024 23.9999 91.8467 24.4313 93.5352 24.7829C93.7263 24.8468 93.9015 24.8947 94.0449 24.9267C94.1882 24.9586 94.3316 24.9746 94.459 24.9746C96.1157 25.406 97.2625 25.8854 97.9156 26.4447C98.5369 27.0359 98.8395 27.8188 98.8395 28.7935C98.8395 30.2316 98.3139 31.3341 97.2785 32.1171C96.3068 32.8361 94.8413 33.1877 92.898 33.1877C90.9547 33.1877 89.6644 32.8202 88.7724 32.0692C87.8326 31.3182 87.3547 30.2316 87.3547 28.7935V28.6497L87.3228 28.6337ZM73.9265 28.6337H77.2398C77.2716 29.2889 77.5106 29.7682 77.9725 30.0878C78.4663 30.4074 79.1035 30.5831 79.9159 30.5831C80.5052 30.5831 80.999 30.4713 81.4291 30.2476C81.8114 30.0239 82.0185 29.7043 82.0185 29.3208C82.0185 28.7296 81.3335 28.2982 79.9796 28.0106C79.3902 27.9147 78.9601 27.8188 78.6575 27.723C76.9371 27.3075 75.7902 26.7962 75.2009 26.221C74.5478 25.6297 74.2292 24.8628 74.2292 23.8881C74.2292 22.6577 74.6911 21.6351 75.6469 20.8202C76.6185 20.0692 77.8929 19.7017 79.438 19.7017C81.1265 19.7017 82.4645 20.0692 83.468 20.8202C84.4078 21.6351 84.9176 22.6897 84.9813 23.9839H82.8946C82.2733 23.9839 81.8114 23.7123 81.4928 23.153C81.3654 23.0252 81.238 22.8974 81.1105 22.7536C80.7282 22.466 80.1866 22.3062 79.5017 22.3062C78.8168 22.3062 78.3707 22.4021 78.0362 22.5938C77.7495 22.7855 77.6061 23.0891 77.6061 23.4726C77.6061 23.9999 78.4504 24.4313 80.1389 24.7829C80.33 24.8468 80.5052 24.8947 80.6486 24.9267C80.7919 24.9586 80.9353 24.9746 81.0627 24.9746C82.7194 25.406 83.8662 25.8854 84.5193 26.4447C85.1406 27.0359 85.4432 27.8188 85.4432 28.7935C85.4432 30.2316 84.9176 31.3341 83.8822 32.1171C82.9105 32.8361 81.445 33.1877 79.5017 33.1877C77.5584 33.1877 76.2681 32.8202 75.3761 32.0692C74.4363 31.3182 73.9584 30.2316 73.9584 28.7935V28.6497L73.9265 28.6337ZM63.5249 25.1025H68.4788C68.4151 24.2236 68.1921 23.5845 67.7939 23.153C67.3797 22.7056 66.7744 22.4819 65.9939 22.4819C65.2771 22.4819 64.6877 22.7056 64.2417 23.153C63.7798 23.6005 63.5408 24.2556 63.509 25.1025H63.5249ZM69.3708 28.9373H71.808C71.4575 30.2955 70.7726 31.3501 69.7691 32.0532C68.7655 32.8042 67.5072 33.1717 65.978 33.1717C64.1302 33.1717 62.6807 32.5645 61.6453 31.3661C60.6099 30.1997 60.0842 28.5219 60.0842 26.3488C60.0842 24.1757 60.578 22.6417 61.5975 21.4753C62.6329 20.2769 64.0824 19.6697 65.9302 19.6697C67.8735 19.6697 69.3868 20.2449 70.454 21.4274C71.4894 22.6258 72.0151 24.3035 72.0151 26.4447V26.972C72.0151 27.1317 71.9991 27.2436 71.9673 27.3075H63.5568C63.5886 28.3301 63.8275 29.0811 64.2895 29.5605C64.7036 30.0878 65.3408 30.3435 66.185 30.3435C66.7426 30.3435 67.2045 30.2316 67.6027 29.9919C67.6983 29.96 67.7939 29.912 67.8735 29.8162C67.9532 29.7363 68.0487 29.6404 68.1443 29.5445C68.1762 29.4487 68.3036 29.3208 68.5107 29.161C68.7178 29.0013 69.0204 28.9214 69.4186 28.9214L69.3708 28.9373ZM58.1568 32.932H56.4524C55.9745 32.932 55.5763 32.7722 55.2577 32.4686C54.9392 32.1491 54.7958 31.7656 54.7958 31.2702V24.6391C54.7958 23.8561 54.5569 23.2969 54.0949 22.9293C53.633 22.5778 53.0914 22.3861 52.5179 22.3861C51.9445 22.3861 51.4189 22.5618 50.9728 22.9293C50.5268 23.2809 50.2879 23.8561 50.2879 24.6391V32.932H46.8791V25.3262C46.8791 23.1211 47.4525 21.6351 48.5994 20.8841C49.7463 20.1331 51.0206 19.7336 52.4224 19.6697C53.8401 19.6697 55.1622 20.0372 56.3568 20.7882C57.5515 21.5392 58.1568 23.0412 58.1568 25.3262V32.932ZM41.6544 16.1544H43.4066C43.8526 16.1544 44.2508 16.3142 44.5694 16.6337C44.888 16.9533 45.0632 17.3528 45.0632 17.8002V18.8228H41.6544V16.1544ZM41.6544 19.9573H43.4066C43.8526 19.9573 44.2508 20.1171 44.5694 20.4367C44.888 20.7562 45.0632 21.1557 45.0632 21.6031V32.916H41.6544V19.9413V19.9573ZM27.6846 28.6337H30.9979C31.0297 29.2889 31.2687 29.7682 31.7306 30.0878C32.2244 30.4074 32.8616 30.5831 33.6739 30.5831C34.2633 30.5831 34.7571 30.4713 35.1872 30.2476C35.5695 30.0239 35.7766 29.7043 35.7766 29.3208C35.7766 28.7296 35.0916 28.2982 33.7376 28.0106C33.1483 27.9147 32.7182 27.8188 32.4155 27.723C30.6952 27.3075 29.5483 26.7962 28.9589 26.221C28.3059 25.6297 27.9873 24.8628 27.9873 23.8881C27.9873 22.6577 28.4492 21.6351 29.405 20.8202C30.3766 20.0692 31.6509 19.7017 33.1961 19.7017C34.8845 19.7017 36.2226 20.0692 37.2261 20.8202C38.1659 21.6351 38.6756 22.6897 38.7394 23.9839H36.6527C36.0314 23.9839 35.5695 23.7123 35.2509 23.153C35.1235 23.0252 34.996 22.8974 34.8686 22.7536C34.4863 22.466 33.9447 22.3062 33.2598 22.3062C32.5748 22.3062 32.1288 22.4021 31.7943 22.5938C31.5076 22.7855 31.3642 23.0891 31.3642 23.4726C31.3642 23.9999 32.2085 24.4313 33.8969 24.7829C34.0881 24.8468 34.2633 24.8947 34.4067 24.9267C34.55 24.9586 34.6934 24.9746 34.8208 24.9746C36.4774 25.406 37.6243 25.8854 38.2774 26.4447C38.8986 27.0359 39.2013 27.8188 39.2013 28.7935C39.2013 30.2316 38.6756 31.3341 37.6403 32.1171C36.6686 32.8361 35.2031 33.1877 33.2598 33.1877C31.3164 33.1877 30.0262 32.8202 29.1342 32.0692C28.1944 31.3182 27.7165 30.2316 27.7165 28.7935V28.6497L27.6846 28.6337ZM25.7572 19.9413V27.5632C25.7572 29.8801 25.1519 31.3821 23.9572 32.1011C22.7626 32.8202 21.4405 33.1717 20.0228 33.1717C18.621 33.1078 17.3626 32.7083 16.1998 32.0052C15.037 31.3022 14.4795 29.8002 14.4795 27.5632V19.9413H17.8883V28.2503C17.8883 29.0332 18.1113 29.6084 18.5732 29.96C19.0192 30.3115 19.5449 30.5032 20.1183 30.5032C20.6918 30.5032 21.2334 30.3275 21.6953 29.96C22.1573 29.6084 22.3962 29.0332 22.3962 28.2503V21.6031C22.3962 21.1557 22.5555 20.7562 22.8581 20.4367C23.1608 20.1011 23.559 19.9413 24.0528 19.9413H25.7572ZM8.85653 26.3488C8.85653 25.1823 8.6176 24.2716 8.1238 23.6164C7.64593 22.9293 6.97691 22.5938 6.13267 22.5938C5.22472 22.5938 4.53977 22.9134 4.04597 23.5685C3.5681 24.2556 3.31323 25.1823 3.31323 26.3488C3.31323 27.707 3.53624 28.7136 3.99818 29.3208C4.47605 30.0079 5.161 30.3435 6.0371 30.3435C6.91319 30.3435 7.64593 30.0079 8.1238 29.3208C8.60167 28.6337 8.85653 27.6431 8.85653 26.3488ZM3.32916 17.7523V21.667C3.6796 21.0439 4.18933 20.5485 4.87428 20.165C5.46365 19.8455 6.16453 19.6697 7.00877 19.6697C8.53795 19.6697 9.78041 20.3088 10.7521 21.5712C11.7238 22.8335 12.2016 24.4793 12.2016 26.4926C12.2016 28.5059 11.7238 30.1517 10.7521 31.414C10.2742 32.0372 9.60519 32.4846 8.77689 32.7562C7.94858 33.0279 7.1362 33.1717 6.32382 33.1717C4.76277 33.1717 3.32916 32.7562 1.99113 31.9573C0.669019 31.1424 0 29.5765 0 27.2756V16.1064H1.65662C2.11856 16.1064 2.50085 16.2662 2.81944 16.5858C3.13802 16.9214 3.29731 17.3048 3.29731 17.7523H3.32916Z" fill="#045293"/>
</svg>
