<svg width="145" height="60" viewBox="0 0 145 60" fill="none" xmlns="http://www.w3.org/2000/svg">
<path d="M36.8503 39.4546V31.5733C37.3057 32.9079 39.1019 33.8482 41.4038 33.8482C43.5547 33.8482 45.3761 33.0975 46.7925 31.5733C48.2478 30.0225 48.9811 28.1293 48.9811 25.9049C48.9811 23.6806 48.2478 21.8 46.7925 20.2745C45.3761 18.7238 43.5535 17.9617 41.4038 17.9617C39.1019 17.9617 37.3057 18.902 36.8503 20.2492V18.241H32.3472V39.4546H36.8503ZM40.5824 29.7432C39.4566 29.7432 38.5208 29.3742 37.7358 28.65C36.9774 27.8879 36.5849 26.9716 36.5849 25.9049C36.5849 24.8382 36.9774 23.9346 37.7358 23.1978C38.5195 22.4357 39.4566 22.0666 40.5824 22.0666C41.7082 22.0666 42.5811 22.4357 43.3396 23.1978C44.0981 23.9346 44.4654 24.837 44.4654 25.9049C44.4654 26.9729 44.0981 27.8879 43.3396 28.65C42.5799 29.3742 41.6692 29.7432 40.5824 29.7432ZM57.8629 17.9604C55.7119 17.9604 53.9031 18.7225 52.4478 20.2732C51.0189 21.7987 50.2969 23.6793 50.2969 25.9037C50.2969 28.128 51.0176 30.0213 52.4478 31.572C53.9031 33.0975 55.7119 33.8469 57.8629 33.8469C60.166 33.8469 61.961 32.9066 62.4176 31.572V33.5803H66.9346V18.2384H62.4176V20.2467C61.9623 18.8994 60.166 17.9591 57.8629 17.9591V17.9604ZM58.6855 29.7432C57.5975 29.7432 56.6868 29.3742 55.9283 28.65C55.1698 27.8879 54.8025 26.9716 54.8025 25.9049C54.8025 24.8382 55.1698 23.9346 55.9283 23.1978C56.6868 22.4357 57.5987 22.0666 58.6855 22.0666C59.7723 22.0666 60.7472 22.4357 61.5069 23.1978C62.2918 23.9346 62.6843 24.837 62.6843 25.9049C62.6843 26.9729 62.2918 27.8879 61.5069 28.65C60.7484 29.3742 59.8126 29.7432 58.6855 29.7432ZM69.2478 14.3635C69.2478 15.7992 70.3987 16.9316 71.8164 16.9316C73.234 16.9316 74.3962 15.8005 74.3962 14.3635C74.3962 12.9265 73.2453 11.7827 71.8164 11.7827C70.3874 11.7827 69.2478 12.9012 69.2478 14.3635ZM74.0931 33.5828V18.241H69.5761V33.5828H74.0931ZM81.2792 33.5828V24.9646C81.2792 23.1725 82.5572 21.9137 84.2906 21.9137C86.0239 21.9137 87.073 23.0196 87.073 24.8117V33.5828H91.5887V24.2657C91.5887 20.2745 89.4629 17.8972 85.7447 17.8972C83.644 17.8972 81.9245 18.8122 81.2792 20.1468V18.2397H76.7635V33.5815H81.2792V33.5828ZM99.5082 33.5828V22.3459H102.873V18.2397H99.5082V12.3552H95.1182V18.2397H93.0818V22.3459H95.1182V33.5828H99.5082ZM104.151 14.3635C104.151 15.7992 105.302 16.9316 106.731 16.9316C108.16 16.9316 109.312 15.8005 109.312 14.3635C109.312 12.9265 108.161 11.7827 106.731 11.7827C105.301 11.7827 104.151 12.9012 104.151 14.3635ZM109.009 33.5828V18.241H104.493V33.5828H109.009ZM116.194 33.5828V24.9646C116.194 23.1725 117.472 21.9137 119.191 21.9137C120.911 21.9137 121.987 23.0196 121.987 24.8117V33.5828H126.503V24.2657C126.503 20.2745 124.377 17.8972 120.645 17.8972C118.558 17.8972 116.825 18.8122 116.192 20.1468V18.2397H111.675V33.5815H116.192L116.194 33.5828ZM128.364 25.9049C128.364 28.104 129.084 29.9593 130.514 31.4469C131.97 32.9471 133.779 33.6713 135.93 33.6713C138.081 33.6713 139.965 32.9079 140.597 31.8159V32.4517C140.597 34.0403 140.142 35.1335 139.269 35.744C138.447 36.2268 137.296 36.4682 135.777 36.4682C133.235 36.4682 131.211 35.8324 129.718 34.5876V38.6673C131.514 39.7352 133.818 40.2812 136.663 40.2812C138.965 40.2812 140.85 39.7339 142.331 38.6673C143.482 37.842 144.203 36.8751 144.507 35.7187C144.849 34.5876 145 32.9989 145 31.0286V18.2422H140.484V20.2505C140.029 18.9032 138.245 17.9629 135.931 17.9629C133.78 17.9629 131.971 18.725 130.516 20.2758C129.087 21.8012 128.365 23.6818 128.365 25.9062L128.364 25.9049ZM132.879 25.9049C132.879 24.837 133.234 23.9346 133.992 23.1978C134.751 22.4357 135.662 22.0666 136.75 22.0666C137.838 22.0666 138.811 22.4357 139.57 23.1978C140.355 23.9346 140.747 24.837 140.747 25.9049C140.747 26.9729 140.355 27.8626 139.57 28.5868C138.811 29.3236 137.875 29.68 136.75 29.68C135.624 29.68 134.751 29.3236 133.992 28.5868C133.233 27.8626 132.879 26.9729 132.879 25.9049Z" fill="#1B50C2"/>
<path d="M32.1447 0.267822H31.3736V12.3805H32.1447V0.267822Z" fill="#E84427"/>
<path fill-rule="evenodd" clip-rule="evenodd" d="M32.7271 0.267822C33.7006 0.521855 34.0554 1.3105 34.0554 2.30135C34.0554 3.86473 34.3082 4.80503 35.1811 5.04642C36.0289 5.51657 37.7233 5.41547 40.2541 4.75448C45.5547 3.27957 45.5547 9.35614 40.2541 7.88123C37.7245 7.22024 36.0289 7.13177 35.1811 7.60192C34.3082 7.83068 34.0554 8.77098 34.0554 10.347C34.0554 11.3391 33.7006 12.1139 32.7271 12.3805V0.267822ZM40.722 6.31785C40.722 6.75009 41.2277 7.10649 41.8604 7.10649C42.4931 7.10649 43.0113 6.75009 43.0113 6.31785C43.0113 5.88562 42.4931 5.54312 41.8604 5.54312C41.2277 5.54312 40.722 5.88562 40.722 6.31785Z" fill="#E84427"/>
<path fill-rule="evenodd" clip-rule="evenodd" d="M17.9132 32.8195C12.6754 30.0353 9.09557 24.4946 9.09557 18.1134C9.09557 10.5505 14.1182 4.16938 21 2.16113C18.4692 2.82212 16.1044 3.92799 14.0176 5.40163C13.9295 5.46483 13.8277 5.54192 13.727 5.60511C8.31318 9.57106 4.7962 15.9775 4.7962 23.2219C4.7962 31.0514 8.89558 37.9027 15.0679 41.741C15.9786 42.3123 16.7635 42.7445 18.0277 42.7445C20.6339 42.7445 22.7459 40.6212 22.7459 38.0038C22.7459 34.369 20.2025 34.0379 17.9132 32.8182V32.8195Z" fill="#FFBF00"/>
<path fill-rule="evenodd" clip-rule="evenodd" d="M23.0742 46.2682C19.8994 46.0141 16.9258 45.0612 14.2943 43.5736C14.1044 43.4713 13.9396 43.3828 13.7761 43.2678C7.41258 39.4168 3.13711 32.3494 3.13711 24.2659C3.13711 16.9191 6.66667 10.4242 12.0805 6.40771C4.75723 11.7968 0 20.5792 0 30.4815C0 44.6416 9.74088 56.5003 22.7711 59.4614C24.2642 59.8052 27.0981 60.4915 29.3748 59.4362C31.7409 58.3429 33.3849 55.9404 33.3723 53.17C33.3472 46.8268 27.5786 46.6372 23.0755 46.2682H23.0742Z" fill="#F24527"/>
<path fill-rule="evenodd" clip-rule="evenodd" d="M21.5308 23.6428C21.5308 26.2488 19.4314 28.3708 16.8252 28.3708C15.0792 28.3708 13.9157 27.5443 13.0931 26.3878C11.6 23.8968 10.7396 20.9735 10.7396 17.8594C10.7396 17.6938 10.7522 17.5422 10.7522 17.3893C10.9547 10.0299 15.9132 3.86484 22.644 1.89451C22.112 2.03479 21.5686 2.19909 21.0503 2.37729C23.644 1.1817 26.4138 0.444874 28.995 0C22.7837 1.10587 18.078 6.5581 18.078 13.1175C18.078 15.5579 18.7233 17.8329 19.8616 19.8032C20.317 20.5779 21.5321 21.7988 21.5321 23.6415L21.5308 23.6428Z" fill="#04BA93"/>
<path fill-rule="evenodd" clip-rule="evenodd" d="M21.3925 19.9574C19.9371 14.6315 23.5937 12.2542 30.4252 12.2542V0.34375C24.2264 1.43698 19.5082 6.7881 19.5082 13.2325C19.5082 15.635 20.1535 17.872 21.2918 19.8032C21.3296 19.8537 21.3547 19.9056 21.3937 19.9561L21.3925 19.9574Z" fill="#1B50C2"/>
<path fill-rule="evenodd" clip-rule="evenodd" d="M31.1069 2.73361C28.9685 2.59333 27.0075 3.30613 25.2113 4.86951C27.3371 3.86602 29.3358 3.59808 31.2201 4.0556C31.1698 3.00028 31.1069 2.73361 31.1069 2.73361Z" fill="white"/>
</svg>
