<svg width="132" height="60" viewBox="0 0 132 60" fill="none" xmlns="http://www.w3.org/2000/svg">
<g clip-path="url(#clip0_864_226)">
<path d="M17.8 35.0999C17.7 35.0999 17.6 35.0999 17.3 35.1999C17 35.1999 16.6 35.2999 15.9 35.2999H8C7.3 35.2999 6.6 35.2999 6 35.1999C5.5 35.1999 5.3 34.9999 5.1 34.9999C5 34.9999 4.9 35.0999 4.9 35.3999C4.9 35.4999 4.5 37.2999 4.5 37.5999C4.5 37.7999 4.5 37.8999 4.7 37.8999C4.9 37.8999 4.9 37.7999 4.9 37.6999C4.9 37.4999 5 37.2999 5.2 36.9999C5.5 36.5999 6 36.4999 7.1 36.3999L10.1 36.2999V44.2999C10.1 46.0999 10.1 47.6999 10 48.4999C9.9 49.0999 9.8 49.4999 9.4 49.5999C9.2 49.5999 9 49.6999 8.7 49.6999C8.5 49.6999 8.4 49.7999 8.4 49.8999C8.4 49.9999 8.5 49.9999 8.8 49.9999C9.6 49.9999 10.9 49.8999 11.3 49.8999C11.9 49.8999 13.1 49.9999 14.4 49.9999C14.6 49.9999 14.8 49.8999 14.8 49.7999C14.8 49.6999 14.7 49.5999 14.5 49.5999C14.2 49.5999 13.8 49.5999 13.5 49.4999C12.9 49.3999 12.8 48.9999 12.7 48.3999C12.6 47.5999 12.6 45.9999 12.6 44.1999V36.1999L15.1 36.2999C16.9 36.2999 17.4 36.8999 17.5 37.3999V37.5999C17.5 37.8999 17.6 37.9999 17.7 37.9999C17.8 37.9999 17.9 37.8999 17.9 37.6999C17.9 37.1999 18 35.7999 18 35.3999C18 35.1999 17.9 35.0999 17.8 35.0999ZM36.4 49.6999C36.1 49.6999 35.7 49.6999 35.4 49.5999C34.8 49.4999 34.7 49.0999 34.6 48.4999C34.5 47.6999 34.5 46.0999 34.5 44.2999V40.8999C34.5 37.8999 34.5 37.3999 34.5 36.6999C34.5 35.9999 34.7 35.6999 35.2 35.5999C35.4 35.5999 35.6 35.4999 35.8 35.4999C36 35.4999 36.2 35.4999 36.2 35.2999C36.2 35.1999 36.1 35.0999 35.8 35.0999C35 35.0999 33.8 35.1999 33.3 35.1999C32.8 35.1999 31.5 35.0999 30.4 35.0999C30.1 35.0999 30 35.0999 30 35.2999C30 35.3999 30.1 35.4999 30.3 35.4999C30.6 35.4999 30.9 35.4999 31.1 35.5999C31.7 35.6999 31.9 36.0999 32 36.6999C32 37.2999 32 37.8999 32 40.8999V41.2999C32 41.3999 31.9 41.3999 31.9 41.3999H24.3C24.3 41.3999 24.2 41.3999 24.2 41.2999V40.8999C24.2 37.8999 24.2 37.3999 24.2 36.6999C24.2 35.9999 24.4 35.6999 24.9 35.5999C25.1 35.5999 25.3 35.4999 25.5 35.4999C25.7 35.4999 25.9 35.4999 25.9 35.2999C25.9 35.1999 25.8 35.0999 25.5 35.0999C24.7 35.0999 23.5 35.1999 23 35.1999C22.5 35.1999 21.2 35.0999 20.1 35.0999C19.8 35.0999 19.7 35.0999 19.7 35.2999C19.7 35.3999 19.8 35.4999 20 35.4999C20.3 35.4999 20.6 35.4999 20.8 35.5999C21.5 35.6999 21.6 36.0999 21.7 36.6999C21.7 37.2999 21.7 37.8999 21.7 40.8999V44.2999C21.7 46.0999 21.7 47.6999 21.6 48.4999C21.5 49.0999 21.4 49.4999 21 49.5999C20.8 49.5999 20.6 49.6999 20.3 49.6999C20.1 49.6999 20 49.7999 20 49.8999C20 49.9999 20.1 50.0999 20.4 50.0999C21.2 50.0999 22.5 49.9999 22.9 49.9999C23.5 49.9999 24.7 50.0999 26 50.0999C26.2 50.0999 26.4 49.9999 26.4 49.8999C26.4 49.7999 26.3 49.6999 26.1 49.6999C25.8 49.6999 25.4 49.6999 25.1 49.5999C24.5 49.4999 24.4 49.0999 24.3 48.4999C24.2 47.6999 24.2 46.0999 24.2 44.2999V42.5999C24.2 42.4999 24.3 42.4999 24.3 42.4999H31.9C32 42.4999 32 42.4999 32 42.5999V44.2999C32 46.0999 32 47.6999 31.9 48.4999C31.8 49.0999 31.7 49.4999 31.3 49.5999C31.1 49.5999 30.9 49.6999 30.6 49.6999C30.4 49.6999 30.3 49.7999 30.3 49.8999C30.3 49.9999 30.4 50.0999 30.7 50.0999C31.5 50.0999 32.7 49.9999 33.2 49.9999C33.8 49.9999 35 50.0999 36.3 50.0999C36.5 50.0999 36.7 49.9999 36.7 49.8999C36.7 49.6999 36.6 49.6999 36.4 49.6999ZM49 47.0999C48.9 47.0999 48.8 47.1999 48.8 47.3999C48.7 48.1999 48.4 48.5999 47.9 48.8999C47.3 48.9999 46.5 48.9999 46 48.9999C44 48.9999 43.6 48.6999 43.6 47.3999C43.6 46.7999 43.6 44.9999 43.6 44.3999V42.8999C43.6 42.7999 43.6 42.6999 43.7 42.6999C44.2 42.6999 46.2 42.6999 46.5 42.7999C47.2 42.8999 47.5 43.1999 47.6 43.5999C47.7 43.7999 47.7 44.0999 47.7 44.2999C47.7 44.3999 47.7 44.4999 47.9 44.4999C48.1 44.4999 48.1 44.2999 48.1 44.0999C48.1 43.9999 48.2 43.1999 48.2 42.7999C48.3 41.7999 48.4 41.4999 48.4 41.3999C48.4 41.2999 48.2 40.9999 48.2 40.9999C48.1 40.9999 48 41.0999 47.9 41.2999C47.7 41.4999 47.4 41.4999 46.9 41.5999C46.4 41.5999 44.1 41.5999 43.7 41.5999C43.6 41.5999 43.6 41.4999 43.6 41.3999V36.3999C43.6 36.2999 43.6 36.1999 43.7 36.1999C44.1 36.1999 46.2 36.1999 46.5 36.2999C47.5 36.3999 47.7 36.6999 47.8 36.9999C47.9 37.1999 47.9 37.5999 47.9 37.6999C47.9 37.8999 47.9 37.9999 48.1 37.9999C48.2 37.9999 48.3 37.8999 48.3 37.7999C48.3 37.5999 48.4 36.6999 48.4 36.4999C48.5 35.5999 48.6 35.3999 48.6 35.1999C48.6 35.0999 48.6 34.9999 48.5 34.9999C48.4 34.9999 48.3 35.0999 48.2 35.0999C48 35.0999 47.7 35.1999 47.3 35.1999C46.9 35.1999 42.9 35.1999 42.3 35.1999C42 35.1999 41.6 35.1999 41 35.1999C40.5 35.1999 39.9 35.1999 39.4 35.1999C39.1 35.1999 39 35.1999 39 35.3999C39 35.4999 39.1 35.5999 39.3 35.5999C39.6 35.5999 39.9 35.5999 40.1 35.6999C40.8 35.8999 40.9 36.1999 41 36.7999C41 37.3999 41 37.9999 41 40.9999V44.3999C41 46.1999 41 47.7999 40.9 48.5999C40.8 49.1999 40.7 49.5999 40.3 49.6999C40.1 49.6999 39.9 49.7999 39.6 49.7999C39.4 49.7999 39.3 49.8999 39.3 49.9999C39.3 50.0999 39.4 50.1999 39.7 50.1999C40.1 50.1999 40.6 50.1999 41.1 50.1999C41.6 50.1999 42 50.1999 42.2 50.1999C42.8 50.1999 43.4 50.1999 44.3 50.2999C45.2 50.2999 46.3 50.3999 47.8 50.3999C48.6 50.3999 48.7 50.3999 48.9 49.8999C49 49.4999 49.2 48.1999 49.2 47.6999C49.1 47.1999 49.1 47.0999 49 47.0999ZM73.2 49.6999C73 49.6999 72.9 49.6999 72.6 49.5999C72.3 49.4999 71.5 49.3999 70.4 48.2999C69.2 47.0999 67.8 45.2999 66.1 43.0999C68.1 41.4999 68.7 40.1999 68.7 38.6999C68.7 37.3999 67.9 36.3999 67.3 35.9999C66.2 35.2999 64.9 35.1999 63.6 35.1999C63 35.1999 61.5 35.2999 60.8 35.2999C60.4 35.2999 59.1 35.1999 58.1 35.1999C57.8 35.1999 57.7 35.1999 57.7 35.3999C57.7 35.4999 57.8 35.5999 58 35.5999C58.3 35.5999 58.6 35.5999 58.8 35.6999C59.4 35.7999 59.6 36.1999 59.7 36.7999C59.7 37.3999 59.7 37.9999 59.7 40.9999V44.3999C59.7 46.1999 59.7 47.7999 59.6 48.5999C59.5 49.1999 59.4 49.5999 59 49.6999C58.8 49.6999 58.6 49.7999 58.3 49.7999C58.1 49.7999 58 49.8999 58 49.9999C58 50.0999 58.1 50.1999 58.4 50.1999C59.2 50.1999 60.4 50.0999 60.8 50.0999C61.1 50.0999 62.6 50.1999 63.7 50.1999C64 50.1999 64.1 50.0999 64.1 49.9999C64.1 49.8999 64 49.7999 63.9 49.7999C63.7 49.7999 63.2 49.7999 62.9 49.6999C62.3 49.5999 62.2 49.1999 62.1 48.5999C62 47.6999 62 46.1999 62 44.2999V43.9999C62 43.8999 62.1 43.8999 62.2 43.8999H63.9C64 43.8999 64.2 43.8999 64.3 43.9999C64.6 44.2999 65.5 45.5999 66.3 46.6999C67.4 48.1999 68.2 49.0999 69 49.5999C69.5 49.8999 70 49.9999 71.1 49.9999H73C73.2 49.9999 73.4 49.9999 73.4 49.7999C73.4 49.6999 73.3 49.6999 73.2 49.6999ZM65.1 42.6999C64.7 42.8999 64.5 42.9999 63.7 42.9999C63.2 42.9999 62.6 42.8999 62.2 42.7999C62 42.6999 62 42.6999 62 42.4999V36.4999C62 36.2999 62 36.2999 62.2 36.1999C62.4 36.0999 62.8 36.0999 63.3 36.0999C64.5 36.0999 66.4 36.8999 66.4 39.6999C66.3 41.2999 65.7 42.1999 65.1 42.6999ZM80.7 34.8999C74.7 34.8999 72.5 39.1999 72.5 42.5999C72.5 45.8999 74.8 50.2999 80.5 50.2999C85.6 50.2999 88.8 46.7999 88.8 42.2999C88.8 37.7999 85.7 34.8999 80.7 34.8999ZM81.3 49.2999C77.5 49.2999 75.2 46.0999 75.2 41.9999C75.2 37.0999 77.8 35.8999 80.1 35.8999C83.4 35.8999 85.9 38.5999 85.9 42.9999C86 48.6999 82.8 49.2999 81.3 49.2999ZM104 35.1999C103.6 35.1999 102.3 35.2999 101.9 35.2999C101.3 35.2999 100.7 35.1999 100 35.1999C99.8 35.1999 99.7 35.1999 99.7 35.3999C99.7 35.4999 99.9 35.5999 100.1 35.5999C100.4 35.6999 100.5 35.8999 100.5 36.0999C100.5 36.2999 100.4 36.6999 100.2 37.0999C99.9 37.6999 97.4 41.9999 97.2 42.4999C96.9 41.9999 94.1 37.1999 93.8 36.6999C93.7 36.3999 93.6 36.1999 93.6 35.9999C93.6 35.7999 93.7 35.6999 93.9 35.5999C94.2 35.4999 94.3 35.4999 94.3 35.3999C94.3 35.2999 94.2 35.1999 94 35.1999C93.1 35.1999 92.3 35.2999 91.9 35.2999C91.3 35.2999 89.8 35.1999 89.4 35.1999C89.2 35.1999 89 35.2999 89 35.3999C89 35.4999 89.1 35.5999 89.3 35.5999C89.5 35.5999 89.9 35.6999 90.1 35.8999C90.5 36.0999 91 36.5999 91.5 37.2999C92.2 38.2999 94.9 42.5999 95 42.8999C95.3 43.4999 95.5 43.8999 95.5 44.9999V46.5999C95.5 46.8999 95.5 47.6999 95.4 48.5999C95.4 49.1999 95.2 49.5999 94.8 49.6999C94.6 49.6999 94.4 49.7999 94.1 49.7999C93.9 49.7999 93.8 49.8999 93.8 49.9999C93.8 50.1999 94 50.1999 94.2 50.1999C94.9 50.1999 96.2 50.0999 96.7 50.0999C97.2 50.0999 98.5 50.1999 99.7 50.1999C100 50.1999 100.1 50.0999 100.1 49.9999C100.1 49.8999 100 49.7999 99.8 49.7999C99.5 49.7999 99.1 49.7999 98.8 49.6999C98.2 49.5999 98 49.1999 98 48.5999C97.9 47.7999 97.9 46.8999 97.9 46.5999V44.9999C97.9 44.3999 97.9 43.7999 98.2 42.9999C98.6 42.1999 101.4 37.4999 102 36.7999C102.5 36.2999 102.7 35.9999 103.1 35.7999C103.4 35.6999 103.8 35.5999 104 35.5999C104.2 35.5999 104.4 35.4999 104.4 35.3999C104.3 35.2999 104.2 35.1999 104 35.1999ZM117.8 49.6999C117.6 49.6999 117.3 49.6999 117 49.5999C116.6 49.4999 116 49.1999 115.2 47.4999C113.9 44.4999 110.7 36.4999 110.3 35.4999C110.1 35.0999 110 34.8999 109.8 34.8999C109.6 34.8999 109.5 35.0999 109.3 35.6999L104.3 47.9999C103.9 48.9999 103.5 49.5999 102.6 49.7999C102.4 49.7999 102.2 49.7999 102 49.7999C101.8 49.7999 101.8 49.7999 101.8 49.9999C101.8 50.0999 101.9 50.1999 102.2 50.1999C103.2 50.1999 104.3 50.0999 104.5 50.0999C105.1 50.0999 106 50.1999 106.6 50.1999C106.8 50.1999 106.9 50.1999 106.9 49.9999C106.9 49.8999 106.8 49.7999 106.6 49.7999H106.3C105.7 49.7999 105.5 49.4999 105.5 49.1999C105.5 48.9999 105.6 48.4999 105.8 47.9999L106.9 45.1999C106.9 45.0999 107 44.9999 107.1 44.9999H111.6C111.7 44.9999 111.8 44.9999 111.8 45.0999L113.4 49.2999C113.5 49.4999 113.4 49.6999 113.2 49.7999C113 49.7999 112.9 49.8999 112.9 49.9999C112.9 50.0999 113.1 50.0999 113.5 50.1999C115.1 50.1999 116.6 50.1999 117.3 50.1999C118 50.1999 118.2 50.1999 118.2 49.9999C118 49.6999 117.9 49.6999 117.8 49.6999ZM111 43.8999H107.3C107.2 43.8999 107.2 43.7999 107.2 43.7999L109 38.9999C109 38.8999 109.1 38.7999 109.1 38.7999C109.1 38.7999 109.2 38.8999 109.2 38.9999L111 43.7999C111.1 43.8999 111.1 43.8999 111 43.8999ZM128.5 46.9999C128.3 46.9999 128.3 47.0999 128.3 47.2999C128.3 47.6999 128 48.1999 127.8 48.4999C127.3 48.9999 126.5 48.9999 125.5 48.9999C123.9 48.9999 123.4 48.8999 123.1 48.5999C122.7 48.2999 122.7 46.8999 122.7 44.3999V40.9999C122.7 37.9999 122.7 37.4999 122.7 36.7999C122.7 36.0999 122.9 35.7999 123.4 35.6999C123.6 35.6999 124 35.5999 124.2 35.5999C124.4 35.5999 124.6 35.5999 124.6 35.3999C124.6 35.2999 124.5 35.1999 124.2 35.1999C123.4 35.1999 122 35.2999 121.5 35.2999C121 35.2999 119.7 35.1999 118.8 35.1999C118.5 35.1999 118.4 35.1999 118.4 35.3999C118.4 35.4999 118.5 35.5999 118.7 35.5999C119 35.5999 119.2 35.5999 119.4 35.6999C120.1 35.7999 120.2 36.1999 120.3 36.7999C120.3 37.3999 120.3 37.9999 120.3 40.9999V44.3999C120.3 46.1999 120.3 47.7999 120.2 48.5999C120.1 49.1999 120 49.5999 119.6 49.6999C119.4 49.6999 119.2 49.7999 118.9 49.7999C118.7 49.7999 118.6 49.8999 118.6 49.9999C118.6 50.0999 118.7 50.1999 119 50.1999C119.4 50.1999 119.9 50.1999 120.4 50.1999C120.9 50.1999 121.3 50.1999 121.5 50.1999C122.3 50.1999 123 50.1999 123.9 50.2999C124.8 50.2999 125.8 50.3999 127.3 50.3999C128.3 50.3999 128.5 50.2999 128.6 49.8999C128.8 49.2999 128.9 47.8999 128.9 47.5999C128.7 47.0999 128.7 46.9999 128.5 46.9999Z" fill="black"/>
<path d="M35.2999 53.7999C34.9999 53.7999 34.7999 53.7999 34.5999 53.7999C34.2999 53.7999 34.1 53.7999 33.9 53.7999V54C34.1 54 34.2999 54 34.2999 54C34.2999 54 34.4 53.9999 34.4 54.0999C34.4 54.1999 34.3 54.3999 34.2 54.7999C34.1 55.0999 34 55.1999 34 55.2999L33.2999 57.0999L32.5 55.0999L32.4 54.7C32.3 54.4 32.2 54.1999 32.2 54.0999V54C32.3 54 32.3999 53.9 32.5999 53.9V53.7C32.2999 53.7 31.9 53.7 31.5 53.7C31.2 53.7 30.9 53.7 30.7 53.7V53.9C30.9 53.9 31 53.9 31.1 54C31.2 54 31.3 54.2999 31.4 54.5999L32.9 58.0999H33.4C33.5 57.6999 33.7999 57.1 34.0999 56.2L34.5 55.2L34.7 54.7C34.8 54.4 34.9 54.1999 35 54.0999C35.1 53.9999 35.0999 54 35.0999 54C35.0999 54 35.2 54 35.4 53.9L35.2999 53.7999ZM37.5 54.2C37.5 54.1 37.5999 54.0999 37.5999 54.0999C37.5999 54.0999 37.7 54.0999 38 54.0999V53.9C37.8 53.9 37.5 53.9 37 53.9C36.5 53.9 36.2 53.9 36 53.9V54.0999C36.2 54.0999 36.3 54.0999 36.4 54.0999C36.5 54.0999 36.5 54.1 36.5 54.2C36.5 54.4 36.5 54.7 36.5 55.2V56.9C36.5 57.4 36.5 57.7 36.5 57.9C36.5 58 36.5 58 36.4 58C36.4 58 36.2 58 36 58V58.2C36.2 58.2 36.5 58.2 37 58.2C37.4 58.2 37.8 58.2 38 58.2V58C37.8 58 37.6999 58 37.5999 58C37.4999 58 37.5 57.9 37.5 57.9C37.5 57.7 37.5 57.4 37.5 56.9V55.2C37.4 54.7 37.5 54.4 37.5 54.2ZM43.7 53.7999C43.5 53.7999 43.2 53.7999 43 53.7999C42.8 53.7999 42.5999 53.7999 42.2999 53.7999V54C42.4999 54 42.7 54 42.7 54C42.8 54 42.7999 53.9999 42.7999 54.0999C42.7999 54.2999 42.7999 54.5999 42.7999 55.0999V57C41.7999 55.8 40.8999 54.8 40.0999 53.7C39.8999 53.7 39.7 53.7 39.4 53.7C39.2 53.7 38.9999 53.7 38.7999 53.7V53.9C38.9999 53.9 39.1 53.9 39.2 53.9C39.3 53.9 39.2999 53.9 39.2999 54C39.2999 54.2 39.2999 54.5 39.2999 55V56.7C39.2999 57.2 39.2999 57.5 39.2999 57.7C39.2999 57.8 39.3 57.7999 39.2 57.7999C39.2 57.7999 38.9999 57.7999 38.7999 57.7999V58C38.9999 58 39.3 58 39.5 58C39.7 58 39.9 58 40.2 58C40 58 39.9 58 39.7999 58C39.6999 58 39.7 57.9 39.7 57.9C39.7 57.7 39.7 57.4 39.7 56.9V54.7999C41.1 56.4999 41.9999 57.5999 42.5999 58.2999C42.6999 58.2999 42.8999 58.3 43.0999 58.4C43.0999 58.1 43.0999 57.5 43.0999 56.5V55.2C43.0999 54.7 43.0999 54.4 43.0999 54.2C43.0999 54.1 43.2 54.0999 43.2 54.0999C43.2 54.0999 43.3999 54.0999 43.5999 54.0999L43.7 53.7999ZM48.2999 53.7999C48.0999 53.7999 47.7 53.7999 46.9 53.7999H45.5999C44.7999 53.7999 44.4 53.7999 44.2 53.7999C44.2 53.9999 44.2 54.0999 44.2 54.2999V54.7999H44.4C44.4 54.6999 44.4 54.6 44.4 54.5C44.4 54.4 44.4 54.2999 44.5 54.2999C44.5 54.2999 44.4999 54.2999 44.5999 54.2999C44.6999 54.2999 44.9 54.2999 45.2999 54.2999H45.7999C45.7999 54.3999 45.7999 54.7 45.7999 55.2V57C45.7999 57.5 45.7999 57.8 45.7999 58C45.7999 58 45.8 58.0999 45.7 58.0999C45.7 58.0999 45.5999 58.0999 45.2999 58.0999V58.2999C45.4999 58.2999 45.7999 58.2999 46.2999 58.2999C46.6999 58.2999 47.0999 58.2999 47.2999 58.2999V58C47.0999 58 47 58 46.9 58C46.8 58 46.7999 58 46.7999 57.9C46.7999 57.7 46.7999 57.4 46.7999 56.9V55.0999C46.7999 54.5999 46.7999 54.3 46.7999 54.2H47.2C47.6 54.2 47.7999 54.2 47.7999 54.2C47.9 54.2 48 54.3 48 54.4C48 54.4 48 54.6 48 54.9H48.2V54.4C48.3 54.2 48.2999 53.9999 48.2999 53.7999ZM53.2 58C53.1 58 53 58 52.9 58C52.9 58 52.8 57.8999 52.7 57.7999L51 53.7999H50.5C50.4 54.0999 50.3 54.4 50.2 54.5L49.4 56.5999C49.1 57.3999 48.9 57.8 48.7999 57.9C48.7999 58 48.7 58 48.5 58V58.2C48.7999 58.2 48.9999 58.2 49.0999 58.2C49.1999 58.2 49.5 58.2 49.9 58.2V58C49.7 58 49.5999 58 49.5999 58C49.4999 58 49.4 57.9 49.4 57.9C49.4 57.9 49.3999 57.5999 49.5999 57.2999L49.7 56.9H51.2999L51.5 57.5999C51.6 57.7999 51.5999 57.9 51.5999 57.9C51.5999 58 51.6 58 51.4 58H51.0999V58.2C51.3999 58.2 51.8 58.2 52.2 58.2C52.3 58.2 52.6 58.2 53 58.2L53.2 58ZM50.5 56.5999C50.2 56.5999 50 56.5999 49.7999 56.5999L50.5 54.9L51.2 56.5999C51 56.5999 50.7999 56.5999 50.5 56.5999ZM58.7 56.5C58.3 56.5 58 56.5 57.7999 56.5C57.5 56.5 57.0999 56.5 56.7999 56.5V56.7C57.0999 56.7 57.2999 56.7 57.2999 56.7C57.2999 56.7 57.4 56.6999 57.4 56.7999C57.4 56.7999 57.4 57 57.4 57.2C57.4 57.5 57.4 57.6999 57.4 57.7999C57.2 57.9999 57 58 56.7 58C56.2 58 55.7 57.8 55.4 57.4C55.1 57.1 55 56.6 55 56C55 55.6 55.1 55.3 55.2 55C55.5 54.4 56 54.0999 56.7 54.0999C57 54.0999 57.2 54.1 57.5 54.2C57.7 54.3 57.9 54.4 58 54.5C58 54.5 58 54.5999 58 54.7999C58 54.8999 58 55 58 55H58.2C58.2 54.5 58.2999 54.2 58.2999 54C58.0999 53.9 57.8999 53.7999 57.5999 53.7999C57.2999 53.6999 56.8999 53.7 56.5999 53.7C55.9999 53.7 55.6 53.8 55.2 54C54.4 54.4 54 55.1 54 56C54 56.7 54.2 57.3 54.7 57.7C55.2 58.1 55.7999 58.2999 56.5 58.2999C57.1 58.2999 57.7 58.2 58.4 57.9C58.4 57.7 58.4 57.5 58.4 57.4C58.4 57 58.4 56.7999 58.4 56.7999C58.4 56.6999 58.4999 56.7 58.5999 56.7L58.7 56.5ZM62.9 57.2H62.7L62.5999 57.5999C62.5999 57.6999 62.6 57.6999 62.5 57.7999C62.5 57.7999 62.5 57.7999 62.4 57.7999C62.3 57.7999 61.9 57.9 61.2999 57.9H61C61 57.6 61 57.3999 61 57.0999V56.0999C61.1 56.0999 61.3 56.0999 61.4 56.0999C61.5 56.0999 61.6999 56.0999 61.7999 56.0999C62 56.0999 62.0999 56.1 62.0999 56.2C62.0999 56.2 62.0999 56.3999 62.0999 56.5999H62.2999C62.2999 56.2999 62.2999 56.1 62.2999 55.9C62.2999 55.7 62.2999 55.4999 62.2999 55.2999H62.0999C62.0999 55.4999 62.1 55.7 62 55.7C62 55.7 61.9 55.7 61.7 55.7H61.2999C61.1999 55.7 61.1 55.7 60.9 55.7V55.0999C60.9 54.6999 60.9 54.4 60.9 54.2C61.1 54.2 61.2999 54.2 61.5 54.2C61.7 54.2 61.7999 54.2 62 54.2C62.2 54.2 62.2999 54.2999 62.2999 54.2999C62.2999 54.2999 62.2999 54.4999 62.2999 54.7999H62.5V54.5C62.5 54.4 62.5 54.3 62.5 54.2V53.7999C61.4 53.7999 60.6 53.7999 60.2 53.7999C59.7 53.7999 59.4 53.7999 59.2 53.7999V54C59.4 54 59.4999 54 59.5999 54C59.6999 54 59.7 53.9999 59.7 54.0999C59.7 54.2999 59.7 54.5999 59.7 55.0999V57.4C59.7 57.6 59.7 57.7999 59.7 57.7999C59.7 57.7999 59.6 57.9 59.5 58V58.0999C59.7 58.0999 59.9 58.0999 60.2999 58.0999H62.5999C62.8999 57.8999 62.9 57.5 62.9 57.2ZM69 56.9C69 56.2 68.5999 55.8999 67.6999 55.7999C67.8999 55.7999 67.9999 55.7 68.1999 55.7C68.2999 55.7 68.4 55.6 68.5 55.5C68.7 55.3 68.8 55 68.8 54.7C68.8 54.5 68.7999 54.3 68.5999 54.2C68.3999 53.9 68 53.7999 67.5 53.7999C67.4 53.7999 67.2 53.7999 67 53.7999C66.7999 53.7999 66.4999 53.7999 66.1999 53.7999C65.6999 53.7999 65.3999 53.7999 65.1999 53.7999V54C65.3999 54 65.5 54 65.5999 54C65.6999 54 65.6999 53.9999 65.6999 54.0999C65.6999 54.2999 65.6999 54.5999 65.6999 55.0999V56.7V57.4C65.6999 57.6 65.6999 57.7999 65.6999 57.7999C65.6999 57.7999 65.6 57.9 65.4 58V58.0999C65.5 58.0999 65.7999 58.0999 66 58.0999H66.8H67.0999C67.5 58.0999 67.7999 58 68.0999 57.9C68.6999 57.8 69 57.4 69 56.9ZM66.6999 54.7999C66.6999 54.5999 66.6999 54.4 66.6999 54.2C66.7999 54.2 66.8999 54.2 67.0999 54.2C67.5999 54.2 67.8 54.4 67.8 54.9C67.8 55.1 67.7999 55.2 67.6999 55.4C67.5999 55.6 67.3 55.7999 66.9 55.7999C66.8 55.7999 66.6999 55.7999 66.5999 55.7999V54.7999H66.6999ZM67.8 57.7C67.6 57.9 67.3999 58 67.0999 58C66.8999 58 66.7999 58 66.6999 58C66.6999 57.8 66.6999 57.7 66.6999 57.5V56C66.7999 56 66.9 56 67 56C67.7 56 68 56.3 68 57C68 57.3 67.9 57.5 67.8 57.7ZM74.0999 54.2999C73.6999 53.8999 73.1 53.7 72.4 53.7C71.9 53.7 71.3999 53.8 71.0999 54C70.2999 54.4 69.9 55.0999 69.9 56.0999C69.9 56.7999 70.0999 57.3999 70.5 57.7999C70.9 58.1999 71.4999 58.4 72.1999 58.4C72.9999 58.4 73.5999 58.2 74 57.7C74.4 57.3 74.6999 56.6 74.6999 55.9C74.6999 55.2 74.5 54.6999 74.0999 54.2999ZM73.5999 57.2C73.3999 57.8 73 58.0999 72.4 58.0999C71.9 58.0999 71.5 57.9 71.3 57.5C71.1 57.1 70.9 56.6 70.9 56C70.9 55.6 70.8999 55.3 71.0999 55C71.2999 54.4 71.7 54.0999 72.3 54.0999C72.8 54.0999 73.1 54.2999 73.4 54.5999C73.6 54.9999 73.8 55.3999 73.8 56.0999C73.7 56.4999 73.6999 56.9 73.5999 57.2ZM80.0999 54V53.7999C79.6999 53.7999 79.4 53.7999 79.3 53.7999C79.1 53.7999 78.8999 53.7999 78.6999 53.7999V54C78.8999 54 79 54 79.0999 54C79.1999 54 79.1999 54.0999 79.1999 54.0999C79.1999 54.1999 79.1999 54.3 79.1999 54.5V56.2999C79.1999 56.4999 79.1999 56.5999 79.1999 56.7999C79.1999 56.9999 79.1999 57.1 79.0999 57.2C79.0999 57.3 79 57.4 78.9 57.5C78.7 57.7 78.4 57.7999 78 57.7999C77.4 57.7999 77.1 57.5999 76.9 57.2999C76.8 57.0999 76.8 56.5999 76.8 55.7999V55.0999C76.8 54.5999 76.8 54.2999 76.8 54.0999C76.8 53.9999 76.8 54 76.9 54C76.9 54 77.1 54 77.3 54V53.7999C77.1 53.7999 76.8 53.7999 76.3 53.7999C75.9 53.7999 75.5 53.7999 75.3 53.7999V54C75.5 54 75.5999 54 75.6999 54C75.7999 54 75.8 53.9999 75.8 54.0999C75.8 54.2999 75.8 54.5999 75.8 55.0999V56C75.8 56.8 75.8 57.2 75.9 57.4C76 57.7 76.1 57.8999 76.4 58.0999C76.7 58.2999 77.0999 58.4 77.6999 58.4C78.2999 58.4 78.7999 58.2 79.0999 57.9C79.3999 57.6 79.5 57.1999 79.5 56.5999V55.5999C79.5 55.2999 79.5 54.9999 79.5 54.7999C79.5 54.5999 79.5 54.3999 79.5 54.2999C79.7 54.1999 79.8999 54.1 80.0999 54ZM84.6999 53.7999C84.4999 53.7999 84.1 53.7999 83.3 53.7999H82C81.2 53.7999 80.7999 53.7999 80.5999 53.7999C80.5999 53.9999 80.5999 54.0999 80.5999 54.2999V54.7999H81C81 54.6999 81 54.6 81 54.5C81 54.4 81 54.2999 81 54.2999C81 54.2999 81 54.2999 81.0999 54.2999C81.1999 54.2999 81.4 54.2999 81.8 54.2999H82.3C82.3 54.3999 82.3 54.7 82.3 55.2V57C82.3 57.5 82.3 57.8 82.3 58C82.3 58 82.2999 58.0999 82.1999 58.0999C82.1999 58.0999 82 58.0999 81.8 58.0999V58.2999C82 58.2999 82.3 58.2999 82.8 58.2999C83.2 58.2999 83.6 58.2999 83.8 58.2999V58C83.6 58 83.4 58 83.4 58C83.3 58 83.3 58 83.3 57.9C83.3 57.7 83.3 57.4 83.3 56.9V54.2H83.6999C83.9999 54.2 84.2 54.2 84.3 54.2C84.4 54.2 84.5 54.3 84.5 54.4C84.5 54.4 84.5 54.6 84.5 54.9H84.6999V54.4C84.6999 54.2 84.6999 53.9999 84.6999 53.7999ZM86.9 54.2C86.9 54.1 86.9 54.0999 87 54.0999C87 54.0999 87.2 54.0999 87.4 54.0999V53.9C87.2 53.9 86.9 53.9 86.4 53.9C85.9 53.9 85.6 53.9 85.4 53.9V54.0999C85.6 54.0999 85.8 54.0999 85.8 54.0999C85.9 54.0999 85.9 54.1 85.9 54.2C85.9 54.4 85.9 54.7 85.9 55.2V56.9C85.9 57.4 85.9 57.7 85.9 57.9C85.9 58 85.9 58 85.8 58C85.8 58 85.6 58 85.4 58V58.2C85.6 58.2 85.9 58.2 86.4 58.2C86.8 58.2 87.2 58.2 87.4 58.2V58C87.2 58 87.0999 58 87 58C86.9 58 86.9 57.9 86.9 57.9C86.9 57.7 86.9 57.4 86.9 56.9V55.2C86.8 54.7 86.9 54.4 86.9 54.2ZM92.4 59C92.2 59 92 58.9 91.8 58.9L91.3 58.7C90.8 58.5 90.5 58.4 90.3 58.4C90.4 58.4 90.4 58.4 90.5 58.4C91 58.4 91.5 58.2999 91.8 58.0999C92.2 57.8999 92.4999 57.6 92.6999 57.2C92.8999 56.8 93 56.4 93 55.9C93 55.4 92.8999 55 92.6999 54.7C92.2999 54.1 91.5999 53.7 90.6999 53.7C89.8999 53.7 89.3 53.8999 88.9 54.2999C88.5 54.6999 88.3 55.2999 88.3 56.0999C88.3 56.7999 88.5 57.3 88.9 57.7C89.3 58.1 89.7 58.3 90.3 58.4C90.1 58.5 89.8999 58.5999 89.5999 58.7999C89.3999 58.8999 89.3 59 89.3 59V59.0999H89.4C89.7 58.8999 89.9 58.7999 90 58.7999C90.2 58.7999 90.5999 58.8999 91.1999 59.0999C91.7999 59.2999 92.2 59.4 92.4 59.4C92.4 59.4 92.7 59.2 93 59V58.7999C92.7 58.9999 92.5 59 92.4 59ZM89.5 57.5C89.2999 57.1 89.0999 56.6 89.0999 56C89.0999 55.6 89.1 55.3 89.3 55C89.5 54.4 89.9 54.0999 90.5 54.0999C91 54.0999 91.2999 54.2999 91.5999 54.5999C91.7999 54.9999 92 55.3999 92 56.0999C92 56.4999 92 56.9 91.8 57.2C91.6 57.8 91.1999 58.0999 90.5999 58.0999C90.1999 58.0999 89.7999 57.9 89.5 57.5ZM98.3999 54V53.7999C97.9999 53.7999 97.6999 53.7999 97.5999 53.7999C97.3999 53.7999 97.2 53.7999 97 53.7999V54C97.2 54 97.2999 54 97.3999 54C97.4999 54 97.5 54.0999 97.5 54.0999C97.5 54.1999 97.5 54.3 97.5 54.5C97.5 54.7 97.5 55.0999 97.5 55.5999V56.2999C97.5 56.4999 97.5 56.5999 97.5 56.7999C97.5 56.9999 97.4999 57.1 97.3999 57.2C97.3999 57.3 97.2999 57.4 97.2 57.5C97 57.7 96.7 57.7999 96.3 57.7999C95.7 57.7999 95.3999 57.5999 95.2 57.2999C95.1 57.0999 95.0999 56.5999 95.0999 55.7999V55.0999C95.0999 54.5999 95.0999 54.2999 95.0999 54.0999C95.0999 53.9999 95.2 54 95.2 54C95.2 54 95.3999 54 95.5999 54V53.7999C95.3999 53.7999 95.0999 53.7999 94.5999 53.7999C94.0999 53.7999 93.7999 53.7999 93.5999 53.7999V54C93.7999 54 93.9 54 94 54C94.0999 54 94.0999 53.9999 94.0999 54.0999C94.0999 54.2999 94.0999 54.5999 94.0999 55.0999V56C94.0999 56.8 94.0999 57.2 94.1999 57.4C94.2999 57.7 94.3999 57.8999 94.6999 58.0999C94.9999 58.2999 95.4 58.4 96 58.4C96.6 58.4 97.0999 58.2 97.3999 57.9C97.5999 57.6 97.8 57.1999 97.8 56.5999V55.5999C97.8 55.2999 97.8 54.9999 97.8 54.7999C97.8 54.5999 97.8 54.3999 97.8 54.2999C98 54.1999 98.2 54.1 98.3999 54ZM102.5 57.2H102.3L102.2 57.5999C102.2 57.6999 102.2 57.6999 102.1 57.7999C102.1 57.7999 102.1 57.7999 102 57.7999C101.9 57.7999 101.5 57.9 100.9 57.9H100.5C100.5 57.6 100.5 57.3999 100.5 57.0999V56.0999C100.6 56.0999 100.8 56.0999 100.9 56.0999C101 56.0999 101.2 56.0999 101.3 56.0999C101.5 56.0999 101.6 56.1 101.6 56.2C101.6 56.2 101.7 56.3999 101.7 56.5999H101.9C101.9 56.2999 101.9 56.1 101.9 55.9C101.9 55.7 101.9 55.4999 101.9 55.2999H101.7C101.7 55.4999 101.7 55.7 101.6 55.7C101.6 55.7 101.5 55.7 101.3 55.7H100.9C100.8 55.7 100.7 55.7 100.5 55.7V55.0999C100.5 54.6999 100.5 54.4 100.5 54.2C100.7 54.2 100.9 54.2 101 54.2C101.2 54.2 101.3 54.2 101.5 54.2C101.7 54.2 101.8 54.2999 101.8 54.2999C101.8 54.2999 101.8 54.4999 101.8 54.7999H102V54.5C102 54.4 102 54.3 102 54.2V53.7999C100.9 53.7999 100.1 53.7999 99.7 53.7999C99.2999 53.7999 98.8999 53.7999 98.7 53.7999V54C98.8999 54 98.9999 54 99.0999 54C99.1999 54 99.2 53.9999 99.2 54.0999C99.2 54.2999 99.2 54.5999 99.2 55.0999V56.7V57.4C99.2 57.6 99.2 57.7999 99.2 57.7999C99.2 57.7999 99.1 57.9 99 58V58.0999C99.1 58.0999 99.4 58.0999 99.8 58.0999H102.1C102.5 57.8999 102.5 57.5 102.5 57.2Z" fill="black"/>
<path d="M24.5 54.5999C24.6 54.3999 24.5 54.1999 24.6 53.9999C24.7 53.7999 24.8 53.6999 24.9 53.4999C25.2 53.2999 25.7 53.1999 26 53.1999C26.7 53.1999 27.5 53.4999 27.9 54.0999C28.3 54.7999 28.1 55.7999 27.7 56.4999C26.9 57.7999 25.3 58.4999 23.7 58.3999C19.6 58.3999 17.2 54.1999 13.7 52.6999C10.1 51.1999 4.70001 50.2999 2.00001 53.8999C1.30001 54.7999 1.10001 55.9999 1.50001 56.9999C1.90001 57.9999 3.00001 58.6999 4.00001 58.6999C4.60001 58.6999 5.30001 58.3999 5.70001 57.8999C6.10001 57.3999 6.20001 56.6999 6.00001 56.0999C5.80001 55.6999 5.40001 55.3999 4.90001 55.2999C4.50001 55.1999 3.90001 55.2999 3.70001 55.6999C3.50001 55.9999 3.60001 56.3999 3.80001 56.5999C4.00001 56.8999 4.40001 56.9999 4.70001 56.8999C5.00001 56.7999 5.30001 56.4999 5.30001 56.1999C5.60001 56.7999 5.40001 57.3999 4.80001 57.6999C4.30001 57.8999 3.80001 57.8999 3.30001 57.5999C2.60001 57.1999 2.10001 56.3999 2.20001 55.5999C2.30001 53.9999 3.60001 53.0999 5.00001 52.6999C7.40001 51.9999 9.20001 53.6999 10.8 55.1999C12.8 57.0999 15 58.6999 17.7 59.2999C20.6 59.9999 24.2 59.4999 26.7 57.8999C27.5 57.3999 28.2 56.5999 28.5 55.5999C28.8 54.6999 28.6 53.4999 27.9 52.8999C27.4 52.3999 26.8 52.1999 26.1 52.1999C25.4 52.1999 24.6 52.4999 24.1 53.0999C23.8 53.4999 23.7 54.0999 23.9 54.4999C24.1 54.9999 24.5 55.2999 25 55.3999C25.3 55.3999 25.7 55.2999 25.9 54.9999C26.1 54.6999 26.1 54.2999 25.9 54.0999C25.7 53.7999 25.4 53.6999 25 53.6999C24.9 53.9999 24.6 54.2999 24.5 54.5999Z" fill="black"/>
<path d="M108.6 54.7C108.5 54.5 108.6 54.3 108.5 54.1C108.4 53.9 108.3 53.8 108.2 53.6C107.9 53.4 107.4 53.3 107.1 53.3C106.4 53.3 105.6 53.6 105.2 54.2C104.7 54.9 105 55.9 105.4 56.6C106.2 57.9 107.8 58.6 109.4 58.5C113.5 58.5 115.9 54.3 119.4 52.8C123 51.3 128.4 50.4 131.1 54C131.8 54.9 132 56.1 131.6 57.1C131.2 58.1 130.1 58.8 129.1 58.8C128.5 58.8 127.8 58.5 127.4 58.1C127 57.6 126.8 56.9 127.1 56.3C127.3 55.9 127.7 55.6 128.2 55.5C128.6 55.4 129.2 55.5 129.4 55.9C129.6 56.2 129.5 56.6 129.3 56.8C129.1 57.1 128.7 57.2 128.4 57.1C128.1 57 127.8 56.7 127.8 56.4C127.5 57 127.7 57.6 128.3 57.9C128.8 58.1 129.3 58.1 129.8 57.8C130.5 57.4 131 56.6 130.9 55.8C130.8 54.2 129.5 53.3 128.1 52.9C125.7 52.2 123.9 53.9 122.3 55.4C120.3 57.3 118.1 58.9 115.4 59.5C112.5 60.2 108.9 59.7 106.4 58.1C105.6 57.5 104.9 56.8 104.6 55.8C104.3 54.9 104.5 53.7 105.2 53.1C105.7 52.7 106.3 52.4 107 52.4C107.7 52.4 108.5 52.7 109 53.3C109.3 53.7 109.4 54.3 109.2 54.7C109 55.2 108.6 55.5 108.1 55.6C107.8 55.6 107.4 55.5 107.2 55.2C107 54.9 107 54.5 107.2 54.3C107.4 54 107.7 53.9 108.1 53.9C108.2 54.1 108.5 54.3 108.6 54.7Z" fill="black"/>
<path d="M57.7999 4.9C57.9999 5.4 58.4999 6.4 58.6999 7.2C59.0999 8.3 59.5999 9.6 59.5999 9.6C63.9999 8.1 66.9999 8.2 70.8999 9.6C70.8999 9.6 71.1999 8.2 71.5999 7.1C71.8999 6.3 72.2999 5.3 72.4999 4.8C72.5999 4.8 72.5999 4.8 72.6999 4.8C72.9999 4.8 73.2999 4.5 73.2999 4.1C73.2999 3.7 72.9999 3.4 72.6999 3.4C72.2999 3.4 72.0999 3.7 72.0999 4.1C72.0999 4.3 72.1999 4.5 72.2999 4.6C72.0999 5 71.6999 5.6 71.4999 5.9C71.1999 6.4 70.2999 7.6 69.3999 6.7C68.9999 6.2 68.8999 4.6 68.9999 3.7C69.3999 3.7 69.6999 3.3 69.6999 2.9C69.6999 2.5 69.3999 2.1 68.9999 2.1C68.5999 2.1 68.2999 2.5 68.2999 2.9C68.2999 3.3 68.4999 3.6 68.8999 3.6C68.7999 4.2 68.4999 5.1 67.8999 5.8C67.1999 6.8 66.2999 6.6 65.7999 5.4C65.4999 4.5 65.3999 2.8 65.3999 2C65.8999 1.9 66.1999 1.5 66.1999 1C66.1999 0.4 65.7999 0 65.1999 0C64.6999 0 64.1999 0.5 64.1999 1C64.1999 1.5 64.5999 1.9 64.9999 2C64.9999 2.8 64.8999 4.5 64.5999 5.4C64.0999 6.7 63.2999 6.8 62.4999 5.9C61.9999 5.2 61.6999 4.3 61.4999 3.7C61.7999 3.6 61.9999 3.3 61.9999 2.9C61.9999 2.5 61.6999 2.1 61.2999 2.1C60.8999 2.1 60.5999 2.5 60.5999 2.9C60.5999 3.3 60.8999 3.7 61.2999 3.7C61.3999 4.7 61.3999 6.2 60.7999 6.8C59.8999 7.7 59.0999 6.6 58.6999 6C58.4999 5.7 58.1999 5.1 57.8999 4.7C57.9999 4.6 58.0999 4.4 58.0999 4.2C58.0999 3.8 57.7999 3.5 57.4999 3.5C57.1999 3.5 56.8999 3.8 56.8999 4.2C56.8999 4.6 57.1999 4.9 57.4999 4.9C57.5999 4.9 57.6999 4.9 57.7999 4.9Z" fill="black"/>
<path d="M52.8 31.8H5.4L3.6 32.6L2.5 31.7001L1.2 32.3L0 31.4L0.5 31.1L1.1 30.6L2.4 31.2001L2.7 31L3.6 30.3L5.4 31.1H52.8L54.6 30.3L55.5 31L56.1 31.5L54.6 32.7001L52.8 31.8Z" fill="black"/>
<path d="M77.6 31.7999H125L126.8 32.5999L127.9 31.6999L129.2 32.2999L130.3 31.4999L129.8 31.1999L129.2 30.6999L127.9 31.2999L127.6 31.0999L126.7 30.3999L124.9 31.1999H77.6L75.8 30.3999L74.9 30.9999L74.3 31.4999L75.8 32.6999L77.6 31.7999Z" fill="black"/>
<path d="M88.8 16.7999C88.1 16.0999 87.4 15.1999 86.4 14.7999C85.6 14.4999 84.8 14.6999 84 14.9999C83.3 15.3999 82.7 15.8999 82.1 16.4999C82.4 15.3999 82.1 14.0999 81.2 13.2999C80.3 12.4999 79 12.2999 77.9 12.7999C76.8 13.1999 76 14.2999 76 15.4999C76 16.0999 76.2 16.7999 76.6 17.2999C77.1 17.7999 77.8 17.9999 78.4 17.6999C79 17.4999 79.4 16.6999 79.1 16.0999C78.9 15.6999 78.4 15.3999 77.9 15.3999C77.4 15.3999 77 15.7999 76.9 16.2999C76.6 15.1999 77.5 13.9999 78.6 13.9999C79.7 13.8999 80.7 14.8999 80.9 15.9999C81 17.0999 80.3 18.1999 79.2 18.5999C78.2 18.9999 76.9 18.7999 76 18.0999C76.5 18.9999 77.7 19.7999 78.8 19.7999C80 19.7999 81.1 18.4999 82 17.7999C83.1 16.8999 84.5 16.1999 85.9 16.6999C86.6 16.9999 87.1 17.4999 87.6 17.9999C89 18.9999 90 18.1999 91.4 17.4999C90.6 18.1999 89.5 17.5999 88.8 16.7999ZM95 18.9999C94 18.3999 92.7 18.5999 91.7 19.2999C90.7 19.8999 89.9 20.9999 89.8 22.2999C89.8 23.4999 90.7 24.6999 91.9 24.8999C93.1 24.9999 94.3 23.7999 94 22.5999C93.8 21.9999 93.3 21.5999 92.7 21.5999C92.1 21.5999 91.6 22.1999 91.7 22.7999C90.8 22.0999 91.1 20.4999 92 19.8999C93 19.2999 94.3 19.6999 95 20.6999C95.7 21.6999 95.6 22.8999 95.2 23.8999C94.7 24.8999 93.9 25.6999 92.9 26.3999C89.8 28.3999 86.3 27.7999 83.1 26.2999C81.3 25.3999 80 23.9999 79.2 22.1999C79.8 25.4999 82.8 27.7999 86 28.4999C89.2 29.1999 92.6 28.0999 94.9 25.7999C95.8 24.8999 96.5 23.6999 96.6 22.4999C96.6 20.9999 96.1 19.5999 95 18.9999ZM89.3 25.5999C88.7 25.6999 88.1 25.6999 87.5 25.5999C86.2 25.4999 85 24.9999 84 24.3999C83.1 23.7999 82.3 22.8999 82.2 21.8999C82.1 20.7999 82.8 19.5999 83.9 19.1999C85 18.7999 86.3 19.2999 86.9 20.1999C86.3 19.9999 85.6 20.2999 85.3 20.7999C85 21.2999 85.4 22.0999 86 22.2999C86.4 22.3999 86.9 22.1999 87.2 21.8999C87.9 21.0999 87.7 19.6999 86.9 18.8999C86.1 18.1999 84.8 18.0999 83.8 18.3999C82.4 18.8999 81.2 20.1999 81.3 21.6999C81.3 23.1999 82.4 24.3999 83.7 25.1999C85.9 26.4999 88.6 26.5999 90.8 25.3999C90.4 25.4999 89.7 25.4999 89.3 25.5999Z" fill="black"/>
<path d="M51 18.8C50 18.4 49.2 17.3 49.4 16.2C49.5 15.1 50.5 14.1 51.7 14.2C52.8 14.3 53.7 15.5 53.4 16.5C53.3 16 52.9 15.6 52.4 15.6C51.9 15.5 51.4 15.8 51.3 16.3C51.1 16.9 51.4 17.7 52 17.9C52.6 18.1 53.3 17.9 53.8 17.5C54.2 17 54.4 16.3 54.4 15.7C54.3 14.5 53.6 13.4 52.5 13C51.4 12.5 50.1 12.8 49.2 13.5C48.3 14.3 48 15.6 48.3 16.7C47.7 16.1 47.1 15.6 46.4 15.2C45.7 14.8 44.8 14.7 44 15C43 15.3 42.4 16.2 41.6 17C40.9 17.7 39.7 18.3 38.8 17.9C40.1 18.6 41.2 19.4 42.6 18.4C43.2 18 43.7 17.4 44.3 17.1C45.6 16.6 47.1 17.3 48.2 18.2C49.1 18.9 50.2 20.2 51.4 20.2C52.5 20.2 53.6 19.4 54.2 18.5C53.2 19 52 19.2 51 18.8ZM47.3 26C44.1 27.6 40.6 28.1 37.5 26.1C36.5 25.5 35.7 24.7 35.2 23.6C34.7 22.6 34.7 21.3 35.4 20.4C36.1 19.5 37.4 19.1 38.4 19.6C39.4 20.2 39.6 21.7 38.7 22.5C38.8 21.9 38.3 21.3 37.7 21.3C37.1 21.3 36.6 21.8 36.4 22.3C36.1 23.5 37.3 24.7 38.5 24.6C39.7 24.5 40.6 23.3 40.6 22C40.6 20.8 39.8 19.7 38.8 19C37.8 18.4 36.5 18.2 35.5 18.7C34.4 19.3 33.8 20.7 34 22C34.1 23.3 34.9 24.4 35.7 25.3C37.9 27.6 41.4 28.7 44.6 28C47.7 27.3 50.8 25 51.4 21.7C50.3 23.7 49.1 25.1 47.3 26ZM46.5 18.3C45.5 18 44.2 18.1 43.4 18.8C42.6 19.5 42.4 20.9 43.1 21.8C43.4 22.1 43.9 22.3 44.3 22.2C44.9 22.1 45.2 21.3 45 20.7C44.8 20.1 44 19.9 43.5 20.1C44.1 19.1 45.5 18.7 46.5 19.1C47.6 19.5 48.3 20.7 48.2 21.8C48.1 22.9 47.3 23.7 46.4 24.3C45.4 25 44.2 25.4 43 25.5C42.4 25.6 41.8 25.6 41.2 25.5C40.8 25.5 40.1 25.5 39.7 25.3C41.9 26.5 44.6 26.4 46.8 25.1C48.1 24.3 49.1 23.1 49.2 21.6C49 20.2 47.9 18.8 46.5 18.3Z" fill="black"/>
<path d="M66.5 18.3C66.5 19.5 66.1 20.1 65.6 20.4C65.3 20.6 65.1 20.6 64.5 20.6C64.1 20.6 63.7001 20.6 63.4001 20.5C63.3001 20.5 63.3 20.4 63.3 20.3V16C63.3 15.9 63.3001 15.8 63.4001 15.8C63.6001 15.7 63.8 15.7 64.2 15.7C65 15.7 66.5 16.3 66.5 18.3Z" fill="black"/>
<path d="M65.2001 11.5C60.2001 11.5 56.1001 15.6 56.1001 20.6C56.1001 25.6 60.2001 29.7 65.2001 29.7C70.2001 29.7 74.3001 25.6 74.3001 20.6C74.3001 15.5 70.2001 11.5 65.2001 11.5ZM71.6001 25.8H70.1001C69.2001 25.8 68.9001 25.7 68.5001 25.5C67.8001 25.2 67.3001 24.5 66.4001 23.4C65.8001 22.6 65.1001 21.7 64.9001 21.4C64.8001 21.3 64.7001 21.3 64.6001 21.3H63.3001C63.2001 21.3 63.2001 21.3 63.2001 21.4V21.6C63.2001 22.9 63.2001 24 63.3001 24.6C63.4001 25 63.4001 25.3 63.9001 25.4C64.1001 25.4 64.5001 25.5 64.7001 25.5C64.8001 25.5 64.9001 25.5 64.9001 25.6C64.9001 25.7 64.8001 25.7 64.6001 25.7C63.7001 25.7 62.6001 25.7 62.4001 25.7C62.1001 25.7 61.2001 25.7 60.5001 25.7C60.3001 25.7 60.2001 25.7 60.2001 25.6C60.2001 25.5 60.3001 25.5 60.4001 25.5C60.6001 25.5 60.8001 25.5 60.9001 25.4C61.2001 25.4 61.3001 25 61.3001 24.6C61.4001 24 61.4001 22.9 61.4001 21.6V19.1C61.4001 16.9 61.4001 16.5 61.4001 16.1C61.4001 15.6 61.3001 15.4 60.7001 15.3C60.6001 15.3 60.3001 15.3 60.1001 15.3C59.9001 15.3 59.8001 15.3 59.8001 15.2C59.8001 15.1 59.9001 15.1 60.1001 15.1C60.9001 15.1 61.9001 15.1 62.2001 15.1C62.7001 15.1 63.9001 15.1 64.3001 15.1C65.3001 15.1 66.3001 15.2 67.1001 15.7C67.5001 16 68.1001 16.7 68.1001 17.6C68.1001 18.6 67.6001 19.6 66.1001 20.8C67.4001 22.4 68.5001 23.6 69.4001 24.5C70.2001 25.3 70.9001 25.4 71.1001 25.5C71.3001 25.5 71.4001 25.5 71.5001 25.5C71.6001 25.5 71.7001 25.5 71.7001 25.6C71.9001 25.7 71.8001 25.8 71.6001 25.8Z" fill="black"/>
<path d="M65.1999 9.6001C59.1999 9.6001 54.2 14.5001 54.2 20.5001C54.2 26.6001 59.0999 31.5001 65.1999 31.5001C71.2999 31.5001 76.1999 26.6001 76.1999 20.5001C76.0999 14.5001 71.1999 9.6001 65.1999 9.6001ZM65.1999 30.7001C59.5999 30.7001 55.0999 26.2001 55.0999 20.6001C55.0999 15.0001 59.5999 10.5001 65.1999 10.5001C70.7999 10.5001 75.3 15.0001 75.3 20.6001C75.3 26.1001 70.7999 30.7001 65.1999 30.7001Z" fill="black"/>
<path d="M66.5 18.3C66.5 19.5 66.1 20.1 65.6 20.4C65.3 20.6 65.1 20.6 64.5 20.6C64.1 20.6 63.7001 20.6 63.4001 20.5C63.3001 20.5 63.3 20.4 63.3 20.3V16C63.3 15.9 63.3001 15.8 63.4001 15.8C63.6001 15.7 63.8 15.7 64.2 15.7C65 15.7 66.5 16.3 66.5 18.3Z" fill="white"/>
<path d="M65.2001 11.5C60.2001 11.5 56.1001 15.6 56.1001 20.6C56.1001 25.6 60.2001 29.7 65.2001 29.7C70.2001 29.7 74.3001 25.6 74.3001 20.6C74.3001 15.5 70.2001 11.5 65.2001 11.5ZM71.6001 25.8H70.1001C69.2001 25.8 68.9001 25.7 68.5001 25.5C67.8001 25.2 67.3001 24.5 66.4001 23.4C65.8001 22.6 65.1001 21.7 64.9001 21.4C64.8001 21.3 64.7001 21.3 64.6001 21.3H63.3001C63.2001 21.3 63.2001 21.3 63.2001 21.4V21.6C63.2001 22.9 63.2001 24 63.3001 24.6C63.4001 25 63.4001 25.3 63.9001 25.4C64.1001 25.4 64.5001 25.5 64.7001 25.5C64.8001 25.5 64.9001 25.5 64.9001 25.6C64.9001 25.7 64.8001 25.7 64.6001 25.7C63.7001 25.7 62.6001 25.7 62.4001 25.7C62.1001 25.7 61.2001 25.7 60.5001 25.7C60.3001 25.7 60.2001 25.7 60.2001 25.6C60.2001 25.5 60.3001 25.5 60.4001 25.5C60.6001 25.5 60.8001 25.5 60.9001 25.4C61.2001 25.4 61.3001 25 61.3001 24.6C61.4001 24 61.4001 22.9 61.4001 21.6V19.1C61.4001 16.9 61.4001 16.5 61.4001 16.1C61.4001 15.6 61.3001 15.4 60.7001 15.3C60.6001 15.3 60.3001 15.3 60.1001 15.3C59.9001 15.3 59.8001 15.3 59.8001 15.2C59.8001 15.1 59.9001 15.1 60.1001 15.1C60.9001 15.1 61.9001 15.1 62.2001 15.1C62.7001 15.1 63.9001 15.1 64.3001 15.1C65.3001 15.1 66.3001 15.2 67.1001 15.7C67.5001 16 68.1001 16.7 68.1001 17.6C68.1001 18.6 67.6001 19.6 66.1001 20.8C67.4001 22.4 68.5001 23.6 69.4001 24.5C70.2001 25.3 70.9001 25.4 71.1001 25.5C71.3001 25.5 71.4001 25.5 71.5001 25.5C71.6001 25.5 71.7001 25.5 71.7001 25.6C71.9001 25.7 71.8001 25.8 71.6001 25.8Z" fill="white"/>
<path d="M66.5 18.3C66.5 19.5 66.1 20.1 65.6 20.4C65.3 20.6 65.1 20.6 64.5 20.6C64.1 20.6 63.7001 20.6 63.4001 20.5C63.3001 20.5 63.3 20.4 63.3 20.3V16C63.3 15.9 63.3001 15.8 63.4001 15.8C63.6001 15.7 63.8 15.7 64.2 15.7C65 15.7 66.5 16.3 66.5 18.3Z" fill="black"/>
<path d="M65.2001 11.5C60.2001 11.5 56.1001 15.6 56.1001 20.6C56.1001 25.6 60.2001 29.7 65.2001 29.7C70.2001 29.7 74.3001 25.6 74.3001 20.6C74.3001 15.5 70.2001 11.5 65.2001 11.5ZM71.6001 25.8H70.1001C69.2001 25.8 68.9001 25.7 68.5001 25.5C67.8001 25.2 67.3001 24.5 66.4001 23.4C65.8001 22.6 65.1001 21.7 64.9001 21.4C64.8001 21.3 64.7001 21.3 64.6001 21.3H63.3001C63.2001 21.3 63.2001 21.3 63.2001 21.4V21.6C63.2001 22.9 63.2001 24 63.3001 24.6C63.4001 25 63.4001 25.3 63.9001 25.4C64.1001 25.4 64.5001 25.5 64.7001 25.5C64.8001 25.5 64.9001 25.5 64.9001 25.6C64.9001 25.7 64.8001 25.7 64.6001 25.7C63.7001 25.7 62.6001 25.7 62.4001 25.7C62.1001 25.7 61.2001 25.7 60.5001 25.7C60.3001 25.7 60.2001 25.7 60.2001 25.6C60.2001 25.5 60.3001 25.5 60.4001 25.5C60.6001 25.5 60.8001 25.5 60.9001 25.4C61.2001 25.4 61.3001 25 61.3001 24.6C61.4001 24 61.4001 22.9 61.4001 21.6V19.1C61.4001 16.9 61.4001 16.5 61.4001 16.1C61.4001 15.6 61.3001 15.4 60.7001 15.3C60.6001 15.3 60.3001 15.3 60.1001 15.3C59.9001 15.3 59.8001 15.3 59.8001 15.2C59.8001 15.1 59.9001 15.1 60.1001 15.1C60.9001 15.1 61.9001 15.1 62.2001 15.1C62.7001 15.1 63.9001 15.1 64.3001 15.1C65.3001 15.1 66.3001 15.2 67.1001 15.7C67.5001 16 68.1001 16.7 68.1001 17.6C68.1001 18.6 67.6001 19.6 66.1001 20.8C67.4001 22.4 68.5001 23.6 69.4001 24.5C70.2001 25.3 70.9001 25.4 71.1001 25.5C71.3001 25.5 71.4001 25.5 71.5001 25.5C71.6001 25.5 71.7001 25.5 71.7001 25.6C71.9001 25.7 71.8001 25.8 71.6001 25.8Z" fill="black"/>
</g>
<defs>
<clipPath id="clip0_864_226">
<rect width="132" height="60" fill="white"/>
</clipPath>
</defs>
</svg>
