<svg width="16" height="16" viewBox="0 0 16 16" fill="none" xmlns="http://www.w3.org/2000/svg">
<path d="M15.7189 14.3814L12.6438 11.3064C13.5758 10.0864 14.0869 8.60662 14.0871 7.04511C14.0871 5.16334 13.3542 3.39408 12.0234 2.06349C10.6928 0.732892 8.92375 0 7.04175 0C5.15999 0 3.39072 0.732892 2.06013 2.06349C-0.68671 4.81056 -0.68671 9.28013 2.06013 12.0267C3.39072 13.3576 5.15999 14.0905 7.04175 14.0905C8.60326 14.0903 10.083 13.5791 11.303 12.6472L14.3781 15.7222C14.563 15.9074 14.8059 16 15.0485 16C15.2911 16 15.5339 15.9074 15.7189 15.7222C16.0892 15.3521 16.0892 14.7516 15.7189 14.3814ZM3.40091 10.686C1.39344 8.67849 1.39367 5.41196 3.40091 3.40427C4.37339 2.43201 5.66648 1.89635 7.04175 1.89635C8.41726 1.89635 9.71012 2.43201 10.6826 3.40427C11.6551 4.37675 12.1907 5.66984 12.1907 7.04511C12.1907 8.42061 11.6551 9.71348 10.6826 10.686C9.71012 11.6584 8.41726 12.1941 7.04175 12.1941C5.66648 12.1941 4.37339 11.6584 3.40091 10.686Z" fill="#999999"/>
</svg>
